<svg width="64" height="42" viewBox="0 0 64 42" fill="none" xmlns="http://www.w3.org/2000/svg">
<g clip-path="url(#clip0_656_1225)">
<path d="M5.8 0H58.1C61.4 0 64 2.6 64 5.7V36.3C64 39.5 61.4 42 58.2 42H5.8C2.6 42 0 39.4 0 36.3V5.7C0 2.6 2.6 0 5.8 0Z" fill="#008F3E"/>
<path d="M4 21L32 0L60 21L32 42L4 21Z" fill="#F8C300"/>
<path d="M32 35C39.6768 35 45.9 28.732 45.9 21C45.9 13.268 39.6768 7 32 7C24.3232 7 18.1 13.268 18.1 21C18.1 28.732 24.3232 35 32 35Z" fill="#28166F"/>
<path d="M44.5 28C44.9 27.2 45.2 26.3 45.4 25.4C41.2 15.8 30.1 11.4 20.6 15.6C20.2 15.8 19.8 16 19.4 16.2C19.1 16.9 18.8 17.6 18.6 18.3C27.9 13.6 39.2 17.3 43.9 26.7C44.1 27.1 44.3 27.5 44.5 28Z" fill="white"/>
</g>
<defs>
<clipPath id="clip0_656_1225">
<rect width="64" height="42" fill="white"/>
</clipPath>
</defs>
</svg>
