<svg width="96" height="96" viewBox="0 0 96 96" fill="none" xmlns="http://www.w3.org/2000/svg">
<rect y="96" width="96" height="96" rx="10" transform="rotate(-90 0 96)" fill="#FFDD00"/>
<path fill-rule="evenodd" clip-rule="evenodd" d="M73.3296 28.2054L73.7595 30.3144C74.2839 32.3475 73.9875 34.3583 72.5056 35.9037C71.5708 36.8727 70.3169 37.2971 69.0076 37.5441C68.6749 37.6063 68.3717 37.7712 68.1429 38.0142C67.9141 38.2572 67.7719 38.5654 67.7374 38.8931L67.0372 45.502C66.5884 49.7653 66.1387 54.028 65.6889 58.2906C65.0254 64.578 64.362 70.8652 63.7021 77.1535C63.2103 81.7737 59.7677 84.7505 55.1819 85.5675C52.365 86.072 49.4779 86.0201 46.6091 85.9685C46.3268 85.9634 46.0447 85.9584 45.7628 85.9538C43.307 85.9158 40.8285 85.8398 38.4118 85.4598C34.269 84.8138 30.9241 82.5211 30.4453 78.265L27.3545 49.4098L26.6119 42.4905C26.4816 41.2903 27.7258 40.3878 28.8201 40.3403C30.0968 40.2864 30.9078 41.3758 31.0283 42.4873L32.0771 52.2852L34.4579 74.4934C34.4627 74.5379 34.4675 74.5826 34.4723 74.6274C34.6799 76.5561 34.9164 78.7539 36.4284 80.1714C38.1839 81.8181 40.9751 82.0207 43.2517 82.0081C44.3035 82.0034 45.3538 82.0233 46.4041 82.0432C47.4871 82.0637 48.5701 82.0842 49.6548 82.0777C51.5797 82.0619 53.4948 81.8434 55.374 81.4286C57.4227 80.9757 58.8264 79.7375 59.2238 77.7203C59.3943 76.8594 59.4591 75.9743 59.5238 75.0926C59.5554 74.6608 59.587 74.2299 59.6309 73.8031L62.9465 42.4303L63.1777 40.2231C63.2021 39.9955 63.1737 39.7655 63.0945 39.5499C63.0153 39.3344 62.8874 39.1389 62.7202 38.9779C62.553 38.8168 62.3507 38.6943 62.1283 38.6193C61.9059 38.5444 61.6691 38.5189 61.4352 38.5448C49.1256 39.8706 36.6839 39.4696 24.4916 37.3541C22.0261 36.9202 20.313 34.9822 20.0296 32.5976C19.9204 31.6936 20.1337 30.7515 20.3379 29.8492C20.3834 29.6484 20.4284 29.4496 20.4693 29.2536C20.5074 29.0683 20.5433 28.8826 20.5792 28.6971C20.7517 27.8046 20.9237 26.9153 21.3389 26.0868C21.8209 25.1463 22.5928 24.3736 23.5373 23.867C24.6936 23.2558 25.9149 23.1513 27.1949 23.3571C27.5793 23.4183 27.9633 23.4824 28.3475 23.5465C29.0179 23.6584 29.689 23.7703 30.3639 23.867C30.4858 23.8842 30.6163 23.9034 30.7516 23.9233C31.0647 23.9694 31.4037 24.0194 31.7221 24.057C36.7974 24.693 41.9092 25.0145 47.0265 25.0197C52.1911 25.033 57.3511 24.721 62.4742 24.0855C62.5159 24.08 62.558 24.0749 62.6002 24.0698C62.68 24.0601 62.7602 24.0504 62.839 24.038H62.8487C62.9537 24.0237 63.0545 23.9886 63.1448 23.9348C63.2352 23.881 63.3132 23.8097 63.374 23.7254C63.4348 23.641 63.4771 23.5454 63.4982 23.4444C63.5194 23.3435 63.5189 23.2394 63.4969 23.1386L62.4579 18.4392C62.4389 18.3537 62.4205 18.2674 62.402 18.1806C62.3227 17.8075 62.2417 17.4263 62.0964 17.0743C61.6085 15.9115 60.3381 15.6791 59.1815 15.4674C58.9868 15.4318 58.7954 15.3968 58.6114 15.358C57.7484 15.1775 56.882 15.0255 56.0124 14.8988L55.2698 14.8006C53.0877 14.5568 50.8957 14.4048 48.7005 14.3446C44.9766 14.2237 41.2484 14.3506 37.5422 14.7246C37.401 14.7414 37.2594 14.7606 37.1176 14.7798C36.8313 14.8187 36.5444 14.8576 36.259 14.8766H36.2525C35.3373 15.0001 34.4253 15.1521 33.5232 15.3421H33.5069C33.1454 15.4276 33.1454 15.928 33.5069 16.0135C34.2885 16.1718 35.0735 16.3112 35.8649 16.4252C35.9413 16.4356 36.0223 16.4473 36.106 16.4592C36.3007 16.4871 36.5093 16.517 36.7052 16.5392C37.958 16.684 39.2146 16.797 40.4735 16.878C44.3102 17.1187 48.1566 17.1123 51.9901 16.859C52.2556 16.8358 52.5298 16.813 52.8105 16.7897C53.9827 16.6923 55.2666 16.5857 56.4912 16.3967C57.719 16.213 58.8036 16.6817 59.2075 17.8945C59.5462 18.911 58.8101 20.3646 57.6637 20.5356C56.6931 20.6812 55.7193 20.8079 54.7454 20.9124C50.7948 21.3178 46.8245 21.4444 42.8576 21.2861C39.2814 21.1626 35.6532 20.8681 32.152 20.1144C30.8948 19.8547 29.6669 19.4684 28.4944 18.9554C27.5922 18.5627 26.7422 17.9642 26.2406 17.1187C25.5371 15.928 25.8498 14.446 26.8171 13.4896C27.6053 12.7138 28.6736 12.2704 29.7093 11.9031C32.5428 10.9024 35.6858 10.5826 38.6659 10.3197C42.6728 9.97427 46.7 9.90865 50.7166 10.1234C54.0615 10.3007 57.4813 10.6079 60.7382 11.4407C61.4294 11.6075 62.1101 11.8126 62.7771 12.0551C64.0766 12.5428 65.3859 13.2838 66.021 14.5505C66.4353 15.3589 66.6018 16.3264 66.7583 17.2358C66.7839 17.3844 66.8092 17.5314 66.8352 17.676C66.9638 18.3793 67.0844 19.0836 67.2051 19.7885C67.2893 20.2801 67.3736 20.772 67.4606 21.2639C67.5746 21.9163 67.7179 22.6224 68.2129 23.0753C68.5744 23.4103 69.0659 23.5477 69.5571 23.6851C69.7298 23.7333 69.9025 23.7816 70.0694 23.8385C72.0659 24.5225 72.942 26.3117 73.3296 28.2054ZM67.0632 33.497C67.7635 33.3957 68.4735 33.193 68.9458 32.7591H68.9425C69.2704 32.4572 69.4672 32.0448 69.4929 31.6065C69.5776 30.6026 69.5059 29.4119 68.9653 28.5221C68.2587 27.3427 67.0171 27.5762 65.8253 27.8003C65.6987 27.8241 65.5726 27.8478 65.4478 27.8697C63.9952 28.1231 62.5328 28.3447 61.0672 28.5347C53.0225 29.5797 44.8085 29.6937 36.7313 28.9781C34.839 28.8102 32.9532 28.5854 31.0739 28.3067C30.5752 28.234 30.0494 28.1184 29.5133 28.0006C28.3687 27.749 27.1773 27.4871 26.1038 27.61C25.0909 27.7272 24.7652 28.8324 24.5959 29.6557C24.5872 29.6979 24.5781 29.7414 24.5688 29.7861C24.3794 30.697 24.0887 32.0942 24.7717 32.8066C25.1528 33.2025 25.7488 33.3007 26.3025 33.3767C31.937 34.1493 37.5683 34.7637 43.2614 34.9537C51.2149 35.207 59.1944 34.6338 67.0632 33.497Z" fill="black"/>
<path d="M48.8862 45.1094C46.0787 46.2811 42.8934 47.6048 38.7603 47.6048C37.0329 47.6007 35.3139 47.3695 33.6502 46.9176L36.5065 75.4308C36.7182 77.9008 38.8418 79.8009 41.392 79.8009C41.392 79.8009 45.4403 80.0067 46.792 80.0067C48.2478 80.0067 52.6089 79.8009 52.6089 79.8009C55.1591 79.8009 57.2794 77.9008 57.4911 75.4308L60.5526 43.9219C59.1714 43.4362 57.7156 43.1814 56.2469 43.1682C53.5567 43.1682 51.3908 44.0675 48.8862 45.1094Z" fill="white"/>
</svg>
