<svg width="96" height="96" viewBox="0 0 96 96" fill="none" xmlns="http://www.w3.org/2000/svg">
<rect width="96" height="96" rx="20" fill="#3D3D3E"/>
<path d="M66.7429 42.3714C66.7429 47.7495 64.997 52.7176 62.0561 56.7482L76.8898 71.5937C78.3545 73.0583 78.3545 75.4369 76.8898 76.9015C75.4252 78.3662 73.0466 78.3662 71.582 76.9015L56.7482 62.056C52.7176 65.0087 47.7496 66.7429 42.3714 66.7429C28.9086 66.7429 18 55.8343 18 42.3714C18 28.9086 28.9086 18 42.3714 18C55.8343 18 66.7429 28.9086 66.7429 42.3714ZM42.3714 59.244C44.5872 59.244 46.7812 58.8075 48.8283 57.9596C50.8753 57.1117 52.7354 55.8689 54.3021 54.3021C55.8689 52.7353 57.1117 50.8753 57.9596 48.8283C58.8076 46.7812 59.244 44.5872 59.244 42.3714C59.244 40.1557 58.8076 37.9617 57.9596 35.9146C57.1117 33.8675 55.8689 32.0075 54.3021 30.4408C52.7354 28.874 50.8753 27.6312 48.8283 26.7832C46.7812 25.9353 44.5872 25.4989 42.3714 25.4989C40.1557 25.4989 37.9617 25.9353 35.9146 26.7832C33.8675 27.6312 32.0075 28.874 30.4408 30.4408C28.874 32.0075 27.6312 33.8675 26.7832 35.9146C25.9353 37.9617 25.4989 40.1557 25.4989 42.3714C25.4989 44.5872 25.9353 46.7812 26.7832 48.8283C27.6312 50.8753 28.874 52.7353 30.4408 54.3021C32.0075 55.8689 33.8675 57.1117 35.9146 57.9596C37.9617 58.8075 40.1557 59.244 42.3714 59.244Z" fill="white"/>
</svg>
