<svg width="96" height="96" viewBox="0 0 96 96" fill="none" xmlns="http://www.w3.org/2000/svg">
<g filter="url(#filter0_i_587_986)">
<rect width="96" height="96" rx="8" fill="url(#paint0_linear_587_986)"/>
</g>
<path d="M66.7429 40.3714C66.7429 45.7495 64.997 50.7176 62.0561 54.7482L76.8898 69.5937C78.3545 71.0583 78.3545 73.4369 76.8898 74.9015C75.4252 76.3662 73.0466 76.3662 71.582 74.9015L56.7482 60.056C52.7176 63.0087 47.7496 64.7429 42.3714 64.7429C28.9086 64.7429 18 53.8343 18 40.3714C18 26.9086 28.9086 16 42.3714 16C55.8343 16 66.7429 26.9086 66.7429 40.3714ZM42.3714 57.244C44.5872 57.244 46.7812 56.8075 48.8283 55.9596C50.8753 55.1117 52.7354 53.8689 54.3021 52.3021C55.8689 50.7353 57.1117 48.8753 57.9596 46.8283C58.8076 44.7812 59.244 42.5872 59.244 40.3714C59.244 38.1557 58.8076 35.9617 57.9596 33.9146C57.1117 31.8675 55.8689 30.0075 54.3021 28.4408C52.7354 26.874 50.8753 25.6312 48.8283 24.7832C46.7812 23.9353 44.5872 23.4989 42.3714 23.4989C40.1557 23.4989 37.9617 23.9353 35.9146 24.7832C33.8675 25.6312 32.0075 26.874 30.4408 28.4408C28.874 30.0075 27.6312 31.8675 26.7832 33.9146C25.9353 35.9617 25.4989 38.1557 25.4989 40.3714C25.4989 42.5872 25.9353 44.7812 26.7832 46.8283C27.6312 48.8753 28.874 50.7353 30.4408 52.3021C32.0075 53.8689 33.8675 55.1117 35.9146 55.9596C37.9617 56.8075 40.1557 57.244 42.3714 57.244Z" fill="white"/>
<defs>
<filter id="filter0_i_587_986" x="-4" y="-4" width="100" height="100" filterUnits="userSpaceOnUse" color-interpolation-filters="sRGB">
<feFlood flood-opacity="0" result="BackgroundImageFix"/>
<feBlend mode="normal" in="SourceGraphic" in2="BackgroundImageFix" result="shape"/>
<feColorMatrix in="SourceAlpha" type="matrix" values="0 0 0 0 0 0 0 0 0 0 0 0 0 0 0 0 0 0 127 0" result="hardAlpha"/>
<feOffset dx="-4" dy="-4"/>
<feGaussianBlur stdDeviation="2"/>
<feComposite in2="hardAlpha" operator="arithmetic" k2="-1" k3="1"/>
<feColorMatrix type="matrix" values="0 0 0 0 0 0 0 0 0 0 0 0 0 0 0 0 0 0 0.25 0"/>
<feBlend mode="normal" in2="shape" result="effect1_innerShadow_587_986"/>
</filter>
<linearGradient id="paint0_linear_587_986" x1="4.5" y1="2.28407e-06" x2="96" y2="96" gradientUnits="userSpaceOnUse">
<stop offset="0.204511" stop-color="#3D3D3E"/>
<stop offset="1" stop-color="#6A6A71"/>
</linearGradient>
</defs>
</svg>
