<svg width="96" height="96" viewBox="0 0 96 96" fill="none" xmlns="http://www.w3.org/2000/svg">
<g filter="url(#filter0_i_586_976)">
<rect width="96" height="96" rx="8" fill="url(#paint0_linear_586_976)"/>
</g>
<path d="M37.0156 86.5938C44.0812 86.5938 49.7812 80.8937 49.7812 73.8281V61.0625H37.0156C29.95 61.0625 24.25 66.7625 24.25 73.8281C24.25 80.8937 29.95 86.5938 37.0156 86.5938Z" fill="#0ACF83"/>
<path d="M24.25 48.2969C24.25 41.2313 29.95 35.5312 37.0156 35.5312H49.7812V61.0625H37.0156C29.95 61.0625 24.25 55.3625 24.25 48.2969Z" fill="#A259FF"/>
<path d="M24.25 22.7656C24.25 15.7 29.95 10 37.0156 10H49.7812V35.5312H37.0156C29.95 35.5312 24.25 29.8312 24.25 22.7656Z" fill="#F24E1E"/>
<path d="M49.7812 10H62.5469C69.6125 10 75.3125 15.7 75.3125 22.7656C75.3125 29.8312 69.6125 35.5312 62.5469 35.5312H49.7812V10Z" fill="#FF7262"/>
<path d="M75.3125 48.2969C75.3125 55.3625 69.6125 61.0625 62.5469 61.0625C55.4813 61.0625 49.7812 55.3625 49.7812 48.2969C49.7812 41.2313 55.4813 35.5312 62.5469 35.5312C69.6125 35.5312 75.3125 41.2313 75.3125 48.2969Z" fill="#1ABCFE"/>
<defs>
<filter id="filter0_i_586_976" x="-4" y="-4" width="100" height="100" filterUnits="userSpaceOnUse" color-interpolation-filters="sRGB">
<feFlood flood-opacity="0" result="BackgroundImageFix"/>
<feBlend mode="normal" in="SourceGraphic" in2="BackgroundImageFix" result="shape"/>
<feColorMatrix in="SourceAlpha" type="matrix" values="0 0 0 0 0 0 0 0 0 0 0 0 0 0 0 0 0 0 127 0" result="hardAlpha"/>
<feOffset dx="-4" dy="-4"/>
<feGaussianBlur stdDeviation="2"/>
<feComposite in2="hardAlpha" operator="arithmetic" k2="-1" k3="1"/>
<feColorMatrix type="matrix" values="0 0 0 0 0 0 0 0 0 0 0 0 0 0 0 0 0 0 0.25 0"/>
<feBlend mode="normal" in2="shape" result="effect1_innerShadow_586_976"/>
</filter>
<linearGradient id="paint0_linear_586_976" x1="4.5" y1="2.28407e-06" x2="96" y2="96" gradientUnits="userSpaceOnUse">
<stop offset="0.204511" stop-color="#3D3D3E"/>
<stop offset="1" stop-color="#6A6A71"/>
</linearGradient>
</defs>
</svg>
