<svg width="96" height="96" viewBox="0 0 96 96" fill="none" xmlns="http://www.w3.org/2000/svg">
<rect width="96" height="96" rx="20" fill="#3D3D3E"/>
<path d="M86.4927 44.4284L51.5708 9.50828C49.561 7.49724 46.2992 7.49724 44.2863 9.50828L37.036 16.7604L46.2346 25.959C48.373 25.2373 50.8238 25.7214 52.5275 27.4251C53.3394 28.2378 53.9063 29.2626 54.1632 30.3823C54.4201 31.5019 54.3568 32.6713 53.9803 33.7567L62.8456 42.6232C64.9904 41.8838 67.4658 42.3616 69.1778 44.0774C71.5728 46.4705 71.5728 50.35 69.1778 52.7443C68.6087 53.3138 67.9329 53.7655 67.1891 54.0737C66.4453 54.3818 65.6481 54.5405 64.843 54.5405C64.038 54.5405 63.2407 54.3818 62.497 54.0737C61.7532 53.7655 61.0774 53.3138 60.5083 52.7443C59.6532 51.8887 59.0703 50.7992 58.833 49.6131C58.5956 48.4269 58.7145 47.197 59.1746 46.0783L50.9074 37.8104L50.9061 59.5688C51.5059 59.8642 52.0536 60.2554 52.5275 60.727C54.9219 63.1201 54.9219 66.9984 52.5275 69.3965C50.1331 71.7896 46.2523 71.7896 43.8605 69.3965C41.4668 66.999 41.2704 63.1208 43.6635 60.727C44.2552 60.1359 44.8388 59.6892 45.4724 59.3901V37.4303C44.8388 37.1312 44.2559 36.6877 43.6628 36.0928C41.8501 34.2807 41.5111 31.6196 42.4413 29.3918L33.4233 20.3232L9.50243 44.2668C7.49076 46.2797 7.50343 49.5415 9.5151 51.5532L44.4428 86.4733C46.4532 88.4843 49.7175 88.4843 51.7311 86.4733L86.4902 51.7154C88.5019 49.7031 88.5038 46.4394 86.4927 44.4284Z" fill="#FF7A00"/>
</svg>
