<svg width="96" height="96" viewBox="0 0 96 96" fill="none" xmlns="http://www.w3.org/2000/svg">
<rect width="96" height="96" rx="20" fill="#3D3D3E"/>
<path d="M36.0823 69.5258C36.0823 69.8161 35.7484 70.0484 35.3274 70.0484C34.8484 70.0919 34.5145 69.8597 34.5145 69.5258C34.5145 69.2355 34.8484 69.0032 35.2694 69.0032C35.7048 68.9597 36.0823 69.1919 36.0823 69.5258ZM31.5677 68.8726C31.4661 69.1629 31.7565 69.4968 32.1919 69.5839C32.5694 69.729 33.0048 69.5839 33.0919 69.2935C33.179 69.0032 32.9032 68.6693 32.4677 68.5387C32.0903 68.4371 31.6694 68.5822 31.5677 68.8726ZM37.9839 68.6258C37.5629 68.7274 37.2726 69.0032 37.3161 69.3371C37.3597 69.6274 37.7371 69.8161 38.1726 69.7145C38.5935 69.6129 38.8839 69.3371 38.8403 69.0468C38.7968 68.771 38.4048 68.5822 37.9839 68.6258ZM47.5355 13C27.4016 13 12 28.2855 12 48.4193C12 64.5177 22.1323 78.2935 36.6048 83.1419C38.4629 83.4758 39.1161 82.329 39.1161 81.3855C39.1161 80.4855 39.0726 75.521 39.0726 72.4726C39.0726 72.4726 28.9113 74.65 26.7774 68.1468C26.7774 68.1468 25.1226 63.9226 22.7419 62.8339C22.7419 62.8339 19.4177 60.5548 22.9742 60.5984C22.9742 60.5984 26.5887 60.8887 28.5774 64.3435C31.7565 69.9468 37.0839 68.3355 39.1597 67.3774C39.4935 65.0548 40.4371 63.4435 41.4823 62.4855C33.3677 61.5855 25.1806 60.4097 25.1806 46.4452C25.1806 42.4532 26.2839 40.45 28.6065 37.8952C28.229 36.9516 26.9952 33.0613 28.9839 28.0387C32.0177 27.0952 39 31.9581 39 31.9581C41.9032 31.1452 45.0242 30.7242 48.1161 30.7242C51.2081 30.7242 54.329 31.1452 57.2323 31.9581C57.2323 31.9581 64.2145 27.0806 67.2484 28.0387C69.2371 33.0758 68.0032 36.9516 67.6258 37.8952C69.9484 40.4645 71.371 42.4677 71.371 46.4452C71.371 60.4532 62.821 61.571 54.7065 62.4855C56.0419 63.6322 57.1742 65.8097 57.1742 69.221C57.1742 74.1129 57.1306 80.1661 57.1306 81.3564C57.1306 82.3 57.7984 83.4468 59.6419 83.1129C74.1581 78.2935 84 64.5177 84 48.4193C84 28.2855 67.6694 13 47.5355 13ZM26.1097 63.0661C25.921 63.2113 25.9645 63.5452 26.2113 63.821C26.4435 64.0532 26.7774 64.1548 26.9661 63.9661C27.1548 63.821 27.1113 63.4871 26.8645 63.2113C26.6323 62.979 26.2984 62.8774 26.1097 63.0661ZM24.5419 61.8903C24.4403 62.079 24.5855 62.3113 24.8758 62.4564C25.1081 62.6016 25.3984 62.5581 25.5 62.3548C25.6016 62.1661 25.4565 61.9339 25.1661 61.7887C24.8758 61.7016 24.6435 61.7451 24.5419 61.8903ZM29.2452 67.0581C29.0129 67.2468 29.1 67.6822 29.4339 67.9581C29.7677 68.2919 30.1887 68.3355 30.3774 68.1032C30.5661 67.9145 30.479 67.479 30.1887 67.2032C29.8694 66.8693 29.4339 66.8258 29.2452 67.0581ZM27.5903 64.9242C27.3581 65.0693 27.3581 65.4468 27.5903 65.7806C27.8226 66.1145 28.2145 66.2597 28.4032 66.1145C28.6355 65.9258 28.6355 65.5484 28.4032 65.2145C28.2 64.8806 27.8226 64.7355 27.5903 64.9242Z" fill="white"/>
</svg>
