<svg width="96" height="96" viewBox="0 0 96 96" fill="none" xmlns="http://www.w3.org/2000/svg">
<rect width="96" height="96" rx="20" fill="#3D3D3E"/>
<path d="M47.346 70.0023C44.2013 70.0158 41.0656 69.6655 38.0013 68.9584C37.0905 68.753 36.197 68.4768 35.3291 68.1323L37.4887 71.8219L38.3334 83.35C38.3334 84.6436 42.4399 85.6902 47.5027 85.6902C52.5656 85.6902 56.6721 84.6436 56.6721 83.35L57.3415 71.697L59.3842 68.1217C58.5091 68.4717 57.6075 68.7515 56.6881 68.9584C53.6247 69.6653 50.4899 70.0156 47.346 70.0023ZM59.4532 32.4908C55.4884 32.9838 51.4954 33.2154 47.5001 33.1841C43.5048 33.2154 39.5118 32.9838 35.547 32.4908C34.2876 32.338 33.0436 32.0786 31.8282 31.7152C31.5117 31.617 31.205 31.4898 30.9118 31.3353L32.8907 49.5625C32.9828 49.2491 33.0855 48.9356 33.1988 48.6222C33.4284 47.9815 33.6945 47.3545 33.9957 46.7442C34.2935 46.1465 34.627 45.5673 34.9945 45.0097C35.3411 44.4822 35.7246 43.9798 36.142 43.5063C36.5201 43.074 36.9381 42.6782 37.3904 42.3242C37.7871 42.0127 38.2218 41.753 38.684 41.5513C39.0927 41.3759 39.5328 41.2856 39.9776 41.2856C40.4817 41.2887 40.9755 41.4282 41.4067 41.6894C41.9304 42.0216 42.3718 42.4684 42.6976 42.9963C42.7847 43.1184 42.8445 43.2579 42.8729 43.4053C42.8968 43.5341 42.9092 43.6648 42.9101 43.7958C42.9238 44.0407 42.8504 44.2825 42.7029 44.4784C42.6459 44.5552 42.5718 44.6177 42.4865 44.661C42.4013 44.7043 42.3071 44.7273 42.2115 44.7281C42.116 44.7235 42.0229 44.6971 41.9391 44.6511C41.8554 44.6051 41.7832 44.5406 41.7281 44.4625C41.5385 44.2168 41.3714 43.9545 41.2287 43.6789C41.0932 43.415 40.8976 43.1866 40.6576 43.0122C40.4577 42.8767 40.2217 42.8045 39.9802 42.805C39.5359 42.8287 39.1107 42.9934 38.7663 43.2752C38.2895 43.6338 37.8602 44.0515 37.4887 44.5183C37.0382 45.0752 36.6323 45.6667 36.2748 46.2873C35.8913 46.9447 35.5489 47.6251 35.2495 48.3247C34.9621 48.9913 34.725 49.6786 34.5402 50.3806C34.3754 50.9735 34.2862 51.5849 34.2746 52.2002C34.2753 52.3849 34.2877 52.5695 34.3118 52.7527C34.3328 52.9302 34.3794 53.1037 34.4499 53.268C34.5086 53.4131 34.5994 53.5429 34.7156 53.6478C34.8394 53.7496 34.9963 53.8025 35.1565 53.7966C35.397 53.7854 35.6312 53.7161 35.8391 53.5947C36.1208 53.4429 36.3876 53.265 36.636 53.0634C36.9241 52.8319 37.199 52.5845 37.4595 52.3223C37.7357 52.0479 37.9925 51.769 38.2298 51.4856C38.4671 51.2023 38.6778 50.9314 38.862 50.6728C39.0185 50.4589 39.1571 50.2323 39.2763 49.9955L40.0307 47.7377C40.0934 47.5275 40.2196 47.342 40.392 47.2064C40.5254 47.1086 40.686 47.0547 40.8515 47.0523C40.9283 47.0524 41.0045 47.065 41.0773 47.0895C41.156 47.1156 41.2278 47.1589 41.2876 47.2164C41.3473 47.2738 41.3935 47.3439 41.4226 47.4216C41.4598 47.5181 41.4778 47.6209 41.4757 47.7244C41.477 48.015 41.4494 48.3051 41.3934 48.5903C41.3403 48.8598 41.2711 49.1259 41.1862 49.3872C41.103 49.644 41.01 49.9016 40.9073 50.1602C40.8046 50.4187 40.7045 50.6896 40.6071 50.973C40.5593 51.0703 40.5202 51.1716 40.4902 51.2758C40.4336 51.4529 40.3645 51.6662 40.2831 51.9159C40.2016 52.1656 40.1131 52.4525 40.0174 52.7766L39.7252 53.7461C39.6243 54.0755 39.5287 54.3986 39.4384 54.7156C39.3481 55.0326 39.2657 55.3195 39.1913 55.5762L39.0081 56.2191C38.9602 56.3917 38.9284 56.4847 38.9177 56.5272C38.8848 56.6442 38.8412 56.758 38.7876 56.8672C38.7287 56.992 38.6584 57.1112 38.5777 57.2231C38.5026 57.3241 38.4131 57.4136 38.3121 57.4888C38.2272 57.5582 38.1216 57.5975 38.012 57.6003C37.9395 57.6064 37.8668 57.5937 37.8007 57.5635C37.7346 57.5332 37.6775 57.4865 37.6348 57.4277C37.539 57.2306 37.4986 57.0111 37.5179 56.7928V56.6573C37.5154 56.6096 37.5154 56.5617 37.5179 56.5139C37.5523 56.3176 37.6039 56.1248 37.672 55.9375C37.7481 55.6559 37.8366 55.3372 37.9376 54.9813C38.0385 54.6253 38.1519 54.257 38.2776 53.8763C38.3998 53.4955 38.5096 53.1546 38.607 52.8536C38.3201 53.1741 38.0093 53.4929 37.6746 53.8098C37.3505 54.1175 37.0061 54.4033 36.644 54.6652C36.3115 54.9067 35.9556 55.114 35.5815 55.2841C35.2588 55.4359 34.9075 55.5174 34.5509 55.5231C34.2082 55.5324 33.8696 55.4459 33.5734 55.2734C33.5229 55.2442 33.4777 55.2097 33.4326 55.1752L34.5349 66.7352C34.8218 67.455 40.2246 69.2214 47.3513 69.2214C54.4781 69.2214 59.8862 67.4523 60.1677 66.7325L61.7615 52.9891L61.3816 53.3397C60.9718 53.7242 60.5427 54.0877 60.096 54.4288C59.7323 54.7102 59.3364 54.9474 58.9167 55.1353C58.5275 55.3029 58.1078 55.3879 57.6841 55.385C57.3453 55.4075 57.009 55.3138 56.7306 55.1194C56.6201 55.0316 56.532 54.9189 56.4734 54.7906C56.4147 54.6623 56.3873 54.5219 56.3932 54.3809V54.3092C56.3909 54.2818 56.3909 54.2543 56.3932 54.2269C56.4309 53.9906 56.5168 53.7645 56.6456 53.5628C56.8064 53.2927 56.9838 53.0328 57.1768 52.7845C57.3822 52.5154 57.6009 52.2427 57.8329 51.9664C58.0649 51.6902 58.28 51.429 58.4784 51.1828C58.6545 50.9663 58.8186 50.7401 58.9698 50.5055C59.0779 50.3593 59.1448 50.1869 59.1637 50.0061C59.165 49.9713 59.1583 49.9366 59.144 49.9048C59.1297 49.873 59.1083 49.8449 59.0813 49.8228C59.0025 49.772 58.9092 49.7486 58.8157 49.7564C58.5827 49.7602 58.3537 49.8175 58.1463 49.9237C57.901 50.0456 57.6718 50.1972 57.4637 50.3753C57.2291 50.5747 57.0098 50.7913 56.8076 51.0234C56.5948 51.2664 56.3944 51.5199 56.2073 51.7831C56.0213 52.0452 55.8513 52.3108 55.6973 52.58C55.5432 52.8492 55.4122 53.0944 55.3041 53.3158L55.166 53.6133C55.1058 53.7408 55.0412 53.8851 54.9721 54.0462C54.9031 54.2074 54.8287 54.3721 54.749 54.5403C54.6711 54.7174 54.5994 54.8777 54.5338 55.0211L54.3585 55.4248C54.3072 55.5435 54.2709 55.6249 54.2496 55.6692C54.2284 55.7135 54.1841 55.8224 54.1168 55.9959C54.0548 56.1553 53.9831 56.343 53.9016 56.5591L53.636 57.2364L53.3837 57.9084L53.1765 58.4663C53.1181 58.6256 53.0782 58.7319 53.0623 58.793C53.01 58.9541 52.946 59.1112 52.871 59.2631C52.8029 59.4029 52.7182 59.534 52.6187 59.6536C52.5278 59.7612 52.418 59.8513 52.2946 59.9192C52.1692 59.9875 52.0283 60.0223 51.8856 60.0202C51.7137 60.0275 51.5441 59.979 51.4021 59.882C51.3309 59.8146 51.2765 59.7314 51.2433 59.6392C51.2101 59.5469 51.199 59.4481 51.2109 59.3508C51.2112 59.2183 51.2273 59.0863 51.2587 58.9577C51.2915 58.8225 51.3323 58.6895 51.3809 58.5592C51.4287 58.4264 51.4791 58.2936 51.5323 58.1741C51.5854 58.0545 51.6306 57.9297 51.6731 57.8128C51.9652 57.1718 52.2627 56.5298 52.5656 55.887C52.8684 55.2442 53.1588 54.6067 53.4368 53.9745C53.4952 53.8417 53.5484 53.7089 53.6042 53.5841L53.5537 53.6345C53.2192 53.9564 52.8643 54.2563 52.4912 54.5323C52.1684 54.7757 51.8202 54.9832 51.4526 55.1512C51.1389 55.2982 50.7976 55.377 50.4512 55.3823C50.2606 55.3883 50.071 55.352 49.896 55.2761C49.7553 55.2117 49.6329 55.1131 49.5401 54.9892C49.447 54.8597 49.3819 54.7123 49.3488 54.5563C49.3488 54.5005 49.3276 54.4394 49.3196 54.3809C49.224 54.4553 49.1284 54.527 49.0327 54.5961C48.722 54.8185 48.3902 55.0098 48.042 55.1672C47.7679 55.299 47.4694 55.3723 47.1654 55.3823C47.0472 55.3857 46.9296 55.3638 46.8205 55.318C46.7115 55.2722 46.6135 55.2035 46.5332 55.1167C46.3462 54.8618 46.2601 54.5468 46.2915 54.2322C46.298 53.8859 46.3416 53.5412 46.4216 53.2042C46.2673 53.4726 46.0895 53.7268 45.8904 53.9639C45.6758 54.2233 45.4335 54.4584 45.1679 54.6652C44.8915 54.8792 44.5855 55.0518 44.2595 55.1778C43.9102 55.3114 43.539 55.3781 43.1651 55.3744C42.9911 55.3752 42.8178 55.3529 42.6498 55.308C42.4896 55.2651 42.3415 55.1861 42.2168 55.0769C42.0841 54.956 41.9814 54.806 41.9166 54.6386C41.8342 54.4189 41.7954 54.1852 41.8024 53.9506C41.8024 53.9506 41.8024 53.847 41.8343 53.6584C41.8815 53.3563 41.9507 53.058 42.0415 52.7659C42.1584 52.3586 42.3355 51.8274 42.5727 51.1722C42.81 50.517 43.1536 49.7325 43.6034 48.8188C43.6864 48.6107 43.8218 48.4277 43.9965 48.2875C44.1366 48.1843 44.3059 48.1285 44.4799 48.1281C44.5599 48.129 44.6394 48.1406 44.7163 48.1627C44.7979 48.1851 44.8751 48.221 44.9448 48.2689C45.0143 48.3167 45.0723 48.3793 45.1148 48.4522C45.1604 48.533 45.1825 48.6251 45.1785 48.7178C45.1791 48.7797 45.1711 48.8414 45.1546 48.9011C45.1114 49.0494 45.0527 49.1928 44.9793 49.3288C44.8908 49.5058 44.7863 49.7077 44.6659 49.9344C44.5455 50.161 44.4197 50.4063 44.2887 50.6702C44.1559 50.9322 44.0328 51.2041 43.9195 51.4856C43.8061 51.7668 43.7086 52.0542 43.6273 52.3463C43.5485 52.6233 43.5021 52.9085 43.4891 53.1962C43.4884 53.307 43.5168 53.416 43.5715 53.5123C43.5978 53.5588 43.6367 53.5969 43.6837 53.6222C43.7307 53.6476 43.7838 53.6592 43.8371 53.6558C44.2011 53.6518 44.5541 53.5307 44.8438 53.3105C45.1771 53.0659 45.4747 52.7762 45.7284 52.4498C46.002 52.1018 46.2471 51.7322 46.4615 51.3448C46.6811 50.9517 46.8635 50.5914 47.0087 50.2637C47.1131 50.0363 47.2019 49.802 47.2743 49.5625C47.3506 49.3278 47.4392 49.0972 47.5399 48.8719C47.6188 48.6803 47.7253 48.5014 47.856 48.3406C47.9092 48.2734 47.9771 48.2194 48.0545 48.1825C48.1318 48.1457 48.2166 48.1271 48.3023 48.1281C48.3914 48.1248 48.48 48.1432 48.5605 48.1816C48.6409 48.22 48.7109 48.2773 48.7645 48.3486C48.88 48.5011 48.94 48.6886 48.9345 48.8798C48.9243 49.0432 48.8875 49.2038 48.8256 49.3553C48.753 49.5572 48.6644 49.7874 48.5599 50.0459C48.4555 50.3045 48.335 50.5816 48.1987 50.8773C48.0694 51.1731 47.949 51.4723 47.8374 51.7752C47.7334 52.0678 47.6447 52.3657 47.5718 52.6677C47.5023 52.9331 47.4657 53.2061 47.4629 53.4805C47.457 53.5282 47.4622 53.5766 47.4782 53.6219C47.4942 53.6672 47.5204 53.7082 47.5549 53.7417C47.5894 53.7752 47.6312 53.8002 47.677 53.8148C47.7228 53.8294 47.7713 53.8331 47.8188 53.8258C48.0367 53.8126 48.2494 53.7538 48.4431 53.6531C48.721 53.5199 48.9838 53.3569 49.2266 53.167C49.2957 53.1139 49.3648 53.0608 49.4312 53.005C49.4999 52.7098 49.5886 52.4196 49.6968 52.1364C49.8863 51.637 50.0784 51.1403 50.2732 50.6463L50.8045 49.2916L53.2615 43.0945C53.3312 42.8794 53.4692 42.6928 53.6546 42.5633C53.8032 42.4658 53.9763 42.4124 54.154 42.4092C54.3204 42.409 54.4818 42.4662 54.6109 42.5712C54.6846 42.6374 54.7418 42.7199 54.7778 42.8122C54.8137 42.9045 54.8275 43.0039 54.8181 43.1025C54.8161 43.2269 54.7928 43.35 54.749 43.4664C54.6976 43.6074 54.6391 43.7457 54.5737 43.8808C54.4391 44.1818 54.278 44.5502 54.0902 44.9858C53.9025 45.4214 53.7024 45.8951 53.4899 46.4069C53.2757 46.9186 53.057 47.4499 52.8338 48.0006L52.1777 49.6183C51.9652 50.1495 51.7651 50.6471 51.5774 51.1111L51.094 52.3356C51.0269 52.5043 50.9684 52.6763 50.9187 52.8509C50.8652 53.0231 50.8366 53.202 50.8337 53.3822C50.8297 53.462 50.8462 53.5416 50.8815 53.6133C50.9012 53.6438 50.929 53.6683 50.9619 53.6838C50.9948 53.6993 51.0313 53.7052 51.0674 53.7009C51.2159 53.6913 51.3607 53.6506 51.4924 53.5814C51.6841 53.4897 51.8687 53.384 52.0449 53.2653C52.2433 53.1343 52.4487 52.9838 52.6612 52.8138C52.8737 52.6438 53.0862 52.4667 53.2987 52.2825C53.5094 52.1054 53.7113 51.923 53.9043 51.7353C54.0973 51.5476 54.2691 51.3794 54.4196 51.2306C54.4551 51.1948 54.4976 51.1668 54.5445 51.1483C54.6348 50.8827 54.7198 50.617 54.7915 50.3514C54.834 50.2363 54.8933 50.0725 54.9695 49.86C55.0475 49.6476 55.1361 49.4393 55.2351 49.2358C55.3237 49.0464 55.4343 48.8681 55.5645 48.7045C55.6108 48.6429 55.6704 48.5924 55.739 48.557C55.8075 48.5216 55.8831 48.5021 55.9602 48.5C56.0446 48.4923 56.1296 48.5015 56.2103 48.5271C56.291 48.5526 56.3658 48.594 56.4304 48.6487C56.4825 48.7085 56.5222 48.778 56.5473 48.8533C56.5724 48.9285 56.5823 49.008 56.5765 49.087C56.5747 49.1484 56.5694 49.2096 56.5606 49.2703C56.5606 49.3527 56.5366 49.443 56.5207 49.5359C56.5048 49.6289 56.4862 49.7166 56.4676 49.8016C56.4547 49.864 56.437 49.9252 56.4145 49.9848C56.6146 49.767 56.8306 49.551 57.0626 49.3367C57.2896 49.1263 57.5311 48.9319 57.7851 48.755C58.0238 48.588 58.2793 48.4464 58.5474 48.3327C58.7934 48.2273 59.0581 48.1722 59.3257 48.1706C59.5056 48.1708 59.6845 48.1968 59.857 48.2477C60.0255 48.2954 60.1845 48.3718 60.3271 48.4734C60.4652 48.5725 60.5803 48.7003 60.6645 48.848C60.7549 49.0101 60.7999 49.1936 60.7946 49.3792C60.7882 49.6708 60.7203 49.9577 60.5954 50.2213C60.4545 50.5341 60.2875 50.8344 60.096 51.1191C59.8959 51.4201 59.6799 51.7132 59.4479 51.9983C59.2159 52.2834 58.9981 52.5428 58.7945 52.7766L58.2818 53.3716C58.1863 53.4649 58.1128 53.5783 58.0667 53.7036C58.0655 53.7738 58.0923 53.8416 58.141 53.8922C58.2101 53.9469 58.2977 53.9726 58.3854 53.9639C58.5311 53.9452 58.6703 53.8924 58.7918 53.8098C59.053 53.6496 59.3032 53.4721 59.5409 53.2786C59.8632 53.0254 60.2713 52.6863 60.7654 52.2613C61.1054 51.9691 61.5012 51.6211 61.9501 51.2253L64.0963 31.3566C63.8032 31.5111 63.4965 31.6383 63.1799 31.7364C61.9613 32.0931 60.7146 32.3455 59.4532 32.4908ZM47.5001 27.7812C38.2245 27.7812 30.7073 28.8172 30.7073 30.0975C30.7073 31.3778 38.2032 32.4084 47.5001 32.4084C56.797 32.4084 64.2929 31.3725 64.2929 30.0922C64.2929 28.8119 56.7651 27.7812 47.5001 27.7812ZM54.2045 30.7748C54.2045 31.075 53.312 31.3061 52.2096 31.3061C51.1073 31.3061 50.2148 31.0617 50.2148 30.7748C50.2148 30.488 51.1073 30.2436 52.2096 30.2436C53.312 30.2436 54.1965 30.4694 54.1965 30.7695L54.2045 30.7748Z" fill="#EA6365"/>
<path d="M50.6077 30.5278C50.598 30.5419 50.5925 30.5585 50.5918 30.5756C50.5918 30.7695 51.3116 30.9262 52.1855 30.9262C53.0595 30.9262 53.7793 30.7695 53.7793 30.5756L55.8777 22.0756L64.2237 13.2648C64.399 13.0656 64.043 12.4467 63.448 11.9155C62.853 11.3842 62.2102 11.2062 62.011 11.4081L53.1365 20.7661L50.6077 30.5278Z" fill="#EA6365"/>
</svg>
