<svg width="96" height="96" viewBox="0 0 96 96" fill="none" xmlns="http://www.w3.org/2000/svg">
<g filter="url(#filter0_i_586_974)">
<rect width="96" height="96" rx="8" fill="url(#paint0_linear_586_974)"/>
</g>
<path d="M48.346 69.0023C45.2012 69.0158 42.0655 68.6655 39.0013 67.9584C38.0904 67.753 37.197 67.4768 36.3291 67.1323L38.4886 70.8219L39.3333 82.35C39.3333 83.6436 43.4399 84.6902 48.5027 84.6902C53.5655 84.6902 57.6721 83.6436 57.6721 82.35L58.3414 70.697L60.3841 67.1217C59.509 67.4717 58.6075 67.7515 57.688 67.9584C54.6246 68.6653 51.4898 69.0156 48.346 69.0023ZM60.4531 31.4908C56.4883 31.9838 52.4953 32.2154 48.5 32.1841C44.5048 32.2154 40.5118 31.9838 36.5469 31.4908C35.2876 31.338 34.0435 31.0786 32.8282 30.7152C32.5117 30.617 32.2049 30.4898 31.9117 30.3353L33.8907 48.5625C33.9827 48.2491 34.0854 47.9356 34.1988 47.6222C34.4283 46.9815 34.6944 46.3545 34.9957 45.7442C35.2935 45.1465 35.627 44.5673 35.9944 44.0097C36.341 43.4822 36.7245 42.9798 37.1419 42.5063C37.5201 42.074 37.9381 41.6782 38.3903 41.3242C38.787 41.0127 39.2217 40.753 39.6839 40.5513C40.0927 40.3759 40.5328 40.2856 40.9775 40.2856C41.4816 40.2887 41.9754 40.4282 42.4066 40.6894C42.9304 41.0216 43.3718 41.4684 43.6975 41.9963C43.7847 42.1184 43.8445 42.2579 43.8728 42.4053C43.8967 42.5341 43.9091 42.6648 43.91 42.7958C43.9237 43.0407 43.8503 43.2825 43.7028 43.4784C43.6458 43.5552 43.5717 43.6177 43.4865 43.661C43.4012 43.7043 43.3071 43.7273 43.2114 43.7281C43.116 43.7235 43.0228 43.6971 42.9391 43.6511C42.8553 43.6051 42.7831 43.5406 42.728 43.4625C42.5384 43.2168 42.3713 42.9545 42.2286 42.6789C42.0932 42.415 41.8975 42.1866 41.6575 42.0122C41.4576 41.8767 41.2216 41.8045 40.9802 41.805C40.5359 41.8287 40.1107 41.9934 39.7663 42.2752C39.2895 42.6338 38.8601 43.0515 38.4886 43.5183C38.0381 44.0752 37.6322 44.6667 37.2747 45.2873C36.8913 45.9447 36.5488 46.6251 36.2494 47.3247C35.962 47.9913 35.725 48.6786 35.5402 49.3806C35.3754 49.9735 35.2861 50.5849 35.2746 51.2002C35.2752 51.3849 35.2876 51.5695 35.3117 51.7527C35.3328 51.9302 35.3793 52.1037 35.4499 52.268C35.5085 52.4131 35.5993 52.5429 35.7155 52.6478C35.8394 52.7496 35.9962 52.8025 36.1564 52.7966C36.397 52.7854 36.6312 52.7161 36.8391 52.5947C37.1207 52.4429 37.3875 52.265 37.636 52.0634C37.924 51.8319 38.1989 51.5845 38.4594 51.3223C38.7357 51.0479 38.9924 50.769 39.2297 50.4856C39.467 50.2023 39.6777 49.9314 39.8619 49.6728C40.0185 49.4589 40.1571 49.2323 40.2763 48.9955L41.0307 46.7377C41.0934 46.5275 41.2196 46.342 41.3919 46.2064C41.5254 46.1086 41.686 46.0547 41.8514 46.0523C41.9282 46.0524 42.0045 46.065 42.0772 46.0895C42.1559 46.1156 42.2278 46.1589 42.2875 46.2164C42.3473 46.2738 42.3934 46.3439 42.4225 46.4216C42.4597 46.5181 42.4778 46.6209 42.4757 46.7244C42.4769 47.015 42.4493 47.3051 42.3933 47.5903C42.3402 47.8598 42.271 48.1259 42.1861 48.3872C42.1029 48.644 42.0099 48.9016 41.9072 49.1602C41.8045 49.4187 41.7045 49.6896 41.6071 49.973C41.5593 50.0703 41.5202 50.1716 41.4902 50.2758C41.4335 50.4529 41.3645 50.6662 41.283 50.9159C41.2015 51.1656 41.113 51.4525 41.0174 51.7766L40.7252 52.7461C40.6242 53.0755 40.5286 53.3986 40.4383 53.7156C40.348 54.0326 40.2656 54.3195 40.1913 54.5763L40.008 55.2191C39.9602 55.3917 39.9283 55.4847 39.9177 55.5272C39.8847 55.6442 39.8412 55.758 39.7875 55.8672C39.7286 55.992 39.6584 56.1112 39.5777 56.2231C39.5025 56.3241 39.413 56.4136 39.3121 56.4888C39.2272 56.5582 39.1216 56.5975 39.0119 56.6003C38.9395 56.6064 38.8667 56.5937 38.8006 56.5635C38.7346 56.5332 38.6774 56.4865 38.6347 56.4277C38.5389 56.2306 38.4985 56.0111 38.5178 55.7928V55.6573C38.5153 55.6096 38.5153 55.5617 38.5178 55.5139C38.5522 55.3176 38.6038 55.1248 38.6719 54.9375C38.748 54.6559 38.8366 54.3372 38.9375 53.9813C39.0385 53.6253 39.1518 53.257 39.2775 52.8763C39.3997 52.4955 39.5095 52.1546 39.6069 51.8536C39.32 52.1741 39.0092 52.4929 38.6746 52.8098C38.3504 53.1175 38.0061 53.4033 37.6439 53.6652C37.3115 53.9067 36.9555 54.114 36.5814 54.2841C36.2587 54.4359 35.9074 54.5174 35.5508 54.5231C35.2081 54.5324 34.8696 54.4459 34.5733 54.2734C34.5228 54.2442 34.4777 54.2097 34.4325 54.1752L35.5349 65.7352C35.8217 66.455 41.2246 68.2214 48.3513 68.2214C55.478 68.2214 60.8861 66.4523 61.1677 65.7325L62.7614 51.9891L62.3816 52.3397C61.9717 52.7242 61.5427 53.0877 61.096 53.4288C60.7322 53.7102 60.3363 53.9474 59.9166 54.1353C59.5274 54.3029 59.1078 54.3879 58.6841 54.385C58.3453 54.4075 58.0089 54.3138 57.7305 54.1194C57.6201 54.0316 57.5319 53.9189 57.4733 53.7906C57.4147 53.6623 57.3872 53.5219 57.3932 53.3809V53.3092C57.3908 53.2818 57.3908 53.2543 57.3932 53.2269C57.4308 52.9906 57.5167 52.7645 57.6455 52.5628C57.8064 52.2927 57.9838 52.0327 58.1767 51.7845C58.3822 51.5154 58.6009 51.2427 58.8328 50.9664C59.0648 50.6902 59.28 50.429 59.4783 50.1828C59.6545 49.9663 59.8185 49.7401 59.9697 49.5055C60.0778 49.3593 60.1448 49.1869 60.1636 49.0061C60.165 48.9713 60.1582 48.9366 60.144 48.9048C60.1297 48.873 60.1082 48.8449 60.0813 48.8228C60.0025 48.772 59.9091 48.7486 59.8157 48.7564C59.5827 48.7602 59.3536 48.8175 59.1463 48.9237C58.901 49.0456 58.6717 49.1972 58.4636 49.3753C58.2291 49.5747 58.0098 49.7913 57.8075 50.0234C57.5947 50.2664 57.3944 50.5199 57.2072 50.7831C57.0213 51.0452 56.8513 51.3108 56.6972 51.58C56.5432 51.8492 56.4121 52.0944 56.3041 52.3158L56.166 52.6133C56.1058 52.7408 56.0411 52.8851 55.9721 53.0462C55.903 53.2074 55.8286 53.3721 55.7489 53.5403C55.671 53.7174 55.5993 53.8777 55.5338 54.0211L55.3585 54.4248C55.3071 54.5435 55.2708 54.6249 55.2496 54.6692C55.2283 54.7135 55.184 54.8224 55.1167 54.9959C55.0548 55.1553 54.983 55.343 54.9016 55.5591L54.636 56.2364L54.3836 56.9084L54.1764 57.4663C54.118 57.6256 54.0781 57.7319 54.0622 57.793C54.0099 57.9541 53.946 58.1112 53.871 58.2631C53.8028 58.4029 53.7181 58.534 53.6186 58.6536C53.5278 58.7612 53.4179 58.8513 53.2946 58.9192C53.1692 58.9875 53.0283 59.0223 52.8855 59.0202C52.7137 59.0275 52.5441 58.979 52.4021 58.882C52.3308 58.8146 52.2765 58.7314 52.2432 58.6392C52.21 58.5469 52.1989 58.4481 52.2108 58.3508C52.2112 58.2183 52.2272 58.0863 52.2586 57.9577C52.2914 57.8225 52.3322 57.6895 52.3808 57.5592C52.4286 57.4264 52.4791 57.2936 52.5322 57.1741C52.5853 57.0545 52.6305 56.9297 52.673 56.8128C52.9652 56.1718 53.2627 55.5298 53.5655 54.887C53.8683 54.2442 54.1587 53.6067 54.4367 52.9745C54.4952 52.8417 54.5483 52.7089 54.6041 52.5841L54.5536 52.6345C54.2192 52.9564 53.8643 53.2563 53.4911 53.5323C53.1684 53.7757 52.8201 53.9832 52.4525 54.1512C52.1388 54.2982 51.7975 54.377 51.4511 54.3823C51.2605 54.3883 51.0709 54.352 50.896 54.2761C50.7552 54.2117 50.6329 54.1131 50.54 53.9892C50.4469 53.8597 50.3818 53.7123 50.3488 53.5563C50.3488 53.5005 50.3275 53.4394 50.3196 53.3809C50.2239 53.4553 50.1283 53.527 50.0327 53.5961C49.722 53.8185 49.3901 54.0098 49.0419 54.1672C48.7678 54.299 48.4693 54.3723 48.1653 54.3823C48.0471 54.3857 47.9295 54.3638 47.8205 54.318C47.7114 54.2722 47.6135 54.2035 47.5331 54.1167C47.3461 53.8618 47.26 53.5468 47.2914 53.2322C47.2979 52.8859 47.3416 52.5412 47.4216 52.2042C47.2672 52.4726 47.0895 52.7268 46.8903 52.9639C46.6757 53.2233 46.4335 53.4584 46.1678 53.6652C45.8915 53.8792 45.5855 54.0518 45.2594 54.1778C44.9102 54.3114 44.5389 54.3781 44.165 54.3744C43.9911 54.3752 43.8178 54.3529 43.6497 54.308C43.4896 54.2651 43.3414 54.1861 43.2167 54.0769C43.0841 53.956 42.9813 53.806 42.9166 53.6386C42.8341 53.4189 42.7953 53.1852 42.8024 52.9506C42.8024 52.9506 42.8024 52.847 42.8342 52.6584C42.8814 52.3563 42.9507 52.058 43.0414 51.7659C43.1583 51.3586 43.3354 50.8274 43.5727 50.1722C43.81 49.517 44.1535 48.7325 44.6033 47.8188C44.6864 47.6107 44.8218 47.4277 44.9964 47.2875C45.1365 47.1843 45.3059 47.1285 45.4799 47.1281C45.5599 47.129 45.6394 47.1406 45.7163 47.1627C45.7978 47.1851 45.875 47.221 45.9447 47.2689C46.0142 47.3167 46.0723 47.3793 46.1147 47.4522C46.1604 47.533 46.1825 47.6251 46.1785 47.7178C46.179 47.7797 46.171 47.8414 46.1546 47.9011C46.1114 48.0494 46.0526 48.1928 45.9792 48.3288C45.8907 48.5058 45.7862 48.7077 45.6658 48.9344C45.5454 49.161 45.4197 49.4063 45.2886 49.6702C45.1558 49.9322 45.0327 50.2041 44.9194 50.4856C44.8061 50.7668 44.7085 51.0542 44.6272 51.3463C44.5484 51.6233 44.5021 51.9085 44.4891 52.1962C44.4884 52.307 44.5168 52.416 44.5714 52.5123C44.5978 52.5588 44.6366 52.5969 44.6836 52.6222C44.7306 52.6476 44.7838 52.6592 44.8371 52.6558C45.201 52.6518 45.554 52.5307 45.8438 52.3105C46.177 52.0659 46.4747 51.7762 46.7283 51.4498C47.0019 51.1018 47.2471 50.7322 47.4614 50.3448C47.681 49.9517 47.8634 49.5914 48.0086 49.2638C48.1131 49.0363 48.2018 48.802 48.2742 48.5625C48.3505 48.3278 48.4392 48.0972 48.5399 47.8719C48.6188 47.6803 48.7253 47.5014 48.856 47.3406C48.9092 47.2734 48.977 47.2194 49.0544 47.1825C49.1318 47.1457 49.2165 47.1271 49.3022 47.1281C49.3913 47.1248 49.4799 47.1432 49.5604 47.1816C49.6409 47.22 49.7109 47.2773 49.7644 47.3486C49.88 47.5011 49.94 47.6886 49.9344 47.8798C49.9242 48.0432 49.8874 48.2038 49.8255 48.3553C49.7529 48.5572 49.6643 48.7874 49.5599 49.0459C49.4554 49.3045 49.335 49.5816 49.1986 49.8773C49.0693 50.1731 48.9489 50.4723 48.8374 50.7752C48.7333 51.0678 48.6447 51.3657 48.5717 51.6677C48.5023 51.9331 48.4657 52.2061 48.4628 52.4805C48.4569 52.5282 48.4622 52.5766 48.4781 52.6219C48.4941 52.6672 48.5204 52.7082 48.5549 52.7417C48.5894 52.7752 48.6311 52.8002 48.6769 52.8148C48.7227 52.8294 48.7713 52.8331 48.8188 52.8258C49.0367 52.8126 49.2493 52.7538 49.443 52.6531C49.721 52.5199 49.9837 52.3569 50.2266 52.167C50.2957 52.1139 50.3647 52.0608 50.4311 52.005C50.4998 51.7098 50.5886 51.4196 50.6967 51.1364C50.8862 50.637 51.0784 50.1403 51.2732 49.6463L51.8044 48.2916L54.2614 42.0945C54.3311 41.8794 54.4692 41.6928 54.6546 41.5633C54.8031 41.4658 54.9763 41.4124 55.1539 41.4092C55.3203 41.409 55.4817 41.4662 55.6108 41.5712C55.6845 41.6374 55.7417 41.7199 55.7777 41.8122C55.8137 41.9045 55.8275 42.0039 55.818 42.1025C55.8161 42.2269 55.7927 42.35 55.7489 42.4664C55.6976 42.6074 55.6391 42.7457 55.5736 42.8808C55.439 43.1818 55.2779 43.5502 55.0902 43.9858C54.9025 44.4214 54.7024 44.8951 54.4899 45.4069C54.2756 45.9186 54.0569 46.4499 53.8338 47.0006L53.1777 48.6183C52.9652 49.1495 52.7651 49.6471 52.5774 50.1111L52.0939 51.3356C52.0269 51.5043 51.9684 51.6763 51.9186 51.8509C51.8652 52.0231 51.8365 52.202 51.8336 52.3822C51.8296 52.462 51.8461 52.5416 51.8814 52.6133C51.9011 52.6438 51.929 52.6683 51.9618 52.6838C51.9947 52.6993 52.0313 52.7052 52.0674 52.7009C52.2158 52.6913 52.3606 52.6506 52.4924 52.5814C52.684 52.4897 52.8687 52.384 53.0449 52.2653C53.2432 52.1343 53.4486 51.9838 53.6611 51.8138C53.8736 51.6438 54.0861 51.4667 54.2986 51.2825C54.5093 51.1054 54.7112 50.923 54.9042 50.7353C55.0973 50.5476 55.269 50.3794 55.4196 50.2306C55.455 50.1948 55.4975 50.1668 55.5444 50.1483C55.6347 49.8827 55.7197 49.617 55.7914 49.3514C55.8339 49.2363 55.8933 49.0725 55.9694 48.86C56.0474 48.6476 56.1361 48.4393 56.235 48.2358C56.3237 48.0464 56.4342 47.8681 56.5644 47.7045C56.6107 47.6429 56.6704 47.5924 56.7389 47.557C56.8074 47.5216 56.8831 47.5021 56.9602 47.5C57.0445 47.4923 57.1295 47.5015 57.2102 47.5271C57.291 47.5526 57.3658 47.594 57.4303 47.6488C57.4824 47.7085 57.5222 47.778 57.5472 47.8533C57.5723 47.9285 57.5822 48.008 57.5764 48.087C57.5747 48.1484 57.5693 48.2096 57.5605 48.2703C57.5605 48.3527 57.5366 48.443 57.5207 48.5359C57.5047 48.6289 57.4861 48.7166 57.4675 48.8016C57.4547 48.864 57.4369 48.9252 57.4144 48.9848C57.6145 48.767 57.8305 48.551 58.0625 48.3367C58.2896 48.1263 58.531 47.9319 58.785 47.755C59.0237 47.588 59.2792 47.4464 59.5474 47.3327C59.7934 47.2273 60.058 47.1722 60.3256 47.1706C60.5055 47.1708 60.6844 47.1968 60.8569 47.2477C61.0254 47.2954 61.1844 47.3718 61.3271 47.4734C61.4652 47.5725 61.5803 47.7003 61.6644 47.848C61.7548 48.0101 61.7998 48.1936 61.7946 48.3792C61.7882 48.6708 61.7203 48.9577 61.5953 49.2213C61.4545 49.5341 61.2874 49.8344 61.096 50.1191C60.8959 50.4201 60.6798 50.7132 60.4478 50.9983C60.2159 51.2834 59.998 51.5428 59.7944 51.7766L59.2817 52.3716C59.1862 52.4649 59.1127 52.5783 59.0666 52.7036C59.0655 52.7738 59.0922 52.8416 59.141 52.8922C59.2101 52.9469 59.2977 52.9726 59.3853 52.9639C59.531 52.9452 59.6703 52.8924 59.7917 52.8098C60.0529 52.6496 60.3032 52.4721 60.5408 52.2786C60.8631 52.0254 61.2713 51.6863 61.7653 51.2613C62.1053 50.9691 62.5011 50.6211 62.95 50.2253L65.0963 30.3566C64.8032 30.5111 64.4964 30.6383 64.1799 30.7364C62.9613 31.0931 61.7145 31.3455 60.4531 31.4908ZM48.5 26.7812C39.2244 26.7812 31.7072 27.8172 31.7072 29.0975C31.7072 30.3778 39.2032 31.4084 48.5 31.4084C57.7969 31.4084 65.2928 30.3725 65.2928 29.0922C65.2928 27.8119 57.765 26.7812 48.5 26.7812ZM55.2044 29.7748C55.2044 30.075 54.3119 30.3061 53.2096 30.3061C52.1072 30.3061 51.2147 30.0617 51.2147 29.7748C51.2147 29.488 52.1072 29.2436 53.2096 29.2436C54.3119 29.2436 55.1964 29.4694 55.1964 29.7695L55.2044 29.7748Z" fill="#EA6365"/>
<path d="M42.0159 29.5278C42.0062 29.5419 42.0007 29.5585 42 29.5756C42 29.7695 42.7198 29.9263 43.5938 29.9263C44.4677 29.9263 45.1875 29.7695 45.1875 29.5756L47.2859 21.0756L55.6319 12.2648C55.8072 12.0656 55.4513 11.4467 54.8563 10.9155C54.2613 10.3842 53.6184 10.2063 53.4192 10.4081L44.5447 19.7661L42.0159 29.5278Z" fill="#EA6365"/>
<defs>
<filter id="filter0_i_586_974" x="-4" y="-4" width="100" height="100" filterUnits="userSpaceOnUse" color-interpolation-filters="sRGB">
<feFlood flood-opacity="0" result="BackgroundImageFix"/>
<feBlend mode="normal" in="SourceGraphic" in2="BackgroundImageFix" result="shape"/>
<feColorMatrix in="SourceAlpha" type="matrix" values="0 0 0 0 0 0 0 0 0 0 0 0 0 0 0 0 0 0 127 0" result="hardAlpha"/>
<feOffset dx="-4" dy="-4"/>
<feGaussianBlur stdDeviation="2"/>
<feComposite in2="hardAlpha" operator="arithmetic" k2="-1" k3="1"/>
<feColorMatrix type="matrix" values="0 0 0 0 0 0 0 0 0 0 0 0 0 0 0 0 0 0 0.25 0"/>
<feBlend mode="normal" in2="shape" result="effect1_innerShadow_586_974"/>
</filter>
<linearGradient id="paint0_linear_586_974" x1="4.5" y1="2.28407e-06" x2="96" y2="96" gradientUnits="userSpaceOnUse">
<stop offset="0.204511" stop-color="#3D3D3E"/>
<stop offset="1" stop-color="#6A6A71"/>
</linearGradient>
</defs>
</svg>
