<svg width="96" height="96" viewBox="0 0 96 96" fill="none" xmlns="http://www.w3.org/2000/svg">
<g filter="url(#filter0_i_586_962)">
<rect width="96" height="96" rx="8" fill="url(#paint0_linear_586_962)"/>
</g>
<path d="M18 14L21.2287 50.2224H62.745L61.3519 65.7586L47.9846 69.3729L34.6425 65.7639L33.7504 55.7881H21.7271L23.4464 75.0185L47.9816 81.833L72.5479 75.0185L75.8415 38.2456H32.184L31.0879 25.9793H76.8904H76.9271L78 14H18Z" fill="#E14E1D"/>
<path d="M48 14H18L21.2287 50.2224H48V38.2456H32.184L31.0879 25.9793H48V14Z" fill="white" fill-opacity="0.2"/>
<path d="M48 69.3676L47.9846 69.3729L34.6425 65.7639L33.7505 55.7881H21.7271L23.4464 75.0185L47.9816 81.833L48 81.8277V69.3676Z" fill="white" fill-opacity="0.2"/>
<defs>
<filter id="filter0_i_586_962" x="-4" y="-4" width="100" height="100" filterUnits="userSpaceOnUse" color-interpolation-filters="sRGB">
<feFlood flood-opacity="0" result="BackgroundImageFix"/>
<feBlend mode="normal" in="SourceGraphic" in2="BackgroundImageFix" result="shape"/>
<feColorMatrix in="SourceAlpha" type="matrix" values="0 0 0 0 0 0 0 0 0 0 0 0 0 0 0 0 0 0 127 0" result="hardAlpha"/>
<feOffset dx="-4" dy="-4"/>
<feGaussianBlur stdDeviation="2"/>
<feComposite in2="hardAlpha" operator="arithmetic" k2="-1" k3="1"/>
<feColorMatrix type="matrix" values="0 0 0 0 0 0 0 0 0 0 0 0 0 0 0 0 0 0 0.25 0"/>
<feBlend mode="normal" in2="shape" result="effect1_innerShadow_586_962"/>
</filter>
<linearGradient id="paint0_linear_586_962" x1="4.5" y1="2.28407e-06" x2="96" y2="96" gradientUnits="userSpaceOnUse">
<stop offset="0.204511" stop-color="#3D3D3E"/>
<stop offset="1" stop-color="#6A6A71"/>
</linearGradient>
</defs>
</svg>
