<svg width="96" height="96" viewBox="0 0 96 96" fill="none" xmlns="http://www.w3.org/2000/svg">
<g filter="url(#filter0_i_588_1106)">
<rect width="96" height="96" rx="8" fill="url(#paint0_linear_588_1106)"/>
</g>
<path d="M34.2671 41.9419L35.268 23.3869L49.4164 22.8249L62.3713 23.3869L63.4922 35.8881H75.6469L73.9228 16.8368L73.3623 10H25.073L24.1788 18.9246L21.3337 50.798L21.0385 54.0495L62.4141 54.0538L61.0108 69.7552L47.5084 73.4004L34.0146 69.7638L33.1504 60.1076H21L22.6942 79.1162L47.4913 86L72.3227 79.1162L72.5024 77.0712L75.3475 45.1977L75.6427 41.9462L34.2671 41.9419Z" fill="#EFD928"/>
<defs>
<filter id="filter0_i_588_1106" x="-4" y="-4" width="100" height="100" filterUnits="userSpaceOnUse" color-interpolation-filters="sRGB">
<feFlood flood-opacity="0" result="BackgroundImageFix"/>
<feBlend mode="normal" in="SourceGraphic" in2="BackgroundImageFix" result="shape"/>
<feColorMatrix in="SourceAlpha" type="matrix" values="0 0 0 0 0 0 0 0 0 0 0 0 0 0 0 0 0 0 127 0" result="hardAlpha"/>
<feOffset dx="-4" dy="-4"/>
<feGaussianBlur stdDeviation="2"/>
<feComposite in2="hardAlpha" operator="arithmetic" k2="-1" k3="1"/>
<feColorMatrix type="matrix" values="0 0 0 0 0 0 0 0 0 0 0 0 0 0 0 0 0 0 0.25 0"/>
<feBlend mode="normal" in2="shape" result="effect1_innerShadow_588_1106"/>
</filter>
<linearGradient id="paint0_linear_588_1106" x1="4.5" y1="2.28407e-06" x2="96" y2="96" gradientUnits="userSpaceOnUse">
<stop offset="0.204511" stop-color="#3D3D3E"/>
<stop offset="1" stop-color="#6A6A71"/>
</linearGradient>
</defs>
</svg>
