<svg width="96" height="96" viewBox="0 0 96 96" fill="none" xmlns="http://www.w3.org/2000/svg">
<rect width="96" height="96" rx="20" fill="#3D3D3E"/>
<path d="M80.883 47.464C80.883 43.2575 77.6958 39.7176 73.4171 38.7075L83 13.0618H35.5094L45.1141 38.7884C40.9699 39.88 37.9151 43.3581 37.9151 47.4854C37.9151 50.5183 39.5874 53.2079 42.1276 54.866C41.1258 56.1604 39.9658 57.3543 38.6517 58.4863C36.1782 60.5907 33.4351 62.2078 30.4721 63.2802C27.7979 61.6418 26.6396 58.7494 27.6863 56.1599C31.7644 55.0279 34.7301 51.5694 34.7301 47.5045C34.7301 42.5099 30.2501 38.4636 24.766 38.4636C19.2612 38.4636 14.7839 42.529 14.7839 47.5253C14.7839 49.9933 15.8968 52.2574 17.6807 53.8745C17.5243 54.1589 17.369 54.4405 17.2126 54.744C15.7196 57.5364 14.0254 60.6913 13.3779 64.2312C12.0856 71.3083 14.2026 76.9931 19.306 80.2082C22.1815 82.009 25.3473 82.919 28.7571 82.919C34.6163 82.919 40.568 80.2487 46.3167 77.6592C50.4183 75.8201 54.6522 73.8972 58.8199 72.9681C60.3583 72.6241 61.9622 72.4212 63.6565 72.1992C67.087 71.7546 70.6313 71.2892 73.8185 69.6103C77.54 67.6492 80.0802 64.3718 80.8169 60.6104C81.3719 57.7174 80.8169 54.8058 79.3895 52.2574C80.3645 50.8493 80.886 49.1767 80.883 47.464ZM76.5381 47.464C76.5381 50.275 74.0192 52.5609 70.9217 52.5609C67.8242 52.5609 65.3053 50.275 65.3053 47.464C65.3053 46.5535 65.5727 45.6845 66.0403 44.9364C66.218 44.652 66.4422 44.3704 66.6637 44.127C66.8985 43.8767 67.1602 43.6532 67.4441 43.4604L67.4676 43.439C67.6448 43.3176 67.8455 43.1957 68.0462 43.0759C68.0462 43.0759 68.0681 43.0759 68.0681 43.0546C68.1572 43.0141 68.2469 42.954 68.3372 42.9135C68.3585 42.9135 68.3798 42.8922 68.4028 42.8922C68.493 42.8539 68.604 42.8134 68.7145 42.7724C68.82 42.7356 68.9241 42.6951 69.0268 42.651C69.0487 42.651 69.0716 42.6291 69.093 42.6291C69.1826 42.6105 69.2723 42.5695 69.3604 42.5504C69.3839 42.5504 69.4287 42.529 69.4501 42.529C69.5611 42.5099 69.6508 42.4886 69.7618 42.4689H69.7853L70.1189 42.4071C70.1419 42.4071 70.1845 42.4071 70.208 42.3879C70.2977 42.3879 70.3858 42.3666 70.4755 42.3666H70.5865C70.6975 42.3666 70.8107 42.3475 70.943 42.3475H71.2334C71.3209 42.3475 71.3898 42.3475 71.4773 42.3666H71.5222C71.7015 42.3885 71.8787 42.4071 72.0581 42.4481C74.5983 42.9326 76.5381 44.9965 76.5381 47.464ZM41.7257 17.1059H76.7815L68.7364 38.6457C68.4028 38.7075 68.0676 38.8076 67.7345 38.9082L59.2667 23.2347L50.7748 38.807C50.4396 38.7069 50.083 38.6451 49.7281 38.585L41.7257 17.1059ZM57.66 45.7031C57.2372 43.8016 56.167 42.1036 54.6522 40.8496L59.2667 32.3965L63.9233 41.0311C62.5414 42.2851 61.539 43.8831 61.1376 45.7031H57.66ZM46.4961 42.5093C46.6071 42.4875 46.6968 42.4689 46.8078 42.4476H46.874C46.9637 42.4284 47.0539 42.4284 47.1414 42.4065H47.2311C47.3208 42.4065 47.3869 42.3874 47.4766 42.3874H48.3462C48.4337 42.3874 48.502 42.4065 48.5682 42.4065C48.613 42.4065 48.6344 42.4065 48.6792 42.4284C48.7689 42.4476 48.8351 42.4476 48.9253 42.4689C48.9461 42.4689 48.9696 42.4689 49.0144 42.488C49.126 42.5094 49.237 42.5285 49.3262 42.5498H49.348C49.4377 42.569 49.5274 42.5881 49.6149 42.6291C49.6384 42.6291 49.6597 42.6504 49.7046 42.6504C49.7708 42.6696 49.8605 42.6909 49.9266 42.7314C49.9501 42.7314 49.9715 42.7505 49.995 42.7505C50.0825 42.7915 50.1727 42.8129 50.2624 42.8533H50.2837C50.3948 42.8916 50.4844 42.9321 50.5741 42.9944H50.596C50.6851 43.0349 50.7748 43.0945 50.8645 43.135C50.8864 43.135 50.8864 43.1569 50.9072 43.1569C50.9969 43.1951 51.0636 43.2569 51.1533 43.2974L51.1768 43.3165C51.4437 43.4986 51.6892 43.7015 51.9326 43.9044L51.9561 43.9236C52.1787 44.1456 52.4007 44.389 52.5801 44.652C53.1592 45.4614 53.4944 46.4124 53.4944 47.4438C53.4944 50.2553 50.9755 52.539 47.878 52.539C44.7805 52.539 42.2616 50.2553 42.2616 47.4438C42.2387 45.0769 44.0439 43.0754 46.4961 42.5093ZM24.5653 42.3661C27.6633 42.3661 30.1817 44.652 30.1817 47.4629C30.1817 50.2744 27.6633 52.5598 24.5653 52.5598C21.4678 52.5598 18.9489 50.2744 18.9489 47.4629C18.9489 44.652 21.4678 42.3661 24.5653 42.3661ZM76.4036 59.9027C75.9141 62.4894 74.1515 64.7562 71.567 66.1103C69.1378 67.3856 66.1513 67.7892 63.009 68.1933C61.294 68.4154 59.4887 68.6587 57.7497 69.0432C53.1144 70.0751 48.6579 72.098 44.3343 74.0378C38.8076 76.5266 33.5909 78.8722 28.7571 78.8722C26.2382 78.8722 23.9867 78.2252 21.8484 76.8706C16.9457 73.7966 17.189 68.0331 17.7704 64.8776C18.3041 61.9234 19.7976 59.1529 21.2244 56.5039C21.3119 56.3415 21.3803 56.2004 21.4678 56.0379C21.9594 56.2004 22.4719 56.3223 23.0062 56.4033C22.1601 60.6908 24.5653 65.1194 29.246 67.3047L30.0937 67.7083L31.0064 67.4047C34.9072 66.1508 38.5172 64.1087 41.7044 61.3782C43.5096 59.8404 45.048 58.1828 46.3402 56.3819C46.8526 56.4634 47.3656 56.4847 47.878 56.4847C52.5139 56.4847 56.4126 53.5918 57.5276 49.7084H61.2705C62.3855 53.6115 66.2858 56.4842 70.9217 56.4842C72.7718 56.4842 74.4873 56.0194 75.9568 55.2308C76.5381 56.7472 76.7153 58.3239 76.4036 59.9027Z" fill="#D34E74"/>
</svg>
