<svg width="96" height="96" viewBox="0 0 96 96" fill="none" xmlns="http://www.w3.org/2000/svg">
<g filter="url(#filter0_i_586_971)">
<rect width="96" height="96" rx="8" fill="url(#paint0_linear_586_971)"/>
</g>
<path d="M80.8755 47.4023C80.8755 43.1957 77.6883 39.6558 73.4095 38.6457L82.9924 13H35.5018L45.1066 38.7266C40.9623 39.8182 37.9075 43.2963 37.9075 47.4236C37.9075 50.4566 39.5798 53.1461 42.1201 54.8042C41.1182 56.0987 39.9583 57.2925 38.6441 58.4245C36.1706 60.5289 33.4275 62.146 30.4645 63.2184C27.7903 61.58 26.632 58.6876 27.6787 56.0981C31.7568 54.9661 34.7225 51.5077 34.7225 47.4427C34.7225 42.4481 30.2425 38.4018 24.7584 38.4018C19.2536 38.4018 14.7763 42.4673 14.7763 47.4635C14.7763 49.9316 15.8892 52.1956 17.6731 53.8127C17.5167 54.0971 17.3614 54.3788 17.205 54.6823C15.712 57.4746 14.0178 60.6295 13.3703 64.1695C12.078 71.2466 14.195 76.9313 19.2984 80.1464C22.1739 81.9473 25.3398 82.8573 28.7495 82.8573C34.6087 82.8573 40.5604 80.1869 46.3091 77.5974C50.4107 75.7583 54.6446 73.8355 58.8123 72.9063C60.3507 72.5624 61.9547 72.3595 63.6489 72.1374C67.0794 71.6928 70.6237 71.2274 73.8109 69.5485C77.5324 67.5874 80.0726 64.31 80.8093 60.5486C81.3644 57.6556 80.8093 54.7441 79.382 52.1956C80.3569 50.7876 80.8784 49.1149 80.8755 47.4023ZM76.5305 47.4023C76.5305 50.2132 74.0116 52.4991 70.9141 52.4991C67.8166 52.4991 65.2977 50.2132 65.2977 47.4023C65.2977 46.4917 65.5651 45.6227 66.0327 44.8746C66.2105 44.5902 66.4347 44.3086 66.6562 44.0652C66.8909 43.815 67.1527 43.5914 67.4366 43.3986L67.4601 43.3773C67.6373 43.2559 67.838 43.1339 68.0387 43.0141C68.0387 43.0141 68.0605 43.0141 68.0605 42.9928C68.1497 42.9523 68.2394 42.8922 68.3296 42.8517C68.3509 42.8517 68.3723 42.8304 68.3952 42.8304C68.4855 42.7921 68.5965 42.7516 68.7069 42.7106C68.8124 42.6738 68.9166 42.6333 69.0192 42.5892C69.0411 42.5892 69.0641 42.5673 69.0854 42.5673C69.1751 42.5488 69.2648 42.5077 69.3528 42.4886C69.3763 42.4886 69.4212 42.4673 69.4425 42.4673C69.5535 42.4481 69.6432 42.4268 69.7542 42.4071H69.7777L70.1113 42.3453C70.1343 42.3453 70.1769 42.3453 70.2005 42.3262C70.2901 42.3262 70.3782 42.3048 70.4679 42.3048H70.5789C70.6899 42.3048 70.8031 42.2857 70.9355 42.2857H71.2259C71.3134 42.2857 71.3823 42.2857 71.4698 42.3048H71.5146C71.694 42.3267 71.8712 42.3453 72.0505 42.3863C74.5908 42.8709 76.5305 44.9348 76.5305 47.4023ZM41.7181 17.0441H76.7739L68.7288 38.5839C68.3952 38.6457 68.06 38.7458 67.7269 38.8464L59.2591 23.173L50.7673 38.7452C50.432 38.6452 50.0755 38.5834 49.7205 38.5232L41.7181 17.0441ZM57.6524 45.6413C57.2297 43.7398 56.1594 42.0418 54.6446 40.7878L59.2591 32.3348L63.9158 40.9694C62.5338 42.2234 61.5314 43.8213 61.13 45.6413H57.6524ZM46.4885 42.4476C46.5995 42.4257 46.6892 42.4071 46.8002 42.3858H46.8664C46.9561 42.3666 47.0463 42.3666 47.1338 42.3448H47.2235C47.3132 42.3448 47.3794 42.3256 47.4691 42.3256H48.3386C48.4261 42.3256 48.4944 42.3448 48.5606 42.3448C48.6055 42.3448 48.6268 42.3448 48.6716 42.3666C48.7613 42.3858 48.8275 42.3858 48.9177 42.4071C48.9385 42.4071 48.962 42.4071 49.0069 42.4263C49.1184 42.4476 49.2294 42.4667 49.3186 42.4881H49.3405C49.4301 42.5072 49.5198 42.5263 49.6073 42.5673C49.6309 42.5673 49.6522 42.5887 49.697 42.5887C49.7632 42.6078 49.8529 42.6291 49.9191 42.6696C49.9426 42.6696 49.9639 42.6888 49.9874 42.6888C50.0749 42.7298 50.1651 42.7511 50.2548 42.7916H50.2762C50.3872 42.8298 50.4769 42.8703 50.5666 42.9327H50.5884C50.6776 42.9731 50.7673 43.0327 50.8569 43.0732C50.8788 43.0732 50.8788 43.0951 50.8996 43.0951C50.9893 43.1334 51.056 43.1952 51.1457 43.2356L51.1692 43.2548C51.4361 43.4369 51.6816 43.6398 51.925 43.8427L51.9485 43.8618C52.1711 44.0838 52.3931 44.3272 52.5725 44.5902C53.1516 45.3996 53.4869 46.3506 53.4869 47.382C53.4869 50.1935 50.968 52.4773 47.8705 52.4773C44.773 52.4773 42.2541 50.1935 42.2541 47.382C42.2311 45.0152 44.0363 43.0136 46.4885 42.4476ZM24.5577 42.3043C27.6558 42.3043 30.1741 44.5902 30.1741 47.4012C30.1741 50.2127 27.6558 52.4981 24.5577 52.4981C21.4602 52.4981 18.9413 50.2127 18.9413 47.4012C18.9413 44.5902 21.4602 42.3043 24.5577 42.3043ZM76.396 59.8409C75.9066 62.4277 74.144 64.6945 71.5594 66.0485C69.1302 67.3238 66.1437 67.7274 63.0014 68.1316C61.2864 68.3536 59.4812 68.597 57.7421 68.9814C53.1068 70.0134 48.6503 72.0363 44.3267 73.976C38.8 76.4649 33.5834 78.8104 28.7495 78.8104C26.2306 78.8104 23.9791 78.1634 21.8409 76.8088C16.9381 73.7349 17.1815 67.9713 17.7628 64.8159C18.2966 61.8616 19.7901 59.0912 21.2169 56.4421C21.3044 56.2797 21.3727 56.1386 21.4602 55.9762C21.9519 56.1386 22.4643 56.2606 22.9986 56.3415C22.1526 60.629 24.5577 65.0576 29.2384 67.2429L30.0861 67.6465L30.9988 67.343C34.8997 66.089 38.5096 64.047 41.6968 61.3164C43.502 59.7786 45.0404 58.121 46.3326 56.3202C46.8451 56.4016 47.358 56.423 47.8705 56.423C52.5063 56.423 56.405 53.53 57.5201 49.6466H61.2629C62.378 53.5497 66.2783 56.4224 70.9141 56.4224C72.7642 56.4224 74.4798 55.9576 75.9492 55.169C76.5305 56.6855 76.7077 58.2621 76.396 59.8409Z" fill="#D34E74"/>
<defs>
<filter id="filter0_i_586_971" x="-4" y="-4" width="100" height="100" filterUnits="userSpaceOnUse" color-interpolation-filters="sRGB">
<feFlood flood-opacity="0" result="BackgroundImageFix"/>
<feBlend mode="normal" in="SourceGraphic" in2="BackgroundImageFix" result="shape"/>
<feColorMatrix in="SourceAlpha" type="matrix" values="0 0 0 0 0 0 0 0 0 0 0 0 0 0 0 0 0 0 127 0" result="hardAlpha"/>
<feOffset dx="-4" dy="-4"/>
<feGaussianBlur stdDeviation="2"/>
<feComposite in2="hardAlpha" operator="arithmetic" k2="-1" k3="1"/>
<feColorMatrix type="matrix" values="0 0 0 0 0 0 0 0 0 0 0 0 0 0 0 0 0 0 0.25 0"/>
<feBlend mode="normal" in2="shape" result="effect1_innerShadow_586_971"/>
</filter>
<linearGradient id="paint0_linear_586_971" x1="4.5" y1="2.28407e-06" x2="96" y2="96" gradientUnits="userSpaceOnUse">
<stop offset="0.204511" stop-color="#3D3D3E"/>
<stop offset="1" stop-color="#6A6A71"/>
</linearGradient>
</defs>
</svg>
