<svg width="96" height="96" viewBox="0 0 96 96" fill="none" xmlns="http://www.w3.org/2000/svg">
<g filter="url(#filter0_i_590_946)">
<rect width="96" height="96" rx="8" fill="url(#paint0_linear_590_946)"/>
</g>
<path d="M84.1648 63.7644C84.1648 63.7644 74.7126 89.2543 42.1709 83.3204C41.6588 83.225 41.1677 83.047 40.6704 82.8966C40.5541 82.8626 40.4366 82.8254 40.3203 82.7921C39.8317 82.6401 39.348 82.4842 38.8673 82.3166C38.8123 82.2974 38.7598 82.2794 38.704 82.2596C38.2662 82.1057 37.8307 81.9422 37.4009 81.7771C37.2883 81.7333 37.1763 81.6906 37.0643 81.6448C36.6012 81.4618 36.1404 81.2706 35.6846 81.0708C35.6005 81.0338 35.5195 80.9966 35.4341 80.959C35.0351 80.7816 34.6411 80.5977 34.2504 80.4109C34.1489 80.3595 34.0469 80.3119 33.9447 80.2637C33.8891 80.2359 33.8292 80.2081 33.7722 80.1797C33.52 80.0535 33.2737 79.9225 33.0252 79.7924C32.8334 79.6935 32.6386 79.5971 32.4481 79.4949C32.0962 79.3032 31.7492 79.1084 31.404 78.9092C31.276 78.8362 31.1467 78.7657 31.0198 78.6921C30.5511 78.4163 30.0872 78.1299 29.6301 77.8403C29.5009 77.7575 29.373 77.6697 29.2455 77.5842C28.9475 77.3913 28.6493 77.1983 28.3573 76.9967C28.3264 76.9756 28.2968 76.9534 28.2664 76.9317C28.1533 76.855 28.0457 76.7765 27.9331 76.6948C27.6251 76.4808 27.3202 76.2619 27.0185 76.0392C26.8726 75.9292 26.7271 75.8185 26.5824 75.7077C26.309 75.4992 26.037 75.2858 25.7672 75.0705C25.6331 74.963 25.497 74.8567 25.3628 74.7478C25.0338 74.4768 24.7059 74.2009 24.3849 73.9227C24.3243 73.8696 24.26 73.8175 24.1981 73.7619C24.1919 73.7594 24.1876 73.7545 24.1807 73.7488C23.8165 73.4296 23.459 73.1024 23.1045 72.7685C22.9976 72.6708 22.8911 72.5663 22.7836 72.4636C22.5189 72.2093 22.2566 71.9532 21.9988 71.6935C21.8917 71.5884 21.7859 71.482 21.6833 71.3756C21.35 71.0329 21.0209 70.6898 20.6993 70.3389C20.6876 70.323 20.6758 70.3136 20.6617 70.2982C20.656 70.2921 20.648 70.2839 20.6425 70.2771C20.3135 69.9146 19.9906 69.5441 19.6746 69.1724C19.5861 69.0679 19.4971 68.961 19.4098 68.8552C19.1743 68.5713 18.9422 68.2881 18.7147 68.0011C18.6201 67.8816 18.5255 67.7612 18.4321 67.6411C18.1767 67.3114 17.9243 66.9793 17.68 66.6415C17.6342 66.5785 17.5854 66.5166 17.5414 66.4547C17.532 66.4443 17.5241 66.433 17.5179 66.4226C17.2347 66.031 16.9613 65.6321 16.6929 65.2326C16.6094 65.1101 16.5309 64.984 16.4505 64.8577C16.2562 64.5622 16.0657 64.2664 15.8814 63.9671C15.785 63.8138 15.6934 63.6598 15.6006 63.5056C15.433 63.2262 15.2691 62.9465 15.1101 62.6646C15.0192 62.505 14.9296 62.3491 14.8417 62.1852C14.7927 62.0986 14.7396 62.0094 14.692 61.9187C14.6085 61.7676 14.5331 61.6101 14.4514 61.456C14.3253 61.2142 14.1972 60.9711 14.0754 60.725C8.93582 50.4488 8.09714 37.8664 14.8262 28.1947L20.0784 21.5334C14.1526 32.9865 16.8159 46.9328 24.2291 57.0437C24.4968 57.4118 24.7709 57.7748 25.0509 58.1377C25.1377 58.2472 25.2247 58.3574 25.3114 58.4625C25.5444 58.7594 25.7825 59.0525 26.0232 59.3427C26.1099 59.4447 26.1945 59.5448 26.283 59.65C26.6047 60.0298 26.9337 60.407 27.2715 60.775C27.2875 60.7928 27.303 60.809 27.3185 60.8263C27.6376 61.1746 27.9629 61.5183 28.2938 61.8574C28.3964 61.9612 28.501 62.064 28.6055 62.1679C28.8654 62.4331 29.1307 62.6906 29.4004 62.9465C29.5024 63.048 29.605 63.1457 29.7109 63.2465C30.0751 63.5855 30.4425 63.9225 30.8167 64.2516C30.8557 64.2857 30.8958 64.3171 30.9317 64.3486C31.278 64.6498 31.6287 64.9431 31.9838 65.235C32.1075 65.3359 32.2336 65.4365 32.3597 65.5368C32.6386 65.7612 32.9207 65.9797 33.2047 66.1967C33.3402 66.3007 33.4792 66.4064 33.6198 66.5102C33.9284 66.7391 34.2401 66.9643 34.555 67.1869C34.6619 67.2592 34.7659 67.3379 34.8741 67.4108C35.1996 67.6359 35.5311 67.8549 35.8638 68.0689C35.9887 68.1519 36.1124 68.2384 36.2386 68.3189C36.6975 68.6095 37.1614 68.8952 37.6302 69.1711C37.7508 69.2404 37.8715 69.3053 37.9901 69.3722C38.344 69.5768 38.6984 69.7784 39.0595 69.9714C39.2549 70.0801 39.456 70.1786 39.6538 70.2831C39.9495 70.4353 40.2452 70.59 40.5444 70.7359C40.6576 70.7915 40.7676 70.8436 40.8784 70.8961C41.2601 71.0797 41.6429 71.2567 42.03 71.4322C42.1217 71.4719 42.2106 71.5133 42.3028 71.5528C42.7537 71.7502 43.2095 71.9395 43.669 72.1205C43.7871 72.1675 43.9053 72.2127 44.024 72.2599C44.4421 72.4219 44.8633 72.5791 45.2894 72.7293C45.3556 72.7528 45.4218 72.7769 45.486 72.8004C45.9611 72.9638 46.4391 73.1195 46.921 73.2668C47.044 73.3051 47.1671 73.3423 47.2932 73.3794C47.7867 73.5253 48.2772 73.6831 48.7832 73.7976C62.1349 76.8363 76.226 74.1074 84.1648 63.7644ZM37.0595 47.4233C37.7894 48.468 38.5971 49.7117 39.565 50.5512C39.9151 50.9376 40.2825 51.3142 40.6567 51.6847C40.7507 51.7811 40.8478 51.8739 40.9449 51.9685C41.3074 52.3211 41.6784 52.6681 42.0595 53.0051C42.0756 53.0169 42.0898 53.0331 42.1053 53.0442C42.1096 53.0491 42.1133 53.0503 42.1165 53.0552C42.5396 53.4251 42.9762 53.7821 43.419 54.1326C43.5175 54.2082 43.615 54.2867 43.7147 54.3634C44.1594 54.7042 44.6129 55.0394 45.0779 55.3584C45.0922 55.3682 45.1032 55.3784 45.1175 55.3882C45.3221 55.5304 45.5312 55.6627 45.7384 55.7988C45.8387 55.8632 45.9333 55.9324 46.0334 55.9931C46.3661 56.2065 46.702 56.4137 47.044 56.6128C47.0923 56.6426 47.1393 56.6672 47.1869 56.6951C47.4806 56.8646 47.7806 57.0322 48.08 57.1942C48.1838 57.2523 48.2903 57.3042 48.3966 57.3599C48.6032 57.4675 48.811 57.5782 49.0213 57.6828C49.0528 57.6976 49.0857 57.7124 49.116 57.7254C49.5447 57.9363 49.9769 58.1404 50.4192 58.3321C50.5132 58.3742 50.6109 58.4112 50.7068 58.4509C51.0601 58.6006 51.4163 58.7472 51.7744 58.8845C51.9264 58.942 52.0806 58.9971 52.2314 59.0521C52.5573 59.1733 52.8833 59.2835 53.2123 59.3936C53.3615 59.441 53.5074 59.49 53.6564 59.5358C54.124 59.6805 54.5866 59.8647 55.0745 59.9452C80.1998 64.1083 86 44.7633 86 44.7633C80.7707 52.2939 70.6449 55.8869 59.8392 53.0826C59.3598 52.9563 58.8869 52.8185 58.4173 52.6706C58.2725 52.6272 58.1315 52.5803 57.9886 52.5326C57.6547 52.4243 57.3224 52.3094 56.993 52.1893C56.8426 52.1343 56.6918 52.0793 56.5438 52.0223C56.1832 51.8837 55.8263 51.7403 55.4733 51.5907C55.3761 51.5486 55.279 51.5114 55.1844 51.4682C54.7411 51.275 54.3044 51.0721 53.8738 50.8593C53.6518 50.7508 53.4347 50.6363 53.2157 50.524C53.0895 50.459 52.9627 50.3939 52.8366 50.3289C52.557 50.177 52.2787 50.0195 52.0046 49.8598C51.9396 49.8223 51.8717 49.7868 51.8055 49.7475C51.4659 49.5484 51.1307 49.3433 50.7986 49.1327C50.6964 49.0675 50.5975 48.9966 50.4955 48.9295C50.2758 48.7876 50.0576 48.6438 49.8423 48.4979C49.3797 48.1787 48.9294 47.8437 48.4847 47.5047C48.3821 47.4239 48.28 47.3451 48.1785 47.2644C43.4495 43.5296 39.701 38.4265 37.9171 32.6399C36.0498 26.6385 36.4526 19.9018 39.6891 14.4347L35.7128 20.0474C30.8472 27.0503 31.1113 36.4243 34.9069 43.8305C35.5443 45.0723 36.2598 46.2764 37.0595 47.4233ZM63.5421 38.7596C63.7492 38.837 63.9558 38.9055 64.1654 38.9765C64.257 39.0046 64.3485 39.0361 64.4407 39.0633C64.7363 39.1565 65.0301 39.2644 65.3357 39.3218C79.2097 42.0024 82.9719 32.2024 83.9739 30.7602C80.6773 35.5061 75.1387 36.6453 68.3409 34.9961C67.8048 34.8651 67.2148 34.6711 66.6963 34.488C66.0327 34.2514 65.3802 33.9818 64.7444 33.6766C63.5366 33.0967 62.3873 32.3932 61.3199 31.5877C55.2383 26.9728 51.4606 18.1693 55.4288 11L53.2813 13.9598C50.4128 18.1816 50.1314 23.4246 52.1211 28.0877C54.2202 33.0364 58.5217 36.9193 63.5421 38.7596Z" fill="#0769AD"/>
<defs>
<filter id="filter0_i_590_946" x="-4" y="-4" width="100" height="100" filterUnits="userSpaceOnUse" color-interpolation-filters="sRGB">
<feFlood flood-opacity="0" result="BackgroundImageFix"/>
<feBlend mode="normal" in="SourceGraphic" in2="BackgroundImageFix" result="shape"/>
<feColorMatrix in="SourceAlpha" type="matrix" values="0 0 0 0 0 0 0 0 0 0 0 0 0 0 0 0 0 0 127 0" result="hardAlpha"/>
<feOffset dx="-4" dy="-4"/>
<feGaussianBlur stdDeviation="2"/>
<feComposite in2="hardAlpha" operator="arithmetic" k2="-1" k3="1"/>
<feColorMatrix type="matrix" values="0 0 0 0 0 0 0 0 0 0 0 0 0 0 0 0 0 0 0.25 0"/>
<feBlend mode="normal" in2="shape" result="effect1_innerShadow_590_946"/>
</filter>
<linearGradient id="paint0_linear_590_946" x1="4.5" y1="2.28407e-06" x2="96" y2="96" gradientUnits="userSpaceOnUse">
<stop offset="0.204511" stop-color="#3D3D3E"/>
<stop offset="1" stop-color="#6A6A71"/>
</linearGradient>
</defs>
</svg>
