<svg width="96" height="96" viewBox="0 0 96 96" fill="none" xmlns="http://www.w3.org/2000/svg">
<g filter="url(#filter0_i_586_979)">
<rect width="96" height="96" rx="8" fill="url(#paint0_linear_586_979)"/>
</g>
<path d="M47.517 27.2641C47.6732 27.3422 47.7982 27.5297 47.9857 27.5297C48.1576 27.5297 48.4232 27.4672 48.4388 27.2953C48.47 27.0766 48.142 26.936 47.9388 26.8422C47.6732 26.7329 47.3295 26.686 47.0795 26.8266C47.017 26.8578 46.9545 26.936 46.9858 26.9985C47.0327 27.2016 47.3451 27.1703 47.517 27.2641ZM44.0954 27.5297C44.2829 27.5297 44.4079 27.3422 44.5641 27.2641C44.736 27.1703 45.0485 27.2016 45.111 27.0141C45.1422 26.9516 45.0797 26.8735 45.0172 26.8422C44.7672 26.7016 44.4235 26.7485 44.1579 26.8578C43.9548 26.9516 43.6267 27.0922 43.6579 27.3109C43.6736 27.4672 43.9392 27.5453 44.0954 27.5297ZM78.6394 71.0885C78.077 70.4636 77.8114 69.2762 77.5145 68.0107C77.2333 66.7452 76.9052 65.3859 75.874 64.511C75.6709 64.3391 75.4678 64.1829 75.2491 64.0579C75.046 63.9329 74.8272 63.8235 74.6085 63.7454C76.0459 59.4801 75.4834 55.2305 74.0304 51.3871C72.2493 46.6843 69.1402 42.5753 66.7654 39.763C64.0937 36.4039 61.5002 33.2167 61.5471 28.514C61.6252 21.3427 62.3439 8.01567 49.7043 8.00005C33.7057 7.9688 37.7053 24.1549 37.5335 29.1233C37.2679 32.7792 36.5335 35.654 34.0181 39.2318C31.0652 42.7472 26.9093 48.4186 24.9408 54.3399C24.0033 57.1366 23.5659 59.9801 23.9721 62.6674C22.9565 63.5735 22.191 64.9641 21.3786 65.8234C20.7224 66.4952 19.7693 66.7451 18.7225 67.1201C17.6757 67.4951 16.5352 68.0575 15.8321 69.3856C15.504 69.9949 15.3947 70.6511 15.3947 71.3229C15.3947 71.9322 15.4884 72.5572 15.5822 73.1665C15.7696 74.432 15.9728 75.6194 15.7072 76.4162C14.8947 78.666 14.7854 80.2284 15.3634 81.3689C15.9571 82.5095 17.1445 83.0094 18.5038 83.2906C21.2067 83.8531 24.8783 83.7125 27.7686 85.2436C30.8621 86.8685 34.0025 87.4465 36.5023 86.8685C38.3146 86.4623 39.7989 85.3686 40.5488 83.7125C42.5018 83.6969 44.6579 82.8688 48.0951 82.6813C50.423 82.4938 53.3446 83.5094 56.7037 83.3219C56.7975 83.6812 56.9225 84.0406 57.0943 84.3687V84.3843C58.3911 86.9935 60.8128 88.1809 63.3907 87.9778C65.9842 87.7747 68.7184 86.2591 70.9369 83.6187C73.0618 81.0565 76.5615 79.994 78.8894 78.5879C80.0455 77.8848 80.983 77.0099 81.0611 75.7288C81.1236 74.4476 80.3736 73.0259 78.6394 71.0885ZM47.9701 21.6395C49.5012 18.1711 53.3134 18.2336 54.8445 21.577C55.8601 23.7956 55.407 26.4048 54.1727 27.889C53.9227 27.764 53.2509 27.4828 52.2041 27.1235C52.376 26.936 52.6884 26.7016 52.8134 26.4048C53.5634 24.5612 52.7822 22.1864 51.3917 22.1395C50.2512 22.0614 49.22 23.8269 49.5481 25.7329C48.9075 25.4205 48.0795 25.1861 47.517 25.0455C47.3608 23.9675 47.4701 22.7644 47.9701 21.6395ZM41.6112 19.8428C43.1892 19.8428 44.861 22.0614 44.5954 25.0767C44.0485 25.233 43.4861 25.4673 43.0018 25.7954C43.1892 24.4049 42.4862 22.6551 41.5019 22.7332C40.1895 22.8426 39.9708 26.0454 41.2207 27.1235C41.3769 27.2484 41.5175 27.0922 40.2989 27.9828C37.8616 25.7017 38.6584 19.8428 41.6112 19.8428ZM39.4864 29.3264C40.4551 28.6077 41.6112 27.764 41.6894 27.6859C42.4237 26.9985 43.7986 25.4673 46.0484 25.4673C47.1577 25.4673 48.4857 25.8267 50.0949 26.8578C51.0792 27.4984 51.8604 27.5453 53.6259 28.3109C54.9383 28.8577 55.7663 29.8264 55.2664 31.1544C54.8601 32.2636 53.5477 33.4042 51.7198 33.9823C49.9855 34.5447 48.6263 36.482 45.7515 36.3102C45.1422 36.2789 44.6579 36.154 44.2516 35.9821C43.0018 35.4353 42.3456 34.3572 41.1269 33.6385C39.7833 32.8886 39.0646 32.0137 38.8302 31.2481C38.6115 30.4825 38.8302 29.842 39.4864 29.3264ZM40.002 81.5095C39.5802 86.9935 33.1432 86.8841 28.2374 84.3218C23.5659 81.8533 17.5195 83.3063 16.2852 80.9002C15.9103 80.1659 15.9103 78.916 16.6914 76.7756V76.7443C17.0664 75.5569 16.7852 74.2445 16.5977 73.0103C16.4102 71.7916 16.3165 70.6667 16.7383 69.8855C17.2851 68.8387 18.0663 68.4638 19.0506 68.12C20.6599 67.542 20.8942 67.5888 22.1129 66.5733C22.9722 65.6827 23.5971 64.5578 24.3471 63.761C25.1439 62.9017 25.9094 62.4955 27.1125 62.683C28.378 62.8705 29.4716 63.7454 30.534 65.1828L33.5963 70.7448C35.0805 73.8539 40.3301 78.3067 40.002 81.5095ZM39.7833 77.463C39.1427 76.4318 38.2834 75.3382 37.5335 74.4008C38.6427 74.4008 39.752 74.057 40.1426 73.0103C40.502 72.0416 40.1426 70.6823 38.9865 69.12C36.8773 66.2764 33.0026 64.0423 33.0026 64.0423C30.8934 62.7299 29.706 61.1206 29.1592 59.3708C28.6123 57.6209 28.6904 55.7304 29.1123 53.8712C29.9247 50.2934 32.0183 46.8093 33.3619 44.622C33.7213 44.3564 33.4869 45.122 32.0027 47.8717C30.6747 50.3871 28.1905 56.1992 31.5965 60.7457C31.6902 57.5115 32.4558 54.2149 33.7525 51.1371C35.6274 46.8562 39.5802 39.4349 39.8926 33.5292C40.0645 33.6542 40.6113 34.0291 40.8613 34.1697C41.58 34.5916 42.1268 35.2165 42.8299 35.779C44.7672 37.3414 47.2826 37.2164 49.4543 35.9665C50.423 35.4196 51.2042 34.7947 51.9385 34.5603C53.4853 34.076 54.7195 33.2167 55.4226 32.2168C56.6256 36.9664 59.4379 43.8252 61.2346 47.1687C62.1877 48.9498 64.0938 52.7151 64.9218 57.2616C65.4374 57.2459 66.0155 57.3241 66.6248 57.4803C68.7809 51.9026 64.7968 45.8875 62.9845 44.2158C62.2501 43.4971 62.2189 43.1846 62.5783 43.2002C64.5468 44.9501 67.1404 48.4654 68.0778 52.4182C68.5153 54.2306 68.5934 56.121 68.1403 57.9959C70.7026 59.0583 73.7492 60.7925 72.9368 63.4329C72.593 63.4173 72.4368 63.4329 72.2806 63.4329C72.7805 61.8549 71.6712 60.6832 68.7184 59.3551C65.6561 58.0115 63.0938 58.0115 62.7345 61.3081C60.844 61.9643 59.8753 63.6048 59.391 65.5734C58.9535 67.3232 58.8286 69.4324 58.7036 71.8072C58.6255 73.0103 58.1411 74.6195 57.6412 76.3381C52.626 79.9159 45.6578 81.4783 39.7833 77.463ZM79.9987 75.6663C79.8581 78.2911 73.5617 78.7754 70.1245 82.9313C68.0622 85.3842 65.5311 86.7435 63.3126 86.9154C61.094 87.0872 59.1723 86.1654 58.0474 83.9C57.3131 82.1657 57.6724 80.2909 58.2192 78.2286C58.7973 76.01 59.6566 73.7289 59.766 71.8853C59.891 69.5105 60.0316 67.4326 60.4222 65.839C60.8284 64.2297 61.4533 63.1517 62.5626 62.5424C62.6095 62.5111 62.672 62.4955 62.7189 62.4643C62.8438 64.5266 63.8594 66.6202 65.6561 67.0732C67.6247 67.5888 70.4526 65.9015 71.6556 64.5266C73.0617 64.4797 74.1085 64.386 75.1866 65.3234C76.7333 66.6514 76.2959 70.0574 77.8582 71.8229C79.5143 73.6352 80.0455 74.8695 79.9987 75.6663ZM40.0957 31.2325C40.4082 31.5293 40.8301 31.9356 41.3456 32.3418C42.3768 33.1542 43.8142 33.9979 45.6109 33.9979C47.4233 33.9979 49.1262 33.0761 50.5792 32.3105C51.3448 31.9043 52.2822 31.2169 52.8916 30.6857C53.5009 30.1544 53.8134 29.7014 53.3759 29.6545C52.9384 29.6076 52.9697 30.0607 52.4385 30.4513C51.751 30.9513 50.923 31.6075 50.2668 31.9824C49.1106 32.6386 47.2202 33.576 45.5953 33.576C43.9704 33.576 42.6737 32.8261 41.705 32.0605C41.2207 31.67 40.8144 31.2794 40.502 30.9825C40.2676 30.7638 40.2051 30.2638 39.8301 30.2169C39.6114 30.2013 39.5489 30.795 40.0957 31.2325Z" fill="white"/>
<defs>
<filter id="filter0_i_586_979" x="-4" y="-4" width="100" height="100" filterUnits="userSpaceOnUse" color-interpolation-filters="sRGB">
<feFlood flood-opacity="0" result="BackgroundImageFix"/>
<feBlend mode="normal" in="SourceGraphic" in2="BackgroundImageFix" result="shape"/>
<feColorMatrix in="SourceAlpha" type="matrix" values="0 0 0 0 0 0 0 0 0 0 0 0 0 0 0 0 0 0 127 0" result="hardAlpha"/>
<feOffset dx="-4" dy="-4"/>
<feGaussianBlur stdDeviation="2"/>
<feComposite in2="hardAlpha" operator="arithmetic" k2="-1" k3="1"/>
<feColorMatrix type="matrix" values="0 0 0 0 0 0 0 0 0 0 0 0 0 0 0 0 0 0 0.25 0"/>
<feBlend mode="normal" in2="shape" result="effect1_innerShadow_586_979"/>
</filter>
<linearGradient id="paint0_linear_586_979" x1="4.5" y1="2.28407e-06" x2="96" y2="96" gradientUnits="userSpaceOnUse">
<stop offset="0.204511" stop-color="#3D3D3E"/>
<stop offset="1" stop-color="#6A6A71"/>
</linearGradient>
</defs>
</svg>
