<svg width="96" height="96" viewBox="0 0 96 96" fill="none" xmlns="http://www.w3.org/2000/svg">
<g filter="url(#filter0_i_849_948)">
<rect width="96" height="96" rx="8" fill="url(#paint0_linear_849_948)"/>
</g>
<path d="M45.3803 8.02153C45.2082 8.03717 44.6608 8.0919 44.1681 8.13099C32.8055 9.15528 22.1623 15.2854 15.4213 24.7072C11.6676 29.946 9.26686 35.8884 8.35973 42.1827C8.0391 44.3798 8 45.0288 8 48.0078C8 50.9869 8.0391 51.6358 8.35973 53.833C10.5337 68.8533 21.2239 81.4731 35.7224 86.1489C38.3187 86.9855 41.0557 87.5563 44.1681 87.9003C45.3803 88.0332 50.6197 88.0332 51.8319 87.9003C57.2043 87.3061 61.7556 85.9768 66.2444 83.6859C66.9326 83.334 67.0655 83.2402 66.9717 83.162C66.9091 83.1151 63.9765 79.1821 60.4575 74.4282L54.0606 65.7882L46.045 53.9268C41.6344 47.4058 38.0059 42.0732 37.9746 42.0732C37.9433 42.0654 37.912 47.3354 37.8964 53.7704C37.8729 65.0376 37.8651 65.4911 37.7243 65.7569C37.521 66.1401 37.3646 66.2964 37.0362 66.4685C36.7859 66.5936 36.567 66.617 35.3861 66.617H34.0332L33.6735 66.3903C33.4389 66.2417 33.2669 66.0462 33.1496 65.8195L32.9853 65.4676L33.001 49.7906L33.0244 34.1057L33.2669 33.8007C33.392 33.6365 33.6579 33.4254 33.8456 33.3238C34.1662 33.1674 34.2913 33.1518 35.6442 33.1518C37.2395 33.1518 37.5054 33.2143 37.9198 33.6678C38.0371 33.7929 42.3773 40.3296 47.5699 48.2033C52.7625 56.077 59.8631 66.8281 63.3509 72.106L69.6852 81.6999L70.0059 81.4887C72.8446 79.6435 75.8475 77.0163 78.2248 74.2796C83.2845 68.4701 86.5455 61.3861 87.6403 53.833C87.9609 51.6358 88 50.9869 88 48.0078C88 45.0288 87.9609 44.3798 87.6403 42.1827C85.4663 27.1624 74.7761 14.5426 60.2776 9.86681C57.7204 9.038 54.999 8.46721 51.9492 8.12318C51.1984 8.04499 46.0293 7.95898 45.3803 8.02153ZM61.7556 32.2135C62.131 32.4011 62.436 32.7608 62.5455 33.1361C62.608 33.3394 62.6237 37.6868 62.608 47.484L62.5846 61.5425L60.1056 57.7425L57.6188 53.9424V43.723C57.6188 37.116 57.65 33.402 57.697 33.2221C57.8221 32.7843 58.0958 32.4402 58.4712 32.2369C58.7918 32.0727 58.9091 32.0571 60.1369 32.0571C61.2942 32.0571 61.4976 32.0727 61.7556 32.2135Z" fill="white"/>
<defs>
<filter id="filter0_i_849_948" x="-4" y="-4" width="100" height="100" filterUnits="userSpaceOnUse" color-interpolation-filters="sRGB">
<feFlood flood-opacity="0" result="BackgroundImageFix"/>
<feBlend mode="normal" in="SourceGraphic" in2="BackgroundImageFix" result="shape"/>
<feColorMatrix in="SourceAlpha" type="matrix" values="0 0 0 0 0 0 0 0 0 0 0 0 0 0 0 0 0 0 127 0" result="hardAlpha"/>
<feOffset dx="-4" dy="-4"/>
<feGaussianBlur stdDeviation="2"/>
<feComposite in2="hardAlpha" operator="arithmetic" k2="-1" k3="1"/>
<feColorMatrix type="matrix" values="0 0 0 0 0 0 0 0 0 0 0 0 0 0 0 0 0 0 0.25 0"/>
<feBlend mode="normal" in2="shape" result="effect1_innerShadow_849_948"/>
</filter>
<linearGradient id="paint0_linear_849_948" x1="4.5" y1="2.28407e-06" x2="96" y2="96" gradientUnits="userSpaceOnUse">
<stop offset="0.204511" stop-color="#3D3D3E"/>
<stop offset="1" stop-color="#6A6A71"/>
</linearGradient>
</defs>
</svg>
