<svg width="96" height="96" viewBox="0 0 96 96" fill="none" xmlns="http://www.w3.org/2000/svg">
<g filter="url(#filter0_i_586_978)">
<rect width="96" height="96" rx="8" fill="url(#paint0_linear_586_978)"/>
</g>
<path d="M54.7798 12C54.6652 12.0948 54.5533 12.2628 54.4313 12.2713L49.4229 12.5668L43.4617 12.9902L39.8625 13.2725L33.3698 13.8327L31.2174 13.9738L26.2089 14.2627C24.3142 14.3881 22.4157 14.4833 20.53 14.695C16.8975 15.1032 13.8432 17.3043 13.1419 21.4303C13.0753 21.8142 13.0074 22.2041 13.0074 22.5903C12.9993 35.9917 12.9979 49.3932 13.003 62.7946C13.0014 64.5868 13.5511 66.3362 14.5777 67.8053C16.3245 70.3194 18.2206 72.7272 20.0691 75.1713C21.5731 77.1603 23.0593 79.1633 24.6232 81.106C25.7524 82.5113 27.2209 83.4787 28.9723 83.9863C29.0959 84.0213 29.2017 84.1099 29.3406 84.22C32.2386 84.2663 35.1098 84.2663 37.9835 84.2663C38.0981 84.1715 38.2106 84.0013 38.3319 83.9951L42.1076 83.8407L49.4141 83.4173L53.8623 83.1394L61.0982 82.7137L65.6171 82.4315C68.0058 82.288 70.3982 82.1908 72.7824 81.9926C74.3107 81.8667 75.8674 81.7453 77.341 81.3552C80.1351 80.6139 81.9105 78.7153 82.7111 75.941C82.8872 75.3324 82.9961 74.6816 82.9978 74.0488L83 28.6728C82.9972 27.2308 82.5105 25.8788 81.4253 24.9258C79.9653 23.6425 78.4041 22.4619 76.8205 21.3288C73.4132 18.8847 70.0038 16.4398 66.5125 14.1194C65.3082 13.3165 63.8593 12.8842 62.5229 12.2801C62.4038 12.227 62.2913 12.1564 62.1524 12.0485L54.7798 12ZM59.2082 16.2134C61.2895 16.2332 63.1346 16.9126 64.8849 18.1861L77.3189 26.9482C78.351 27.6691 78.7966 28.5714 78.7943 29.8615L78.7745 72.6924V73.257C78.7236 75.8727 77.4649 77.2819 74.8577 77.4914L66.0604 78.0582L48.3908 79.1256L32.6906 80.0607C30.3729 80.2148 28.5489 79.4915 27.2763 77.5002C27.0138 77.0852 26.6791 76.7148 26.3787 76.3247L19.4053 67.3333C17.9385 65.4589 17.1891 63.421 17.2021 60.9708L17.2396 23.5717C17.2365 23.1023 17.2756 22.6336 17.3564 22.1713C17.6873 20.3601 18.8316 19.231 20.6778 19.0617L29.8169 18.3493L44.3769 17.2753L58.3018 16.2454C58.6092 16.2211 58.9109 16.2106 59.2082 16.2134ZM58.701 19.8225L53.0044 20.2195L25.9321 22.1867C25.114 22.246 24.2915 22.3057 23.4841 22.4514C23.2154 22.4999 22.8719 22.7736 22.7883 23.0204C22.7262 23.1954 22.9992 23.5451 23.1996 23.7371C23.5706 24.0922 23.9979 24.3896 24.4016 24.7097C25.3614 25.4662 26.3829 26.1567 27.2631 26.9923C28.9325 28.5776 30.8752 28.944 33.1008 28.783L50.6226 27.6848L69.4853 26.5534L70.2076 26.4211C69.8615 26.0614 69.6613 25.7861 69.3993 25.5918C68.4749 24.9092 67.5415 24.2387 66.5996 23.5805C65.1669 22.5733 63.7301 21.5721 62.2891 20.5768C61.1357 19.9524 59.9357 19.7548 58.701 19.8225ZM72.3678 30.7855L59.3427 31.5354L41.0402 32.6072L31.89 33.1563C30.7236 33.2314 30.196 33.7339 30.0198 34.8743C29.9735 35.1741 29.9647 35.4825 29.9647 35.7874L29.9625 50.2504V69.2278L29.9669 72.7564C29.9974 74.3355 30.7717 75.1229 32.3531 75.2132L33.5507 75.1978L46.7852 74.4171L72.059 72.9725C73.6342 72.8844 74.3619 72.1937 74.5092 70.6326L74.5291 69.7857L74.5313 33.3835C74.5313 33.1718 74.5382 32.9601 74.5247 32.7483C74.4304 31.3013 73.808 30.7088 72.3678 30.7855ZM68.2481 37.6024C68.5835 39.1725 68.2153 39.759 66.7462 40.0548C65.2936 40.3478 65.2929 40.3484 65.2929 41.8169L65.3105 66.9408C65.3128 67.5121 65.1389 67.8163 64.6291 67.9817C63.6501 68.2973 62.6908 68.7034 61.6915 68.9168C60.0948 69.2612 58.6745 68.8379 57.7107 67.4546C56.3584 65.5091 55.0402 63.5401 53.7565 61.5486L45.0231 47.9126L44.7408 47.5179V65.902L48.5407 66.7687C48.3821 67.9487 47.7469 68.6719 46.5669 68.8661L43.83 69.091L36.8808 69.4902C36.5742 68.509 36.9642 67.741 37.8754 67.4723L39.9309 66.8923V42.4499L36.9139 42.1918C36.526 40.8267 37.3729 39.5103 38.773 39.3822L44.4696 38.9653L47.5659 38.7558C48.0334 38.705 48.2828 38.8328 48.5363 39.219L55.8009 50.2878V50.29C57.4901 52.8545 59.1765 55.4209 60.86 57.9891V40.9502L58.2025 40.6569C57.6668 40.6258 57.5734 40.379 57.6446 39.9313C57.7897 39.0026 58.5132 38.2044 59.4684 38.1361L68.2481 37.6024Z" fill="white"/>
<defs>
<filter id="filter0_i_586_978" x="-4" y="-4" width="100" height="100" filterUnits="userSpaceOnUse" color-interpolation-filters="sRGB">
<feFlood flood-opacity="0" result="BackgroundImageFix"/>
<feBlend mode="normal" in="SourceGraphic" in2="BackgroundImageFix" result="shape"/>
<feColorMatrix in="SourceAlpha" type="matrix" values="0 0 0 0 0 0 0 0 0 0 0 0 0 0 0 0 0 0 127 0" result="hardAlpha"/>
<feOffset dx="-4" dy="-4"/>
<feGaussianBlur stdDeviation="2"/>
<feComposite in2="hardAlpha" operator="arithmetic" k2="-1" k3="1"/>
<feColorMatrix type="matrix" values="0 0 0 0 0 0 0 0 0 0 0 0 0 0 0 0 0 0 0.25 0"/>
<feBlend mode="normal" in2="shape" result="effect1_innerShadow_586_978"/>
</filter>
<linearGradient id="paint0_linear_586_978" x1="4.5" y1="2.28407e-06" x2="96" y2="96" gradientUnits="userSpaceOnUse">
<stop offset="0.204511" stop-color="#3D3D3E"/>
<stop offset="1" stop-color="#6A6A71"/>
</linearGradient>
</defs>
</svg>
