<svg width="96" height="96" viewBox="0 0 96 96" fill="none" xmlns="http://www.w3.org/2000/svg">
<rect width="96" height="96" rx="20" fill="#3D3D3E"/>
<path fill-rule="evenodd" clip-rule="evenodd" d="M83.9515 55.8923C83.6778 54.1169 82.1865 52.9542 80.4519 52.8757C79.824 52.8471 79.1863 52.9128 78.5603 52.9925C77.804 53.0886 77.0568 53.259 76.3024 53.3715C75.781 53.4494 75.2522 53.4853 74.7314 53.5389L74.7186 53.4713C75.6909 51.6351 76.7039 49.8189 77.6239 47.9565C78.3291 46.5279 78.9326 45.0476 79.5563 43.5795C80.5881 41.147 81.4126 38.6391 82.0952 36.0904C82.7493 33.65 83.309 31.1828 83.4849 28.6511C83.5555 27.6399 83.6041 26.6244 83.5987 25.612C83.5938 24.8046 83.5068 23.996 83.4259 23.1911C83.3346 22.2687 83.0559 21.3944 82.6702 20.5529C82.1615 19.4444 81.373 18.5348 80.5431 17.6708C79.8787 16.979 79.148 16.3487 78.4234 15.719C77.3902 14.8203 76.2288 14.103 75.0222 13.466C73.6555 12.7397 72.2075 12.178 70.7085 11.7928C69.8001 11.561 68.871 11.3888 67.9511 11.205C67.6201 11.1381 67.2885 11 66.9575 11H60.7266C60.5015 11 60.2782 11.1162 60.0513 11.1418C58.5594 11.3079 57.0852 11.589 55.6535 12.0325C55.1181 12.1986 54.6289 12.094 54.1203 12.0471C53.7303 12.0112 53.347 11.9066 52.957 11.8871C51.4712 11.8129 49.9836 11.704 48.4984 11.7198C47.0753 11.7344 45.6668 11.9686 44.2893 12.3598C43.1363 12.6872 42.0083 13.0869 40.9752 13.6929C40.5329 13.9521 40.1824 13.9034 39.7249 13.7714C38.1874 13.3278 36.6389 12.9111 35.0771 12.5612C34.1036 12.3434 33.1027 12.2351 32.1086 12.1311C31.1546 12.0319 30.1969 11.9722 29.238 11.9522C28.3022 11.9321 27.3598 11.9327 26.4283 12.0155C24.9446 12.1445 23.4821 12.4536 22.0731 12.936C20.5127 13.4688 19.0546 14.2641 17.7618 15.2876C16.4434 16.331 15.3859 17.6051 14.5353 19.0598C13.6391 20.5949 13.0246 22.2383 12.6425 23.9644C12.4356 24.8995 12.3048 25.8609 12.1631 26.8106C12.1186 27.1063 12.6084 27.402 12 27.6965V31.8301C12.6084 32.1052 12.1266 32.3796 12.1618 32.6552C12.2464 33.3178 12.3213 33.9858 12.4332 34.6435C12.6103 35.6845 12.8202 36.7225 13.0343 37.7568C13.3317 39.2025 13.6453 40.6448 13.975 42.0834C14.2159 43.1299 14.4903 44.1703 14.7775 45.2052C15.2162 46.7859 15.6481 48.3697 16.144 49.9327C16.6046 51.385 17.1321 52.8167 17.6553 54.2483C18.38 56.2287 19.2476 58.1453 20.288 59.9821C21.1879 61.5725 22.2161 63.062 23.5954 64.2874C24.5044 65.0947 25.5162 65.7153 26.6942 66.0256C27.6196 66.269 28.5602 66.2982 29.5075 66.1041C30.5868 65.8846 31.5951 65.4015 32.4426 64.698C32.5418 64.6165 32.6507 64.5545 32.7681 64.7041C33.2153 65.2706 33.814 65.6484 34.4401 65.9751C36.1297 66.8561 37.9708 67.1202 39.8411 67.2279C40.2938 67.2541 40.7513 67.189 41.2076 67.1762C42.0965 67.1518 42.9605 66.9784 43.8105 66.7326C44.2558 66.6036 44.6909 66.44 45.1441 66.2873C45.1679 66.7697 45.1983 67.2346 45.2123 67.6994L45.2756 70.2341C45.2871 70.6199 45.3023 71.0068 45.3382 71.3908C45.4301 72.3807 45.5202 73.3712 45.6382 74.3581C45.7203 75.0383 45.8055 75.724 45.9655 76.3878C46.2863 77.7278 46.7257 79.0366 47.2785 80.2988C47.8077 81.5238 48.6211 82.6052 49.6514 83.4535C51.0021 84.5705 52.5852 85.0469 54.2949 85.1351C55.0019 85.1723 55.729 85.1376 56.425 85.011C57.5313 84.8144 58.6256 84.5554 59.7026 84.2353C61.8875 83.5757 63.7761 82.4368 65.187 80.5963C65.9901 79.5473 66.6497 78.4126 67.0731 77.1599C67.4224 76.1249 67.7515 75.0797 68.0131 74.0204C68.22 73.1856 68.3222 72.3247 68.4482 71.4723C68.5315 70.9083 68.5814 70.3388 68.6337 69.7705C68.7189 68.8475 68.8059 67.9251 68.8674 67.0003C68.91 66.3566 68.9081 65.7099 68.9337 65.0649C68.9416 64.8684 68.9732 64.6731 68.9915 64.4772C69.0085 64.2959 69.0998 64.2332 69.2848 64.2362C69.9364 64.246 70.5892 64.263 71.239 64.2338C71.9673 64.201 72.7023 64.1699 73.419 64.0495C74.4403 63.8789 75.4534 63.6622 76.4551 63.4003C77.6373 63.0912 78.7215 62.5375 79.7649 61.9066C80.9806 61.1722 82.0885 60.3107 82.9878 59.2009C83.7696 58.2329 84.1402 57.114 83.9515 55.8923ZM81.8756 56.4897C81.8354 57.0465 81.5805 57.5235 81.2106 57.9311C79.465 59.8556 77.2753 61.0231 74.7704 61.5981C73.8188 61.8159 72.8368 61.9291 71.8627 62.0191C71.0304 62.0923 70.1944 62.112 69.3596 62.0782C68.7475 62.055 68.1403 61.9151 67.5148 61.8251C67.4522 62.397 67.3925 62.9926 67.3201 63.5871L67.0287 65.8656C66.9405 66.5878 66.8717 67.3125 66.7811 68.0341C66.6923 68.7344 66.5815 69.4322 66.4884 70.1325C66.4014 70.7848 66.3375 71.44 66.2408 72.0911C66.0917 73.0889 65.9494 74.0891 65.7547 75.079C65.521 76.2624 65.1627 77.4087 64.578 78.4759C63.8649 79.7785 62.8537 80.7709 61.5668 81.5059C60.2405 82.264 58.7906 82.6582 57.3206 82.988C56.2802 83.2216 55.2082 83.26 54.1544 83.1651C52.3266 82.9996 50.7666 82.2177 49.5875 80.8007C48.4619 79.4482 47.7002 77.8979 47.4276 76.1432C47.3003 75.3079 47.2007 74.4686 47.1288 73.6267C47.0481 72.6912 46.9875 71.754 46.9469 70.8158C46.893 69.6256 46.853 68.4348 46.8271 67.2437C46.7948 65.7798 46.7845 64.316 46.7638 62.8521L46.7601 62.7961C46.0154 63.2427 45.2835 63.7319 44.5071 64.1346C43.5999 64.604 42.6067 64.884 41.5879 64.9578C40.786 65.0187 39.9737 65.0741 39.1755 65.0102C37.8667 64.9049 36.5592 64.6999 35.3874 64.0555C34.9122 63.7939 34.4163 63.4757 34.089 63.0577C33.3041 62.0562 33.6801 60.7907 34.8635 60.1817C35.6813 59.76 36.5738 59.5842 37.4603 59.3792C38.2319 59.2041 38.9954 58.9952 39.7486 58.7531C40.4921 58.5097 40.9612 57.9068 41.4242 57.3154L42.158 56.3717C41.8519 56.3395 41.5635 56.3066 41.2751 56.2798C40.3996 56.1971 39.5642 55.9561 38.7654 55.602C38.0815 55.2997 38.0712 55.2668 37.5698 55.8107C36.7326 56.7197 35.9185 57.65 35.0984 58.5742C34.4948 59.2538 33.8949 59.9377 33.2944 60.6191C32.6993 61.2933 32.142 62.0058 31.5014 62.633C30.5498 63.5645 29.4029 64.1249 28.0345 64.0616C27.1566 64.0215 26.3528 63.7136 25.63 63.2104C24.1381 62.1712 23.133 60.7177 22.2179 59.1912C21.0455 57.2351 20.1456 55.1512 19.3754 53.0101C18.8424 51.5304 18.307 50.0495 17.8415 48.5485C17.3359 46.9173 16.8924 45.2655 16.4561 43.6142C16.1303 42.3666 15.8296 41.1126 15.5544 39.8529C15.2335 38.4223 14.9366 36.9864 14.6637 35.5458C14.4824 34.5729 14.3771 33.5861 14.2305 32.6065C14.0328 31.2862 13.9963 29.9538 14.068 28.628C14.1319 27.4336 14.3035 26.2423 14.4739 25.0559C14.7099 23.4144 15.2508 21.8653 16.029 20.4026C16.5054 19.5064 17.0968 18.6917 17.7807 17.9349C18.9032 16.6925 20.2619 15.7944 21.7732 15.1203C22.8294 14.6494 23.9453 14.3658 25.0824 14.1444C26.7702 13.8158 28.4732 13.8286 30.1768 13.8639C30.9215 13.8791 31.6632 14.0148 32.4073 14.0884C34.0093 14.2478 35.5796 14.5849 37.1299 15.001C38.2598 15.304 39.3665 15.6965 40.4872 16.0372C40.5998 16.0712 40.7647 16.0682 40.8565 16.008C42.3752 15.0168 44.035 14.3628 45.8 13.9886C46.4699 13.8468 47.1611 13.7848 47.8462 13.741C48.6791 13.688 49.5187 13.6394 50.3499 13.6874C51.3489 13.7446 52.3431 13.8919 53.336 14.0281C53.8179 14.0939 54.2882 14.2612 54.7713 14.3068C55.0025 14.3287 55.2477 14.1596 55.4923 14.103C56.739 13.8152 57.9802 13.4946 59.2378 13.267C60.1742 13.0979 61.1306 13.0182 62.0828 12.9634C63.1445 12.9026 64.2141 12.8581 65.2752 12.9092C66.6188 12.9758 67.9537 13.1637 69.2635 13.4708C70.8922 13.8499 72.4547 14.4005 73.9399 15.1647C75.0496 15.7354 76.1046 16.3974 77.0544 17.2114C77.6768 17.7456 78.3138 18.2732 78.876 18.8682C79.5696 19.602 80.2772 20.3363 80.7123 21.2764C81.0396 21.9852 81.2732 22.7189 81.3377 23.4953C81.418 24.4603 81.5154 25.4289 81.5063 26.3951C81.4977 27.3193 81.3718 28.2429 81.2824 29.1646C81.0792 31.2661 80.6222 33.322 80.0673 35.3505C79.6032 37.0262 79.0777 38.6842 78.4921 40.3214C77.9573 41.8309 77.3404 43.313 76.7167 44.7891C76.2576 45.8824 75.7588 46.9586 75.2212 48.0156C74.2009 50.0148 73.1398 51.9935 71.9126 53.8765C71.7008 54.2021 71.5001 54.5355 71.2932 54.8677C71.8286 55.2291 72.4352 55.3562 73.0461 55.422C73.6271 55.4852 74.2197 55.523 74.8002 55.4798C75.7292 55.411 76.6553 55.2784 77.5789 55.1488C78.4939 55.021 79.3908 54.7606 80.3302 54.8293C81.2684 54.8975 81.9395 55.6106 81.8756 56.4897ZM68.4822 54.4497C68.0837 53.935 67.6773 53.4263 67.2873 52.9055C66.6752 52.0878 66.2353 51.1745 65.7936 50.257C65.375 49.3876 64.8615 48.5644 64.4204 47.7046C63.6507 46.2049 62.8671 44.71 62.1582 43.181C61.2669 41.2602 60.5642 39.2712 60.3427 37.1436C60.249 36.2431 60.2253 35.3438 60.4072 34.4519C60.6986 33.0275 61.4427 31.9135 62.6937 31.1493C63.8539 30.4405 65.1468 30.2117 66.4714 30.1399C67.2934 30.0955 68.119 30.132 68.972 30.132L68.9434 29.9878C68.4129 28.8787 67.917 27.7506 67.3366 26.6676C66.5176 25.1393 65.4699 23.7612 64.3029 22.4835C63.4384 21.5374 62.502 20.6594 61.4762 19.8837C60.4674 19.1201 59.4045 18.438 58.2704 17.8801C56.9178 17.2151 55.5093 16.701 54.0315 16.373C52.6114 16.0579 51.1822 15.865 49.7256 15.8492C48.4832 15.8358 47.2487 15.8918 46.0385 16.1722C44.212 16.5951 42.5413 17.3471 41.0878 18.5652C40.2836 19.2396 39.5649 20.0099 38.9479 20.859C38.2202 21.8586 37.6331 22.938 37.1311 24.0696C36.4424 25.6224 35.9697 27.2383 35.6466 28.8993C35.4847 29.7274 35.3582 30.5628 35.2292 31.3976C35.1842 31.6896 35.1805 31.9883 35.1544 32.323C35.3789 32.2062 35.5407 32.1161 35.7062 32.0358L36.2447 31.7942C38.0657 30.9613 39.9524 30.4253 41.9803 30.4867C42.8419 30.5129 43.6663 30.6833 44.4323 31.0605C45.9016 31.7851 46.7613 33.0172 47.1349 34.5766C47.3929 35.6529 47.5693 36.7505 47.7409 37.8451C47.8754 38.6999 48.0129 39.5639 48.0287 40.426C48.0512 41.6861 47.9873 42.9486 47.9186 44.208C47.8595 45.2789 47.638 46.3347 47.2615 47.339C46.58 49.16 45.8207 50.9512 45.1113 52.7619C44.877 53.36 44.6969 53.9794 44.4755 54.6371C44.8174 54.6371 45.0949 54.6346 45.3723 54.6383C45.4806 54.6401 45.5913 54.6432 45.696 54.6681C46.5113 54.8604 47.2183 55.2297 47.7981 55.857C48.5714 56.6917 48.9772 57.6658 48.9979 58.7933C49.0095 59.4181 48.9438 60.0448 48.9468 60.6696C48.9596 63.5816 48.9815 66.4935 49.0058 69.4048C49.0101 69.8806 49.0338 70.357 49.0679 70.8322C49.1391 71.827 49.2109 72.8224 49.3082 73.8147C49.3764 74.5187 49.4713 75.2214 49.5826 75.9205C49.7402 76.911 50.1911 77.7926 50.7027 78.6353C51.1433 79.3599 51.7158 79.9757 52.4702 80.4004C53.7522 81.122 55.1327 81.1822 56.5242 80.9163C57.4642 80.7368 58.3872 80.4484 59.2998 80.1509C60.1973 79.863 61.0168 79.373 61.6952 78.7187C62.3347 78.0987 62.7886 77.343 63.0946 76.5089C63.6884 74.891 63.8734 73.1874 64.1192 71.4972C64.2111 70.8645 64.2908 70.2299 64.3747 69.5959C64.4703 68.8743 64.567 68.1533 64.6595 67.4323C64.7276 66.8951 64.7897 66.3566 64.8554 65.8194C64.9491 65.0479 65.0483 64.277 65.1377 63.5049C65.2065 62.908 65.2649 62.3087 65.3257 61.7107C65.4042 60.9465 65.4888 60.1823 65.5563 59.4169C65.6086 58.8358 65.5873 58.2444 65.6902 57.6743C65.8794 56.6291 66.3734 55.7395 67.3001 55.1646C67.6876 54.9243 68.1251 54.7661 68.5553 54.5628L68.4822 54.4497ZM33.4386 50.159C32.9765 49.0723 32.6981 47.9164 32.6148 46.7385C32.5369 45.6281 32.6689 44.522 32.7827 43.4164C32.8934 42.3456 32.9853 41.2699 33.0176 40.1942C33.0711 38.4261 32.9518 36.6605 32.8673 34.8936C32.8162 33.8416 32.9385 32.7769 33.0322 31.7225C33.1167 30.7727 33.222 29.8205 33.4015 28.8847C33.7026 27.3144 34.1024 25.7666 34.6707 24.2662C35.2103 22.8437 35.8303 21.4583 36.7058 20.211C37.3058 19.3555 37.9866 18.5561 38.6407 17.7201L38.4466 17.6513C36.3183 16.9754 34.1553 16.4473 31.9309 16.2167C30.8789 16.1078 29.8233 16.0439 28.7683 15.9812C28.4446 15.9617 28.1161 16.0055 27.7912 16.0366C26.9868 16.1132 26.1727 16.1437 25.3812 16.2945C24.0341 16.5507 22.7418 16.9815 21.545 17.683C20.4705 18.3127 19.5682 19.1268 18.8126 20.1033C17.9778 21.1814 17.4162 22.4007 17.0128 23.7009C16.5364 25.2348 16.3095 26.813 16.248 28.4059C16.1945 29.8023 16.1677 31.2065 16.4087 32.5974C16.5882 33.6329 16.708 34.6794 16.9058 35.7107C17.1753 37.1168 17.4643 38.5198 17.7983 39.9113C18.2759 41.9033 18.7529 43.8983 19.3188 45.866C19.8603 47.7515 20.4712 49.62 21.1331 51.466C21.6746 52.9724 22.3007 54.4509 22.9602 55.9099C23.3898 56.8603 23.91 57.7747 24.4551 58.6649C25.035 59.6098 25.6945 60.5066 26.5895 61.1923C27.7188 62.0581 28.5931 62.1925 29.7406 61.2428C30.2322 60.8357 30.6477 60.3332 31.0755 59.8543C31.7551 59.0938 32.411 58.3126 33.0875 57.5496C33.9491 56.5774 34.8215 55.6154 35.6873 54.648C35.8705 54.4436 36.0463 54.2331 36.2246 54.0262L35.9301 53.7676C34.8608 52.7484 34.0127 51.5201 33.4386 50.159ZM66.1039 21.2167C66.8118 22.0397 67.4835 22.8931 68.1172 23.7746C69.334 25.4836 70.3063 27.329 71.0224 29.3033C71.3394 30.1734 71.5925 31.052 71.4794 32.0042C71.4009 32.671 71.4076 33.3476 71.3486 34.0181C71.2993 34.576 71.211 35.1309 71.1386 35.687C71.0303 36.5254 70.8734 37.3614 70.8265 38.2034C70.7821 39.0047 70.8283 39.8146 70.8788 40.6177C70.93 41.4336 71.0401 42.2458 71.1149 43.0605C71.1995 43.9841 71.3133 44.9077 71.3394 45.8331C71.3607 46.593 71.2932 47.3578 71.2269 48.1166C71.1478 49.0304 70.916 49.9151 70.5704 50.7638C70.3276 51.3613 70.0374 51.9405 69.763 52.5386L69.8731 52.6554L70.0404 52.785L70.209 52.4832C71.6322 50.2434 72.8972 47.9068 73.9946 45.4906C74.6968 43.9308 75.3636 42.3554 75.9945 40.7655C76.9826 38.2929 77.7644 35.7509 78.3692 33.1583C78.6406 31.9944 78.848 30.8129 79.0324 29.6313C79.176 28.7077 79.2958 27.7731 79.3226 26.841C79.3512 25.8523 79.2965 24.8557 79.2052 23.8695C79.137 23.1248 78.9533 22.3752 78.4866 21.7698C77.7364 20.7951 76.9266 19.863 75.9306 19.1256C75.0922 18.5044 74.2568 17.8673 73.357 17.3447C71.9302 16.5172 70.386 15.966 68.7725 15.5906C67.1979 15.2237 65.6026 15.0655 63.9969 15.0321C63.0502 15.012 62.0992 15.1136 61.1543 15.2024C60.2983 15.2827 59.4477 15.4196 58.5855 15.5328C59.5104 16.053 60.4224 16.5154 61.2827 17.0606C63.0916 18.2062 64.7124 19.5849 66.1039 21.2167ZM42.6033 53.2943C43.188 51.4246 43.9845 49.6394 44.756 47.8434C45.3814 46.3868 45.7234 44.8523 45.8371 43.2765C45.8937 42.4995 45.8779 41.7128 45.8396 40.9335C45.8015 40.0664 45.7219 39.2016 45.6011 38.3422C45.4392 37.2464 45.2549 36.15 44.9957 35.0743C44.7146 33.9104 44.0058 33.0999 42.7914 32.8012C42.0515 32.6193 41.3165 32.6266 40.5688 32.7446C38.7423 33.0324 37.0703 33.7053 35.5127 34.691C35.1994 34.8893 35.0272 35.0493 35.0813 35.499C35.1957 36.4512 35.2207 37.4186 35.2164 38.3799C35.2103 39.7403 35.1525 41.1008 35.1008 42.4606C35.0838 42.9035 35.0199 43.344 34.9724 43.7852C34.8994 44.4605 34.7589 45.1353 34.7631 45.8094C34.7674 46.5042 34.8386 47.2155 35.0071 47.8884C35.5425 50.0222 36.6766 51.7683 38.5354 53.0004C39.6786 53.7579 40.9436 54.14 42.332 54.2124C42.4263 53.8936 42.5103 53.5924 42.6033 53.2943ZM40.4215 34.9885C40.1769 34.475 40.3169 34.0497 40.8839 33.8526C41.022 33.8039 41.1644 33.7522 41.308 33.7382C41.5051 33.7187 41.7059 33.7333 41.9055 33.7333C42.6246 33.737 43.3164 33.8374 43.9103 34.2949C44.2911 34.5882 44.3933 34.9775 44.1469 35.3773C43.7971 35.9443 43.2635 36.2291 42.6082 36.2838C41.5757 36.3696 40.8511 35.8884 40.4215 34.9885ZM69.042 34.8011C69.1247 34.1172 69.1911 33.4315 69.2756 32.7477C69.3097 32.4726 69.1649 32.3984 68.9343 32.3917C68.2091 32.3716 67.4838 32.3461 66.7586 32.3327C65.9408 32.3181 65.145 32.4495 64.3881 32.7604C63.5485 33.106 62.909 33.6597 62.648 34.5735C62.4571 35.2475 62.3966 35.9517 62.4698 36.6483C62.5714 37.7255 62.8155 38.7845 63.1956 39.7975C63.703 41.1488 64.2342 42.4995 64.8688 43.7943C65.7285 45.5472 66.7014 47.2441 67.6146 48.9702C67.8586 49.4308 68.0636 49.9114 68.318 50.4493C68.8307 49.38 69.1109 48.2142 69.14 47.0287C69.1649 46.0491 69.0864 45.0653 69.0292 44.0851C68.9933 43.4852 68.9088 42.8889 68.8503 42.2902C68.7688 41.4561 68.6453 40.6225 68.6264 39.7866C68.6076 38.9366 68.6678 38.0817 68.7408 37.233C68.8096 36.4189 68.944 35.6115 69.042 34.8011ZM67.4059 34.1428C67.1364 34.8869 66.5602 35.3067 65.8131 35.4302C65.1164 35.5446 64.5062 35.2872 64.0523 34.7317C63.7292 34.3363 63.8527 33.8678 64.337 33.6007C64.8931 33.2928 65.5046 33.2149 66.2256 33.1681C66.4215 33.204 66.7166 33.2338 66.9971 33.3141C67.4041 33.4291 67.5544 33.7351 67.4059 34.1428ZM45.8542 57.0562C45.4557 56.7307 44.9288 56.7118 44.5497 57.069C44.0794 57.5131 43.6657 58.0212 43.2519 58.5219C42.7743 59.1005 42.3265 59.7022 41.7102 60.1507C40.8134 60.8023 39.7681 61.0724 38.7173 61.328C37.8819 61.5312 37.0429 61.7198 36.2051 61.9151L36.1948 62.0234C36.4436 62.1384 36.6846 62.282 36.9437 62.3641C38.2214 62.7687 39.521 62.9701 40.8712 62.8557C41.8459 62.773 42.7743 62.5606 43.6541 62.1433C44.8649 61.5695 45.7964 60.6605 46.5886 59.6031C46.7212 59.4266 46.7814 59.1656 46.7972 58.9381C46.8514 58.1343 46.4431 57.5368 45.8542 57.0562ZM77.341 57.3762C76.3127 57.4863 75.2833 57.6032 74.252 57.6622C73.7543 57.6908 73.2493 57.5959 72.7467 57.5551C71.9041 57.487 71.0815 57.2996 70.369 56.8493C69.9565 56.5895 69.6139 56.5603 69.1759 56.7076C68.5504 56.9181 68.0399 57.2381 67.889 57.9159C67.7862 58.374 67.7491 58.8486 67.7077 59.3177C67.6998 59.4005 67.8032 59.5526 67.8823 59.5733C68.3648 59.7004 68.8497 59.8507 69.3432 59.8951C69.9492 59.9499 70.5661 59.9322 71.1764 59.9018C71.8353 59.869 72.4985 59.8264 73.1477 59.7168C74.6779 59.4601 76.1582 59.0415 77.473 58.1739C77.947 57.8605 78.4167 57.5405 78.8876 57.2235L78.8487 57.1566C78.3461 57.2314 77.846 57.3227 77.341 57.3762Z" fill="#5691C0"/>
</svg>
