<svg width="96" height="96" viewBox="0 0 96 96" fill="none" xmlns="http://www.w3.org/2000/svg">
<g filter="url(#filter0_i_586_972)">
<rect width="96" height="96" rx="8" fill="url(#paint0_linear_586_972)"/>
</g>
<path d="M48 54.778C51.7213 54.778 54.738 51.7612 54.738 48.0399C54.738 44.3186 51.7213 41.3019 48 41.3019C44.2787 41.3019 41.262 44.3186 41.262 48.0399C41.262 51.7612 44.2787 54.778 48 54.778Z" fill="#61DAFB"/>
<path d="M73.5927 36.9281C72.2923 36.4553 70.9329 35.9824 69.5144 35.5687C69.869 34.1502 70.1645 32.7316 70.401 31.3722C71.6422 23.5703 70.2827 18.0735 66.5 15.9457C65.377 15.2955 64.1358 15 62.7173 15C58.5799 15 53.3195 18.0735 48 23.2157C42.6805 18.0735 37.4201 15 33.2827 15C31.8642 15 30.623 15.2955 29.5 15.9457C25.7173 18.1326 24.3578 23.6294 25.599 31.3722C25.8355 32.7316 26.131 34.1502 26.4856 35.5687C25.0671 35.9824 23.7077 36.3962 22.4073 36.9281C15.0192 39.7652 11 43.6661 11 48.0399C11 52.4137 15.0783 56.3147 22.4073 59.1518C23.7077 59.6246 25.0671 60.0975 26.4856 60.5112C26.131 61.9297 25.8355 63.3482 25.599 64.7077C24.3578 72.5096 25.7173 78.0064 29.5 80.1342C30.623 80.7844 31.8642 81.0799 33.2827 81.0799C37.4792 81.0799 42.7396 78.0064 48 72.8642C53.3195 78.0064 58.5799 81.0799 62.7173 81.0799C64.1358 81.0799 65.377 80.7844 66.5 80.1342C70.2827 77.9473 71.6422 72.4505 70.401 64.7077C70.1645 63.3482 69.869 61.9297 69.5144 60.5112C70.9329 60.0975 72.2923 59.6837 73.5927 59.1518C80.9808 56.3147 85 52.4137 85 48.0399C85 43.6661 80.9808 39.7652 73.5927 36.9281ZM64.845 18.901C67.2684 20.3195 68.0958 24.6933 67.0911 30.8994C66.9137 32.1406 66.6182 33.4409 66.2636 34.8003C63.1901 34.0911 59.9393 33.6182 56.5112 33.3227C54.5016 30.4856 52.4329 27.9441 50.3642 25.639C54.738 21.3243 59.1709 18.369 62.7764 18.369C63.5447 18.369 64.254 18.5463 64.845 18.901ZM58.2252 53.9505C57.1613 55.8419 55.9201 57.7332 54.6198 59.6246C52.4329 59.8019 50.246 59.861 48 59.861C45.6949 59.861 43.508 59.8019 41.3802 59.6246C40.0799 57.7332 38.8978 55.8419 37.8339 53.9505C36.7109 52 35.647 49.9904 34.7013 48.0399C35.647 46.0895 36.7109 44.0799 37.8339 42.1294C38.8978 40.238 40.139 38.3466 41.4393 36.4553C43.6262 36.278 45.8131 36.2189 48.0591 36.2189C50.3642 36.2189 52.5511 36.278 54.6789 36.4553C55.9792 38.3466 57.1613 40.238 58.2252 42.1294C59.3482 44.0799 60.4121 46.0895 61.3578 48.0399C60.353 49.9904 59.3482 51.9409 58.2252 53.9505ZM63.131 52C64.0176 54.0687 64.7268 56.0783 65.377 58.0879C63.3674 58.5607 61.2396 58.9153 58.9936 59.2109C59.7029 58.0879 60.4712 56.9058 61.1214 55.6645C61.8307 54.4233 62.4808 53.1821 63.131 52ZM48 68.0176C46.5815 66.4808 45.222 64.8259 43.9217 63.1118C45.2811 63.1709 46.6406 63.23 48 63.23C49.3594 63.23 50.7188 63.1709 52.0783 63.1118C50.778 64.8259 49.4185 66.4808 48 68.0176ZM37.0064 59.1518C34.7604 58.8562 32.6326 58.5016 30.623 58.0288C31.2732 56.0783 31.9824 54.0096 32.869 51.9409C33.5192 53.123 34.1693 54.3642 34.8786 55.5463C35.5879 56.8466 36.2971 57.9697 37.0064 59.1518ZM32.869 44.0799C31.9824 42.0112 31.2732 40.0016 30.623 37.992C32.6326 37.5192 34.7604 37.1645 37.0064 36.869C36.2971 37.992 35.5288 39.1741 34.8786 40.4153C34.1693 41.6566 33.5192 42.8978 32.869 44.0799ZM48 28.0623C49.4185 29.599 50.778 31.254 52.0783 32.9681C50.7188 32.9089 49.3594 32.8498 48 32.8498C46.6406 32.8498 45.2811 32.9089 43.9217 32.9681C45.222 31.254 46.5815 29.599 48 28.0623ZM61.1214 40.4744L58.9936 36.9281C61.2396 37.2236 63.3674 37.5783 65.377 38.0511C64.7268 40.0016 64.0176 42.0703 63.131 44.139C62.4808 42.8978 61.8307 41.6566 61.1214 40.4744ZM28.9089 30.8994C27.9042 24.6933 28.7316 20.3195 31.155 18.901C31.746 18.5463 32.4553 18.369 33.2236 18.369C36.77 18.369 41.2029 21.2652 45.6358 25.639C43.5671 27.885 41.4984 30.4856 39.4888 33.3227C36.0607 33.6182 32.8099 34.1502 29.7364 34.8003C29.3818 33.4409 29.1454 32.1406 28.9089 30.8994ZM14.3099 48.0399C14.3099 45.262 17.6789 42.3067 23.5895 40.1198C24.7716 39.647 26.0719 39.2332 27.3722 38.8786C28.3179 41.8339 29.5 44.9665 30.9185 48.099C29.5 51.2316 28.2588 54.3051 27.3722 57.2604C19.2157 54.8962 14.3099 51.3498 14.3099 48.0399ZM31.155 77.1789C28.7316 75.7604 27.9042 71.3866 28.9089 65.1805C29.0863 63.9393 29.3818 62.639 29.7364 61.2796C32.8099 61.9888 36.0607 62.4617 39.4888 62.7572C41.4984 65.5943 43.5671 68.1358 45.6358 70.4409C41.262 74.7556 36.8291 77.7109 33.2236 77.7109C32.4553 77.7109 31.746 77.5336 31.155 77.1789ZM67.0911 65.1805C68.0958 71.3866 67.2684 75.7604 64.845 77.1789C64.254 77.5336 63.5447 77.7109 62.7764 77.7109C59.23 77.7109 54.7971 74.8147 50.3642 70.4409C52.4329 68.1949 54.5016 65.5943 56.5112 62.7572C59.9393 62.4617 63.1901 61.9297 66.2636 61.2796C66.6182 62.639 66.8546 63.9393 67.0911 65.1805ZM72.4105 55.9601C71.2284 56.4329 69.9281 56.8466 68.6278 57.2013C67.6821 54.246 66.5 51.1134 65.0815 47.9808C66.5 44.8482 67.7412 41.7748 68.6278 38.8195C76.7843 41.1837 81.6901 44.73 81.6901 48.0399C81.6901 50.8179 78.262 53.7732 72.4105 55.9601Z" fill="#61DAFB"/>
<defs>
<filter id="filter0_i_586_972" x="-4" y="-4" width="100" height="100" filterUnits="userSpaceOnUse" color-interpolation-filters="sRGB">
<feFlood flood-opacity="0" result="BackgroundImageFix"/>
<feBlend mode="normal" in="SourceGraphic" in2="BackgroundImageFix" result="shape"/>
<feColorMatrix in="SourceAlpha" type="matrix" values="0 0 0 0 0 0 0 0 0 0 0 0 0 0 0 0 0 0 127 0" result="hardAlpha"/>
<feOffset dx="-4" dy="-4"/>
<feGaussianBlur stdDeviation="2"/>
<feComposite in2="hardAlpha" operator="arithmetic" k2="-1" k3="1"/>
<feColorMatrix type="matrix" values="0 0 0 0 0 0 0 0 0 0 0 0 0 0 0 0 0 0 0.25 0"/>
<feBlend mode="normal" in2="shape" result="effect1_innerShadow_586_972"/>
</filter>
<linearGradient id="paint0_linear_586_972" x1="4.5" y1="2.28407e-06" x2="96" y2="96" gradientUnits="userSpaceOnUse">
<stop offset="0.204511" stop-color="#3D3D3E"/>
<stop offset="1" stop-color="#6A6A71"/>
</linearGradient>
</defs>
</svg>
