<svg width="96" height="96" viewBox="0 0 96 96" fill="none" xmlns="http://www.w3.org/2000/svg">
<rect width="96" height="96" rx="20" fill="#3D3D3E"/>
<path fill-rule="evenodd" clip-rule="evenodd" d="M23 23.4866C23 21.501 23.7888 19.5968 25.1928 18.1928C26.5968 16.7888 28.501 16 30.4866 16H69.9612C70.5027 16 71.022 16.2151 71.4049 16.598C71.7878 16.9809 72.0029 17.5003 72.0029 18.0418V73.8507C72.0029 74.3922 71.7878 74.9116 71.4049 75.2945C71.022 75.6774 70.5027 75.8925 69.9612 75.8925H53.6268C53.0853 75.8925 52.566 75.6774 52.1831 75.2945C51.8002 74.9116 51.585 74.3922 51.585 73.8507C51.585 73.3092 51.8002 72.7899 52.1831 72.407C52.566 72.0241 53.0853 71.8089 53.6268 71.8089H67.9194V60.9194H31.1672C30.0841 60.9194 29.0454 61.3496 28.2796 62.1154C27.5138 62.8813 27.0836 63.9199 27.0836 65.003V67.0448C27.0836 68.994 28.2542 70.6764 29.9421 71.4142C30.4216 71.6414 30.7939 72.0464 30.98 72.5433C31.1661 73.0403 31.1514 73.5902 30.939 74.0765C30.7267 74.5628 30.3333 74.9473 29.8423 75.1486C29.3513 75.3499 28.8013 75.3521 28.3087 75.1548C26.7307 74.4661 25.3879 73.3319 24.4449 71.8914C23.502 70.4509 22.9998 68.7665 23 67.0448V23.4866ZM67.9194 20.0836V56.8358H31.1672C29.6807 56.8358 28.2842 57.2333 27.0836 57.9275V23.4866C27.0836 21.6081 28.6081 20.0836 30.4866 20.0836H67.9194Z" fill="white" stroke="white"/>
<path d="M33.8901 65.6835C33.8901 65.503 33.9618 65.3299 34.0895 65.2023C34.2171 65.0746 34.3902 65.0029 34.5707 65.0029H48.1827C48.3632 65.0029 48.5363 65.0746 48.6639 65.2023C48.7916 65.3299 48.8633 65.503 48.8633 65.6835V79.3227C48.8627 79.448 48.8275 79.5706 48.7617 79.6772C48.6958 79.7837 48.6019 79.87 48.4901 79.9266C48.3784 79.9832 48.2532 80.0078 48.1283 79.9978C48.0035 79.9878 47.8838 79.9436 47.7825 79.8699L41.7769 75.5032C41.6606 75.4186 41.5205 75.3731 41.3767 75.3731C41.2329 75.3731 41.0928 75.4186 40.9765 75.5032L34.9709 79.8672C34.8698 79.9407 34.7504 79.9849 34.6258 79.9951C34.5011 80.0052 34.3762 79.9808 34.2645 79.9245C34.1528 79.8683 34.0588 79.7823 33.9928 79.6762C33.9268 79.57 33.8912 79.4477 33.8901 79.3227V65.6835Z" fill="white" stroke="white"/>
</svg>
