<svg width="120" height="30" viewBox="0 0 120 30" fill="none" xmlns="http://www.w3.org/2000/svg">
<rect width="120" height="30" fill="#DB7093"/>
<path d="M42.5 4C48.5768 4 53.5 8.92319 53.5 15C53.5 21.0768 48.5768 26 42.5 26C36.4232 26 31.5 21.0768 31.5 15C31.5 8.92319 36.4232 4 42.5 4ZM40.3117 18.663C40.4733 19.2577 40.4554 19.8091 40.2904 20.3068L40.2326 20.4718C40.2113 20.5289 40.1831 20.5825 40.1611 20.6334C40.0326 20.9022 39.8607 21.1483 39.6531 21.3779C39.0116 22.073 38.1206 22.3377 37.737 22.1156C37.3217 21.8757 37.5287 20.8912 38.2705 20.1061C39.0687 19.2646 40.2147 18.7235 40.2147 18.7235V18.7208L40.3117 18.663ZM49.3997 8.70869C48.902 6.75344 45.6618 6.11269 42.5962 7.201C40.7702 7.84931 38.7978 8.86681 37.3761 10.1951C35.6855 11.7736 35.4174 13.1486 35.5288 13.7213C35.922 15.748 38.6974 17.0769 39.8401 18.058V18.0656C39.5025 18.2299 37.0399 19.4653 36.4631 20.7475C35.8436 22.0929 36.56 23.0568 37.0248 23.1785C38.4685 23.5793 39.9542 22.8485 40.7531 21.6667C41.5231 20.511 41.4543 19.0288 41.1216 18.2979C41.576 18.1763 42.1136 18.1185 42.8011 18.201C44.7282 18.4231 45.1111 19.6337 45.0286 20.1281C44.9461 20.6224 44.5481 20.9118 44.4092 20.9943C44.2738 21.0768 44.2304 21.1016 44.2442 21.1593C44.2586 21.2418 44.3267 21.2418 44.4374 21.2274C44.5879 21.2026 45.4404 20.8156 45.4831 19.8806C45.5223 18.6953 44.3941 17.3781 42.3893 17.4028C41.5622 17.4214 41.0391 17.4888 40.6706 17.6393C40.6424 17.6001 40.6128 17.5712 40.5736 17.5424C39.3354 16.2107 37.0399 15.2764 37.1361 13.4999C37.1657 12.8557 37.3981 11.1514 41.5368 9.08887C44.931 7.39487 47.6418 7.86444 48.1073 8.89569C48.781 10.3669 46.6642 13.1032 43.1304 13.4999C41.7836 13.6504 41.0817 13.1314 40.9029 12.9382C40.7098 12.7299 40.685 12.7161 40.6121 12.7594C40.5049 12.8124 40.5729 12.9925 40.6121 13.1032C40.7228 13.3782 41.1491 13.8587 41.8943 14.1049C42.5385 14.3132 44.1218 14.4349 46.0193 13.6931C48.1499 12.8701 49.8116 10.5746 49.331 8.6475L49.3997 8.70869Z" fill="white"/>
<path d="M63.5449 16.7324C63.5449 16.5996 63.5254 16.4805 63.4863 16.375C63.4473 16.2656 63.375 16.1641 63.2695 16.0703C63.1641 15.9766 63.0117 15.8828 62.8125 15.7891C62.6172 15.6914 62.3594 15.5898 62.0391 15.4844C61.6641 15.3594 61.3027 15.2188 60.9551 15.0625C60.6074 14.9023 60.2969 14.7168 60.0234 14.5059C59.75 14.291 59.5332 14.041 59.373 13.7559C59.2129 13.4668 59.1328 13.1309 59.1328 12.748C59.1328 12.3809 59.2148 12.0508 59.3789 11.7578C59.543 11.4609 59.7715 11.209 60.0645 11.002C60.3613 10.791 60.709 10.6309 61.1074 10.5215C61.5059 10.4082 61.9414 10.3516 62.4141 10.3516C63.0391 10.3516 63.5898 10.4609 64.0664 10.6797C64.5469 10.8945 64.9219 11.2012 65.1914 11.5996C65.4648 11.9941 65.6016 12.4609 65.6016 13H63.5566C63.5566 12.7852 63.5117 12.5957 63.4219 12.4316C63.3359 12.2676 63.2051 12.1387 63.0293 12.0449C62.8535 11.9512 62.6328 11.9043 62.3672 11.9043C62.1094 11.9043 61.8926 11.9434 61.7168 12.0215C61.541 12.0996 61.4082 12.2051 61.3184 12.3379C61.2285 12.4668 61.1836 12.6094 61.1836 12.7656C61.1836 12.8945 61.2188 13.0117 61.2891 13.1172C61.3633 13.2188 61.4668 13.3145 61.5996 13.4043C61.7363 13.4941 61.9004 13.5801 62.0918 13.6621C62.2871 13.7441 62.5059 13.8242 62.748 13.9023C63.2012 14.0469 63.6035 14.209 63.9551 14.3887C64.3105 14.5645 64.6094 14.7656 64.8516 14.9922C65.0977 15.2148 65.2832 15.4688 65.4082 15.7539C65.5371 16.0391 65.6016 16.3613 65.6016 16.7207C65.6016 17.1035 65.5273 17.4434 65.3789 17.7402C65.2305 18.0371 65.0176 18.2891 64.7402 18.4961C64.4629 18.6992 64.1309 18.8535 63.7441 18.959C63.3574 19.0645 62.9258 19.1172 62.4492 19.1172C62.0117 19.1172 61.5801 19.0625 61.1543 18.9531C60.7324 18.8398 60.3496 18.668 60.0059 18.4375C59.6621 18.2031 59.3867 17.9043 59.1797 17.541C58.9766 17.1738 58.875 16.7383 58.875 16.2344H60.9375C60.9375 16.4844 60.9707 16.6953 61.0371 16.8672C61.1035 17.0391 61.2012 17.1777 61.3301 17.2832C61.459 17.3848 61.6172 17.459 61.8047 17.5059C61.9922 17.5488 62.207 17.5703 62.4492 17.5703C62.7109 17.5703 62.9219 17.5332 63.082 17.459C63.2422 17.3809 63.3594 17.2793 63.4336 17.1543C63.5078 17.0254 63.5449 16.8848 63.5449 16.7324ZM71.0613 17.4062V14.793C71.0613 14.6133 71.0359 14.459 70.9852 14.3301C70.9344 14.2012 70.8543 14.1016 70.7449 14.0312C70.6355 13.957 70.4891 13.9199 70.3055 13.9199C70.157 13.9199 70.0301 13.9453 69.9246 13.9961C69.8191 14.0469 69.7391 14.123 69.6844 14.2246C69.6297 14.3262 69.6023 14.4551 69.6023 14.6113H67.6277C67.6277 14.3184 67.6922 14.0469 67.8211 13.7969C67.9539 13.543 68.1414 13.3223 68.3836 13.1348C68.6297 12.9473 68.9227 12.8027 69.2625 12.7012C69.6062 12.5957 69.9891 12.543 70.4109 12.543C70.9148 12.543 71.3641 12.627 71.7586 12.7949C72.157 12.9629 72.4715 13.2148 72.702 13.5508C72.9324 13.8828 73.0477 14.3008 73.0477 14.8047V17.4004C73.0477 17.8145 73.0711 18.1289 73.118 18.3438C73.1648 18.5547 73.2312 18.7402 73.3172 18.9004V19H71.3367C71.243 18.8047 71.1727 18.5664 71.1258 18.2852C71.0828 18 71.0613 17.707 71.0613 17.4062ZM71.3016 15.127L71.3133 16.1816H70.4402C70.2566 16.1816 70.1004 16.207 69.9715 16.2578C69.8465 16.3086 69.7449 16.3789 69.6668 16.4688C69.5926 16.5547 69.5379 16.6523 69.5027 16.7617C69.4715 16.8711 69.4559 16.9863 69.4559 17.1074C69.4559 17.2246 69.4832 17.3301 69.5379 17.4238C69.5965 17.5137 69.6746 17.584 69.7723 17.6348C69.8699 17.6855 69.9793 17.7109 70.1004 17.7109C70.3191 17.7109 70.5047 17.6699 70.657 17.5879C70.8133 17.502 70.9324 17.3984 71.0145 17.2773C71.0965 17.1562 71.1375 17.043 71.1375 16.9375L71.5711 17.7461C71.493 17.9023 71.4031 18.0605 71.3016 18.2207C71.2039 18.3809 71.0809 18.5293 70.9324 18.666C70.7879 18.7988 70.6102 18.9082 70.3992 18.9941C70.1883 19.0762 69.9324 19.1172 69.6316 19.1172C69.241 19.1172 68.8816 19.0371 68.5535 18.877C68.2293 18.7168 67.9695 18.4941 67.7742 18.209C67.5789 17.9199 67.4812 17.5879 67.4812 17.2129C67.4812 16.8848 67.5398 16.5918 67.657 16.334C67.7781 16.0762 67.9598 15.8574 68.202 15.6777C68.4441 15.498 68.7527 15.3613 69.1277 15.2676C69.5027 15.1738 69.9441 15.127 70.452 15.127H71.3016ZM78.6656 17.2188C78.6656 17.1094 78.6285 17.0156 78.5543 16.9375C78.484 16.8555 78.359 16.7812 78.1793 16.7148C77.9996 16.6445 77.7477 16.5742 77.4234 16.5039C77.1148 16.4375 76.8238 16.3496 76.5504 16.2402C76.2809 16.1309 76.0445 15.998 75.8414 15.8418C75.6383 15.6855 75.4781 15.5 75.3609 15.2852C75.2477 15.0703 75.191 14.8242 75.191 14.5469C75.191 14.2773 75.2477 14.0234 75.3609 13.7852C75.4781 13.543 75.648 13.3301 75.8707 13.1465C76.0973 12.959 76.3727 12.8125 76.6969 12.707C77.0211 12.5977 77.3902 12.543 77.8043 12.543C78.3746 12.543 78.8668 12.6309 79.2809 12.8066C79.6949 12.9785 80.0133 13.2207 80.2359 13.5332C80.4625 13.8418 80.5758 14.1992 80.5758 14.6055H78.6012C78.6012 14.4453 78.5738 14.3086 78.5191 14.1953C78.4684 14.082 78.3844 13.9961 78.2672 13.9375C78.15 13.875 77.9937 13.8438 77.7984 13.8438C77.6617 13.8438 77.5367 13.8691 77.4234 13.9199C77.3141 13.9707 77.2262 14.041 77.1598 14.1309C77.0934 14.2207 77.0602 14.3262 77.0602 14.4473C77.0602 14.5332 77.0797 14.6113 77.1187 14.6816C77.1617 14.748 77.2262 14.8105 77.3121 14.8691C77.398 14.9238 77.5074 14.9746 77.6402 15.0215C77.773 15.0645 77.9332 15.1035 78.1207 15.1387C78.5465 15.2168 78.9449 15.3281 79.316 15.4727C79.6871 15.6172 79.9879 15.8223 80.2184 16.0879C80.4527 16.3535 80.5699 16.7109 80.5699 17.1602C80.5699 17.4414 80.5055 17.7012 80.3766 17.9395C80.2477 18.1738 80.0621 18.3809 79.8199 18.5605C79.5777 18.7363 79.2867 18.873 78.9469 18.9707C78.607 19.0684 78.2242 19.1172 77.7984 19.1172C77.193 19.1172 76.6812 19.0098 76.2633 18.7949C75.8453 18.5762 75.5289 18.3027 75.3141 17.9746C75.1031 17.6426 74.9977 17.3066 74.9977 16.9668H76.8375C76.8453 17.1621 76.8922 17.3223 76.9781 17.4473C77.068 17.5723 77.1871 17.6641 77.3355 17.7227C77.484 17.7812 77.6559 17.8105 77.8512 17.8105C78.0309 17.8105 78.1793 17.7852 78.2965 17.7344C78.4176 17.6836 78.5094 17.6152 78.5719 17.5293C78.6344 17.4395 78.6656 17.3359 78.6656 17.2188ZM86.018 17.2188C86.018 17.1094 85.9809 17.0156 85.9066 16.9375C85.8363 16.8555 85.7113 16.7812 85.5316 16.7148C85.352 16.6445 85.1 16.5742 84.7758 16.5039C84.4672 16.4375 84.1762 16.3496 83.9027 16.2402C83.6332 16.1309 83.3969 15.998 83.1938 15.8418C82.9906 15.6855 82.8305 15.5 82.7133 15.2852C82.6 15.0703 82.5434 14.8242 82.5434 14.5469C82.5434 14.2773 82.6 14.0234 82.7133 13.7852C82.8305 13.543 83.0004 13.3301 83.223 13.1465C83.4496 12.959 83.725 12.8125 84.0492 12.707C84.3734 12.5977 84.7426 12.543 85.1566 12.543C85.727 12.543 86.2191 12.6309 86.6332 12.8066C87.0473 12.9785 87.3656 13.2207 87.5883 13.5332C87.8148 13.8418 87.9281 14.1992 87.9281 14.6055H85.9535C85.9535 14.4453 85.9262 14.3086 85.8715 14.1953C85.8207 14.082 85.7367 13.9961 85.6195 13.9375C85.5023 13.875 85.3461 13.8438 85.1508 13.8438C85.0141 13.8438 84.8891 13.8691 84.7758 13.9199C84.6664 13.9707 84.5785 14.041 84.5121 14.1309C84.4457 14.2207 84.4125 14.3262 84.4125 14.4473C84.4125 14.5332 84.432 14.6113 84.4711 14.6816C84.5141 14.748 84.5785 14.8105 84.6645 14.8691C84.7504 14.9238 84.8598 14.9746 84.9926 15.0215C85.1254 15.0645 85.2855 15.1035 85.473 15.1387C85.8988 15.2168 86.2973 15.3281 86.6684 15.4727C87.0395 15.6172 87.3402 15.8223 87.5707 16.0879C87.8051 16.3535 87.9223 16.7109 87.9223 17.1602C87.9223 17.4414 87.8578 17.7012 87.7289 17.9395C87.6 18.1738 87.4145 18.3809 87.1723 18.5605C86.9301 18.7363 86.6391 18.873 86.2992 18.9707C85.9594 19.0684 85.5766 19.1172 85.1508 19.1172C84.5453 19.1172 84.0336 19.0098 83.6156 18.7949C83.1977 18.5762 82.8813 18.3027 82.6664 17.9746C82.4555 17.6426 82.35 17.3066 82.35 16.9668H84.1898C84.1977 17.1621 84.2445 17.3223 84.3305 17.4473C84.4203 17.5723 84.5395 17.6641 84.6879 17.7227C84.8363 17.7812 85.0082 17.8105 85.2035 17.8105C85.3832 17.8105 85.5316 17.7852 85.6488 17.7344C85.7699 17.6836 85.8617 17.6152 85.9242 17.5293C85.9867 17.4395 86.018 17.3359 86.018 17.2188Z" fill="white"/>
</svg>
