<svg width="96" height="96" viewBox="0 0 96 96" fill="none" xmlns="http://www.w3.org/2000/svg">
<rect width="96" height="96" rx="20" fill="#3D3D3E"/>
<path d="M53.125 82C53.23 81.7625 53.495 81.5975 53.6875 81.3975C56.625 78.3175 59.5875 75.265 62.485 72.1475C63.3917 71.3101 64.0923 70.2743 64.5321 69.121C64.9719 67.9678 65.1389 66.7285 65.02 65.5C64.929 64.9739 64.8097 64.4531 64.6625 63.94C63.8725 64.69 63.1375 65.3725 62.3975 66.06C61.2475 67.13 60.1025 68.205 58.9425 69.2625C58.2585 69.9599 57.379 70.4334 56.4202 70.6204C55.4614 70.8074 54.4685 70.6992 53.5725 70.31C52.6655 69.9768 51.8764 69.3845 51.303 68.6068C50.7297 67.829 50.3975 66.8999 50.3475 65.935C50.3206 65.8108 50.2847 65.6889 50.24 65.57C49.3575 66.32 48.5125 67.01 47.675 67.72L30.2675 82.47C30.1475 82.5725 30.0175 82.7 29.905 82.8H53.1125L53.0775 82.7775C52.9525 82.69 53.0175 82.23 53.125 82Z" fill="#FFCEBF"/>
<path d="M28.8426 82C29.049 81.7312 29.2982 81.4981 29.5801 81.31L53.6701 60.8725C55.3134 59.4775 56.9493 58.075 58.5776 56.665C58.7788 56.5247 58.9365 56.3306 59.0326 56.105C59.4221 54.4077 59.4773 52.6509 59.1951 50.9325C58.9451 51.1075 58.8101 51.1825 58.6951 51.305C56.7226 53.07 54.7601 54.85 52.7776 56.605C52.1209 57.266 51.2714 57.7017 50.3515 57.8495C49.4315 57.9973 48.4883 57.8495 47.6576 57.4275C46.8101 57.0274 46.1008 56.3842 45.62 55.5797C45.1392 54.7753 44.9086 53.8459 44.9576 52.91C44.9576 52.6975 44.9576 52.4875 44.9576 52.1C44.5951 52.365 44.3301 52.5425 44.0826 52.7425C34.4409 60.4625 24.8009 68.1767 15.1626 75.885C14.7276 76.2325 14.2076 77.0075 13.6376 76.255C13.0676 75.5025 13.9351 75.1925 14.3726 74.8425C24.6476 66.5975 34.9276 58.36 45.2126 50.13C46.8876 48.7875 46.9976 48.225 45.9076 46.0925L45.2576 46.7025C43.4751 48.36 41.6726 49.995 39.9176 51.68C39.1977 52.3744 38.2961 52.851 37.3168 53.0548C36.3376 53.2586 35.3207 53.1813 34.3835 52.8318C33.4463 52.4823 32.6271 51.8748 32.0205 51.0796C31.4138 50.2843 31.0445 49.3337 30.9551 48.3375C30.6226 48.5875 30.3351 48.77 30.0626 48.9825L14.8126 60.8025C14.5496 61.0605 14.2496 61.2778 13.9226 61.4475C13.6758 61.5221 13.4108 61.5088 13.1726 61.41V82.8125H28.8126C28.7545 82.6839 28.7269 82.5437 28.7321 82.4027C28.7373 82.2617 28.7751 82.1239 28.8426 82Z" fill="#FFCEBF"/>
<path d="M71.0925 14.0575C70.6675 15.45 70.255 16.845 69.8825 18.2525C69.5384 19.2471 69.5785 20.3345 69.9947 21.3011C70.411 22.2678 71.1735 23.044 72.1325 23.4775C75.066 25.0195 78.3717 25.7121 81.6775 25.4775V14.295C81.6408 14.0498 81.6544 13.7997 81.7175 13.56C81.7875 13.4244 81.8759 13.299 81.98 13.1875H71.0825C71.25 13.3825 71.1925 13.725 71.0925 14.0575Z" fill="#FF6196"/>
<path d="M49.205 38.08C49.1531 39.3282 48.7165 40.5298 47.955 41.52C45.2325 45.0344 42.106 48.2163 38.64 51C38.081 51.5174 37.3726 51.8445 36.6162 51.9343C35.8599 52.0241 35.0946 51.8721 34.43 51.5C33.7685 51.2174 33.2108 50.7369 32.8334 50.1245C32.456 49.5122 32.2775 48.7979 32.3225 48.08C32.4025 47.1983 32.7686 46.3669 33.365 45.7125C37.2408 42.0168 41.4401 38.6759 45.9125 35.73C46.2054 35.5003 46.5631 35.3686 46.935 35.3533C47.3069 35.338 47.6742 35.4401 47.985 35.645C48.3934 35.8986 48.7236 36.2604 48.9389 36.6902C49.1543 37.12 49.2464 37.6011 49.205 38.08Z" fill="#FF87AF"/>
<path d="M46.2101 53.2325C46.152 52.6799 46.223 52.1214 46.4173 51.6008C46.6117 51.0803 46.9241 50.6119 47.3301 50.2325C51.125 46.7323 55.1966 43.5444 59.5051 40.7C59.6351 40.6175 59.7551 40.535 59.8976 40.45C60.2739 40.1783 60.7299 40.0395 61.1938 40.0553C61.6577 40.0712 62.1031 40.2408 62.4601 40.5375C62.8054 40.8301 63.0498 41.224 63.1584 41.6634C63.267 42.1028 63.2344 42.5653 63.0651 42.985C62.52 44.8005 61.514 46.4439 60.1451 47.755C57.3826 50.505 54.5151 53.165 51.6451 55.805C51.2105 56.252 50.6395 56.5417 50.0222 56.6286C49.4049 56.7155 48.7762 56.5946 48.2351 56.285C47.6665 55.9896 47.1823 55.5544 46.8281 55.0205C46.4739 54.4865 46.2612 53.8713 46.2101 53.2325Z" fill="#FF87AF"/>
<path d="M64.2499 54.885C63.5499 55.635 62.8299 56.35 62.1574 57.1175C61.9552 57.4142 61.7874 57.7329 61.6574 58.0675C62.0274 58.1775 62.4599 58.4675 62.7599 58.365C64.2874 57.8525 65.7774 57.2375 67.4549 56.59C67.0899 57.43 66.8149 58.205 66.4274 58.915C64.831 61.5979 62.8318 64.0195 60.4999 66.095C59.6132 66.95 58.6924 67.7675 57.7374 68.5475C57.2316 68.9672 56.6235 69.245 55.9752 69.3526C55.3268 69.4601 54.6615 69.3935 54.0474 69.1595C53.4332 68.9256 52.8923 68.5327 52.4798 68.021C52.0673 67.5094 51.7982 66.8973 51.6999 66.2475C51.6598 65.8862 51.6917 65.5206 51.7939 65.1717C51.896 64.8228 52.0663 64.4977 52.2949 64.215C55.6969 60.5207 59.585 57.3054 63.8524 54.6575C63.9043 54.6374 63.9592 54.6264 64.0149 54.625L64.2499 54.885Z" fill="#FF87AF"/>
<path d="M69.9849 44.9275L74.2624 25.9275L77.2624 26.63L75.7149 31.3325C74.2699 35.7075 72.8074 40.0825 71.3974 44.4625C71.1224 45.2725 70.7624 45.4225 69.9849 44.9275Z" fill="#FF6196"/>
<path d="M65.155 56.1025C65.6075 54.375 66.0575 52.7775 66.4375 51.1625C66.8079 49.5963 67.5123 48.1286 68.5025 46.86C69.11 46.0625 69.7925 46.38 70.49 46.5525C71.135 46.71 71.2975 47.1825 71.325 47.8025C71.4267 49.517 70.9046 51.2104 69.855 52.57C68.6055 54.119 66.9904 55.3329 65.155 56.1025Z" fill="#FF6196"/>
<path d="M82.9826 15.235C83.0199 14.6782 83.0057 14.1192 82.9401 13.565C82.8885 13.4102 82.7863 13.2772 82.6501 13.1875C82.5391 13.0973 82.4092 13.0332 82.2701 13C82.1901 12.985 82.0776 13.0675 81.9701 13.185C81.8659 13.2965 81.7776 13.4219 81.7076 13.5575C81.6445 13.7972 81.6309 14.0473 81.6676 14.2925V25.4725C78.3618 25.7071 75.0561 25.0145 72.1226 23.4725C71.1635 23.039 70.4011 22.2628 69.9848 21.2961C69.5685 20.3294 69.5285 19.2421 69.8726 18.2475C70.2451 16.84 70.6576 15.445 71.0826 14.0525C71.1826 13.72 71.2401 13.3775 71.0826 13.1825C70.995 13.0876 70.874 13.0302 70.7451 13.0225C70.5799 13.0243 70.42 13.0805 70.2901 13.1825C70.1031 13.2943 69.9542 13.4598 69.8626 13.6575C69.3626 15.1575 68.9226 16.6725 68.5401 18.2025C68.3957 18.8054 68.3568 19.4288 68.4251 20.045C68.5218 21.1599 68.9365 22.2237 69.6198 23.11C70.3031 23.9963 71.2264 24.6678 72.2801 25.045C72.7526 25.2425 73.0301 25.4375 72.8976 26.06C72.7151 26.85 72.5376 27.64 72.3576 28.4325C71.1326 33.8025 69.9143 39.175 68.7026 44.55C68.6684 44.7896 68.563 45.0135 68.4001 45.1925C67.6015 45.8272 66.9305 46.6077 66.4226 47.4925C65.7754 48.6601 65.3276 49.9275 65.0976 51.2425C65.0534 51.6619 64.9019 52.0629 64.6575 52.4067C64.4131 52.7505 64.0842 53.0254 63.7026 53.205C62.6601 53.7325 61.7026 54.415 60.5451 55.125C60.6223 53.733 60.6072 52.3374 60.5001 50.9475C60.412 50.5199 60.4307 50.0772 60.5545 49.6585C60.6784 49.2399 60.9036 48.8583 61.2101 48.5475C62.7348 47.0369 63.8217 45.1414 64.3551 43.0625C64.5144 42.5806 64.5581 42.0679 64.4826 41.566C64.4071 41.0641 64.2146 40.587 63.9206 40.1732C63.6266 39.7595 63.2394 39.4207 62.7902 39.1843C62.3411 38.9479 61.8426 38.8205 61.3351 38.8125C60.5134 38.8033 59.7067 39.0326 59.0126 39.4725C56.6201 41.0875 54.2926 42.8025 51.9826 44.5375C50.6151 45.5675 49.3276 46.7075 48.0026 47.7875C47.9455 47.7261 47.896 47.6581 47.8551 47.585C47.8298 47.4009 47.7802 47.221 47.7076 47.05C46.6001 45.34 47.3676 44.0975 48.5701 42.82C49.8229 41.5067 50.5151 39.7573 50.5001 37.9425C50.5389 37.0178 50.2494 36.1092 49.6826 35.3775C49.3807 35.0061 49.0086 34.6977 48.5876 34.47C47.9896 34.1427 47.3058 34.0061 46.6279 34.0784C45.95 34.1508 45.3105 34.4288 44.7951 34.875L44.0976 35.375C42.5051 36.515 40.8926 37.625 39.3601 38.845C37.1226 40.625 34.9376 42.48 32.7951 44.38C31.7951 45.2625 31.0651 46.4675 30.0276 47.2875C24.6176 51.56 19.1501 55.755 13.7026 59.9775C13.5153 60.0892 13.3431 60.2245 13.1901 60.3799C13.1744 60.4027 13.161 60.427 13.1501 60.4525C13.0351 60.72 12.9376 61.1624 13.0726 61.3249C13.1057 61.3602 13.1457 61.3883 13.1901 61.4075C13.4283 61.5063 13.6933 61.5195 13.9401 61.4449C14.2671 61.2753 14.5671 61.0579 14.8301 60.8L30.0801 48.98C30.3526 48.7675 30.6401 48.575 30.9726 48.335C31.062 49.3312 31.4313 50.2818 32.038 51.077C32.6446 51.8723 33.4638 52.4798 34.401 52.8293C35.3382 53.1788 36.3551 53.2561 37.3343 53.0523C38.3136 52.8485 39.2152 52.3719 39.9351 51.6775C41.6851 49.9925 43.4926 48.3575 45.2751 46.7L45.9251 46.09C47.0151 48.2225 46.9051 48.785 45.2301 50.1275C34.9368 58.3641 24.6509 66.6024 14.3726 74.8424C13.9351 75.1924 13.0701 75.5099 13.6376 76.2549C14.2051 76.9999 14.7276 76.2324 15.1626 75.8849C24.8059 68.1833 34.4426 60.4716 44.0726 52.75C44.3226 52.55 44.5851 52.3725 44.9476 52.1075C44.9476 52.495 44.9476 52.705 44.9476 52.9175C44.8986 53.8534 45.1292 54.7827 45.61 55.5872C46.0908 56.3916 46.8001 57.0349 47.6476 57.435C48.4783 57.857 49.4215 58.0047 50.3415 57.8569C51.2614 57.7091 52.1109 57.2734 52.7676 56.6125C54.7501 54.8625 56.7126 53.0775 58.6851 51.3125C58.8101 51.2 58.9551 51.115 59.1851 50.94C59.4673 52.6583 59.4121 54.4152 59.0226 56.1125C58.9265 56.3381 58.7688 56.5322 58.5676 56.6725C56.9376 58.0808 55.3018 59.4833 53.6601 60.8799L29.5801 81.3199C29.2982 81.508 29.049 81.7411 28.8426 82.0099C28.7767 82.1325 28.7398 82.2686 28.7346 82.4077C28.7294 82.5468 28.7561 82.6852 28.8126 82.8124C28.9256 82.8971 29.0561 82.9552 29.1946 82.9824C29.3331 83.0097 29.476 83.0054 29.6126 82.9699C29.7204 82.9386 29.8196 82.883 29.9026 82.8074C30.0276 82.7074 30.1526 82.5799 30.2651 82.4774L47.6726 67.7274C48.5101 67.0174 49.3551 66.3174 50.2376 65.5774C50.2823 65.6963 50.3182 65.8183 50.3451 65.9424C50.395 66.9074 50.7273 67.8364 51.3006 68.6142C51.874 69.392 52.6631 69.9842 53.5701 70.3174C54.4661 70.7067 55.459 70.8149 56.4178 70.6279C57.3766 70.4409 58.2561 69.9674 58.9401 69.2699C60.1001 68.2124 61.2451 67.1374 62.3951 66.0674C63.1451 65.3799 63.8701 64.6899 64.6601 63.9474C64.8073 64.4606 64.9266 64.9814 65.0176 65.5074C65.1325 66.7319 64.9636 67.9663 64.5239 69.1149C64.0843 70.2635 63.3857 71.2952 62.4826 72.1299C59.5851 75.2499 56.6226 78.3024 53.6851 81.3799C53.4926 81.5799 53.2276 81.7449 53.1226 81.9824C53.0176 82.2199 52.9501 82.6849 53.0751 82.7849L53.1101 82.8074C53.3722 82.9349 53.667 82.9794 53.9551 82.9349C54.0358 82.9184 54.1078 82.8731 54.1576 82.8074C54.2276 82.7349 54.2951 82.6449 54.3626 82.5774C56.7426 80.1174 59.1351 77.6699 61.4976 75.1924C62.4512 74.2263 63.3477 73.2054 64.1826 72.1349C65.2712 70.9298 65.9931 69.4388 66.2632 67.8373C66.5334 66.2359 66.3406 64.5906 65.7076 63.0949C65.6395 62.7615 65.706 62.4146 65.8926 62.1299C66.0551 61.8499 66.2351 61.5774 66.4201 61.3074C67.012 60.5389 67.5051 59.699 67.8876 58.8075C68.6268 56.6194 69.7614 54.5857 71.2351 52.8075C71.9126 51.9485 72.3787 50.9424 72.5958 49.8702C72.8129 48.798 72.775 47.6898 72.4851 46.635C72.3826 46.2339 72.3826 45.8135 72.4851 45.4125C73.7501 41.495 75.0526 37.59 76.3426 33.6825C76.9209 31.9325 77.4959 30.1875 78.0676 28.4475L78.6001 26.83C79.7351 26.83 80.8051 26.8075 81.8701 26.83C82.7551 26.855 83.0251 26.44 83.0151 25.58C82.9626 22.13 82.9826 18.6825 82.9826 15.235ZM38.6401 51C38.0812 51.5174 37.3727 51.8444 36.6164 51.9342C35.86 52.0241 35.0947 51.872 34.4301 51.5C33.7686 51.2174 33.2109 50.7368 32.8335 50.1245C32.4562 49.5121 32.2777 48.7979 32.3226 48.08C32.4027 47.1982 32.7688 46.3669 33.3651 45.7125C37.2409 42.0167 41.4402 38.6759 45.9126 35.73C46.1567 35.5574 46.4344 35.4382 46.7276 35.38C46.9243 35.3437 47.1259 35.3437 47.3226 35.38C47.5581 35.4258 47.7829 35.5158 47.9851 35.645C48.3939 35.8988 48.7244 36.2609 48.9397 36.6912C49.1551 37.1215 49.247 37.6031 49.2051 38.0825C49.1533 39.3306 48.7166 40.5322 47.9551 41.5225C45.2325 45.036 42.106 48.217 38.6401 51ZM51.6401 55.8225C51.2055 56.2694 50.6346 56.5591 50.0172 56.646C49.3999 56.7329 48.7712 56.612 48.2301 56.3025C47.6605 56.0063 47.1757 55.57 46.8214 55.0346C46.4671 54.4993 46.255 53.8825 46.2051 53.2425C46.1471 52.6898 46.218 52.1313 46.4123 51.6108C46.6067 51.0902 46.9191 50.6218 47.3251 50.2425C51.1201 46.7422 55.1916 43.5544 59.5001 40.71C59.6301 40.6275 59.7501 40.545 59.8926 40.46C60.2689 40.1883 60.7249 40.0494 61.1888 40.0653C61.6527 40.0811 62.0982 40.2507 62.4551 40.5475C62.8004 40.84 63.0448 41.234 63.1534 41.6734C63.262 42.1128 63.2294 42.5752 63.0601 42.995C62.515 44.8104 61.509 46.4538 60.1401 47.765C57.3826 50.52 54.5151 53.1725 51.6451 55.8125L51.6401 55.8225ZM66.4176 58.925C64.8234 61.6035 62.8277 64.0217 60.5001 66.0949C59.6134 66.9499 58.6926 67.7674 57.7376 68.5474C57.2319 68.9671 56.6237 69.245 55.9754 69.3525C55.327 69.46 54.6618 69.3934 54.0476 69.1594C53.4335 68.9255 52.8925 68.5326 52.48 68.0209C52.0676 67.5093 51.7984 66.8972 51.7001 66.2474C51.66 65.8861 51.692 65.5205 51.7941 65.1716C51.8962 64.8228 52.0665 64.4976 52.2951 64.2149C55.6971 60.5206 59.5852 57.3054 63.8526 54.6575C63.9045 54.6373 63.9595 54.6263 64.0151 54.625L64.2651 54.875C63.5651 55.625 62.8451 56.34 62.1726 57.1075C61.9704 57.4041 61.8026 57.7228 61.6726 58.0575C62.0426 58.1675 62.4751 58.4575 62.7751 58.355C63.9826 57.95 65.1701 57.4799 66.4426 56.9799L67.4701 56.58C67.0851 57.4299 66.8101 58.2049 66.4226 58.9149L66.4176 58.925ZM69.8501 52.5875C68.9176 53.7746 67.7487 54.7553 66.4176 55.4675C66.0059 55.6975 65.5834 55.9125 65.1501 56.1125C65.5951 54.41 66.0401 52.8325 66.4176 51.2375L66.4326 51.1725C66.8029 49.6063 67.5073 48.1386 68.4976 46.87C69.1051 46.0725 69.7876 46.39 70.4851 46.5625C71.1301 46.72 71.2926 47.1925 71.3201 47.8125C71.4226 49.5255 70.9023 51.2179 69.8551 52.5775L69.8501 52.5875ZM75.7001 31.3375C74.2551 35.7125 72.7926 40.0875 71.3826 44.4675C71.1176 45.29 70.7576 45.44 69.9801 44.945L73.6876 28.4625L74.2576 25.9325L77.2576 26.635C77.0526 27.2525 76.8551 27.86 76.6551 28.4625L75.7001 31.3375Z" fill="black"/>
</svg>
