<svg width="96" height="96" viewBox="0 0 96 96" fill="none" xmlns="http://www.w3.org/2000/svg">
<g filter="url(#filter0_i_586_970)">
<rect width="96" height="96" rx="8" fill="url(#paint0_linear_586_970)"/>
</g>
<path d="M53.125 82C53.23 81.7625 53.495 81.5975 53.6875 81.3975C56.625 78.3175 59.5875 75.265 62.485 72.1475C63.3917 71.3101 64.0923 70.2743 64.5321 69.121C64.9719 67.9678 65.1389 66.7285 65.02 65.5C64.929 64.9739 64.8097 64.4531 64.6625 63.94C63.8725 64.69 63.1375 65.3725 62.3975 66.06C61.2475 67.13 60.1025 68.205 58.9425 69.2625C58.2585 69.9599 57.379 70.4334 56.4202 70.6204C55.4614 70.8074 54.4685 70.6992 53.5725 70.31C52.6655 69.9768 51.8764 69.3845 51.303 68.6068C50.7297 67.829 50.3975 66.8999 50.3475 65.935C50.3206 65.8108 50.2847 65.6889 50.24 65.57C49.3575 66.32 48.5125 67.01 47.675 67.72L30.2675 82.47C30.1475 82.5725 30.0175 82.7 29.905 82.8H53.1125L53.0775 82.7775C52.9525 82.69 53.0175 82.23 53.125 82Z" fill="#FFCEBF"/>
<path d="M28.8425 82C29.0489 81.7312 29.2981 81.4981 29.58 81.31L53.67 60.8725C55.3133 59.4775 56.9492 58.075 58.5775 56.665C58.7787 56.5247 58.9363 56.3307 59.0325 56.105C59.422 54.4077 59.4772 52.6509 59.195 50.9325C58.945 51.1075 58.81 51.1825 58.695 51.305C56.7225 53.07 54.76 54.85 52.7775 56.605C52.1207 57.266 51.2713 57.7017 50.3513 57.8495C49.4314 57.9973 48.4882 57.8495 47.6575 57.4275C46.81 57.0274 46.1007 56.3842 45.6199 55.5797C45.139 54.7753 44.9085 53.8459 44.9575 52.91C44.9575 52.6975 44.9575 52.4875 44.9575 52.1C44.595 52.365 44.33 52.5425 44.0825 52.7425C34.4408 60.4625 24.8008 68.1767 15.1625 75.885C14.7275 76.2325 14.2075 77.0075 13.6375 76.255C13.0675 75.5025 13.935 75.1925 14.3725 74.8425C24.6475 66.5975 34.9275 58.36 45.2125 50.13C46.8875 48.7875 46.9975 48.225 45.9075 46.0925L45.2575 46.7025C43.475 48.36 41.6725 49.995 39.9175 51.68C39.1976 52.3744 38.296 52.851 37.3167 53.0548C36.3375 53.2586 35.3206 53.1813 34.3834 52.8318C33.4462 52.4823 32.627 51.8749 32.0204 51.0796C31.4137 50.2843 31.0444 49.3337 30.955 48.3375C30.6225 48.5875 30.335 48.77 30.0625 48.9825L14.8125 60.8025C14.5495 61.0605 14.2495 61.2778 13.9225 61.4475C13.6757 61.5221 13.4106 61.5088 13.1725 61.41V82.8125H28.8125C28.7543 82.684 28.7268 82.5437 28.732 82.4027C28.7372 82.2617 28.775 82.1239 28.8425 82Z" fill="#FFCEBF"/>
<path d="M71.0925 14.0575C70.6675 15.45 70.255 16.845 69.8825 18.2525C69.5384 19.2471 69.5785 20.3345 69.9947 21.3011C70.411 22.2678 71.1735 23.044 72.1325 23.4775C75.066 25.0195 78.3717 25.7121 81.6775 25.4775V14.295C81.6408 14.0498 81.6544 13.7997 81.7175 13.56C81.7875 13.4244 81.8759 13.299 81.98 13.1875H71.0825C71.25 13.3825 71.1925 13.725 71.0925 14.0575Z" fill="#FF6196"/>
<path d="M49.205 38.08C49.1531 39.3282 48.7165 40.5297 47.955 41.52C45.2325 45.0344 42.106 48.2163 38.64 51C38.081 51.5174 37.3726 51.8445 36.6162 51.9343C35.8599 52.0241 35.0946 51.8721 34.43 51.5C33.7685 51.2174 33.2108 50.7369 32.8334 50.1245C32.456 49.5121 32.2775 48.7979 32.3225 48.08C32.4025 47.1983 32.7686 46.3669 33.365 45.7125C37.2408 42.0168 41.4401 38.6759 45.9125 35.73C46.2054 35.5003 46.5631 35.3685 46.935 35.3533C47.3069 35.338 47.6742 35.4401 47.985 35.645C48.3934 35.8986 48.7236 36.2604 48.9389 36.6902C49.1543 37.12 49.2464 37.6011 49.205 38.08Z" fill="#FF87AF"/>
<path d="M46.21 53.2325C46.1519 52.6799 46.2229 52.1214 46.4172 51.6008C46.6115 51.0803 46.924 50.6119 47.33 50.2325C51.1249 46.7323 55.1965 43.5444 59.505 40.7C59.635 40.6175 59.755 40.535 59.8975 40.45C60.2738 40.1783 60.7298 40.0395 61.1937 40.0553C61.6576 40.0712 62.103 40.2408 62.46 40.5375C62.8053 40.8301 63.0497 41.224 63.1583 41.6634C63.2669 42.1028 63.2342 42.5653 63.065 42.985C62.5199 44.8005 61.5139 46.4439 60.145 47.755C57.3825 50.505 54.515 53.165 51.645 55.805C51.2103 56.252 50.6394 56.5417 50.0221 56.6286C49.4048 56.7155 48.7761 56.5946 48.235 56.285C47.6664 55.9896 47.1822 55.5544 46.828 55.0205C46.4738 54.4865 46.2611 53.8713 46.21 53.2325Z" fill="#FF87AF"/>
<path d="M64.25 54.885C63.55 55.635 62.83 56.35 62.1575 57.1175C61.9553 57.4142 61.7875 57.7329 61.6575 58.0675C62.0275 58.1775 62.46 58.4675 62.76 58.365C64.2875 57.8525 65.7775 57.2375 67.455 56.59C67.09 57.43 66.815 58.205 66.4275 58.915C64.8311 61.5979 62.832 64.0195 60.5 66.095C59.6133 66.95 58.6925 67.7675 57.7375 68.5475C57.2318 68.9672 56.6236 69.245 55.9753 69.3526C55.3269 69.4601 54.6617 69.3935 54.0475 69.1595C53.4334 68.9256 52.8924 68.5327 52.4799 68.021C52.0675 67.5094 51.7983 66.8973 51.7 66.2475C51.6599 65.8862 51.6919 65.5206 51.794 65.1717C51.8961 64.8228 52.0664 64.4977 52.295 64.215C55.6971 60.5207 59.5851 57.3054 63.8525 54.6575C63.9044 54.6374 63.9594 54.6264 64.015 54.625L64.25 54.885Z" fill="#FF87AF"/>
<path d="M69.9849 44.9275L74.2624 25.9275L77.2624 26.63L75.7149 31.3325C74.2699 35.7075 72.8074 40.0825 71.3974 44.4625C71.1224 45.2725 70.7624 45.4225 69.9849 44.9275Z" fill="#FF6196"/>
<path d="M65.155 56.1025C65.6075 54.375 66.0575 52.7775 66.4375 51.1625C66.8079 49.5963 67.5123 48.1286 68.5025 46.86C69.11 46.0625 69.7925 46.38 70.49 46.5525C71.135 46.71 71.2975 47.1825 71.325 47.8025C71.4267 49.517 70.9046 51.2104 69.855 52.57C68.6055 54.119 66.9904 55.3329 65.155 56.1025Z" fill="#FF6196"/>
<path d="M82.9825 15.235C83.0198 14.6782 83.0055 14.1192 82.94 13.565C82.8884 13.4102 82.7862 13.2773 82.65 13.1875C82.539 13.0973 82.4091 13.0332 82.27 13C82.19 12.985 82.0775 13.0675 81.97 13.185C81.8658 13.2966 81.7775 13.4219 81.7075 13.5575C81.6443 13.7972 81.6307 14.0473 81.6675 14.2925V25.4725C78.3617 25.7071 75.056 25.0145 72.1225 23.4725C71.1634 23.039 70.4009 22.2628 69.9847 21.2961C69.5684 20.3295 69.5284 19.2421 69.8725 18.2475C70.245 16.84 70.6575 15.445 71.0825 14.0525C71.1825 13.72 71.24 13.3775 71.0825 13.1825C70.9949 13.0876 70.8739 13.0302 70.745 13.0225C70.5798 13.0243 70.4199 13.0805 70.29 13.1825C70.103 13.2943 69.954 13.4598 69.8625 13.6575C69.3625 15.1575 68.9225 16.6725 68.54 18.2025C68.3956 18.8054 68.3567 19.4288 68.425 20.045C68.5217 21.1599 68.9363 22.2237 69.6197 23.11C70.303 23.9963 71.2263 24.6678 72.28 25.045C72.7525 25.2425 73.03 25.4375 72.8975 26.06C72.715 26.85 72.5375 27.64 72.3575 28.4325C71.1325 33.8025 69.9141 39.175 68.7025 44.55C68.6683 44.7896 68.5629 45.0135 68.4 45.1925C67.6013 45.8273 66.9303 46.6077 66.4225 47.4925C65.7753 48.6601 65.3275 49.9275 65.0975 51.2425C65.0533 51.6619 64.9017 52.0629 64.6574 52.4067C64.413 52.7505 64.0841 53.0254 63.7025 53.205C62.66 53.7325 61.7025 54.415 60.545 55.125C60.6221 53.733 60.6071 52.3375 60.5 50.9475C60.4119 50.5199 60.4306 50.0772 60.5544 49.6586C60.6783 49.2399 60.9034 48.8583 61.21 48.5475C62.7347 47.037 63.8216 45.1414 64.355 43.0625C64.5143 42.5806 64.558 42.0679 64.4825 41.566C64.407 41.0641 64.2145 40.587 63.9205 40.1732C63.6265 39.7595 63.2393 39.4207 62.7901 39.1843C62.3409 38.9479 61.8425 38.8206 61.335 38.8125C60.5133 38.8033 59.7066 39.0326 59.0125 39.4725C56.62 41.0875 54.2925 42.8025 51.9825 44.5375C50.615 45.5675 49.3275 46.7075 48.0025 47.7875C47.9454 47.7261 47.8958 47.6581 47.855 47.585C47.8296 47.4009 47.78 47.221 47.7075 47.05C46.6 45.34 47.3675 44.0975 48.57 42.82C49.8228 41.5068 50.515 39.7574 50.5 37.9425C50.5388 37.0178 50.2492 36.1092 49.6825 35.3775C49.3806 35.0061 49.0085 34.6977 48.5875 34.47C47.9895 34.1427 47.3057 34.0061 46.6278 34.0785C45.9499 34.1508 45.3104 34.4288 44.795 34.875L44.0975 35.375C42.505 36.515 40.8925 37.625 39.36 38.845C37.1225 40.625 34.9375 42.48 32.795 44.38C31.795 45.2625 31.065 46.4675 30.0275 47.2875C24.6175 51.56 19.15 55.755 13.7025 59.9775C13.5152 60.0892 13.3429 60.2245 13.19 60.38C13.1742 60.4027 13.1608 60.427 13.15 60.4525C13.035 60.72 12.9375 61.1625 13.0725 61.325C13.1056 61.3602 13.1456 61.3883 13.19 61.4075C13.4281 61.5063 13.6932 61.5196 13.94 61.445C14.267 61.2753 14.567 61.0579 14.83 60.8L30.08 48.98C30.3525 48.7675 30.64 48.575 30.9725 48.335C31.0619 49.3312 31.4312 50.2818 32.0379 51.0771C32.6445 51.8723 33.4637 52.4798 34.4009 52.8293C35.3381 53.1788 36.355 53.2561 37.3342 53.0523C38.3135 52.8485 39.2151 52.3719 39.935 51.6775C41.685 49.9925 43.4925 48.3575 45.275 46.7L45.925 46.09C47.015 48.2225 46.905 48.785 45.23 50.1275C34.9366 58.3641 24.6508 66.6025 14.3725 74.8424C13.935 75.1925 13.07 75.51 13.6375 76.255C14.205 76.9999 14.7275 76.2324 15.1625 75.8849C24.8058 68.1833 34.4425 60.4716 44.0725 52.75C44.3225 52.55 44.585 52.3725 44.9475 52.1075C44.9475 52.495 44.9475 52.705 44.9475 52.9175C44.8985 53.8534 45.129 54.7827 45.6099 55.5872C46.0907 56.3917 46.8 57.0349 47.6475 57.435C48.4782 57.857 49.4213 58.0047 50.3413 57.857C51.2613 57.7092 52.1107 57.2735 52.7675 56.6125C54.75 54.8625 56.7125 53.0775 58.685 51.3125C58.81 51.2 58.955 51.115 59.185 50.94C59.4672 52.6583 59.412 54.4152 59.0225 56.1125C58.9263 56.3381 58.7687 56.5322 58.5675 56.6725C56.9375 58.0808 55.3016 59.4833 53.66 60.88L29.58 81.3199C29.2981 81.508 29.0489 81.7411 28.8425 82.0099C28.7766 82.1326 28.7397 82.2686 28.7345 82.4077C28.7293 82.5468 28.7559 82.6852 28.8125 82.8124C28.9254 82.8971 29.056 82.9552 29.1945 82.9825C29.333 83.0097 29.4759 83.0054 29.6125 82.9699C29.7203 82.9386 29.8195 82.883 29.9025 82.8074C30.0275 82.7074 30.1525 82.5799 30.265 82.4774L47.6725 67.7275C48.51 67.0175 49.355 66.3175 50.2375 65.5775C50.2822 65.6963 50.3181 65.8183 50.345 65.9425C50.3949 66.9074 50.7272 67.8365 51.3005 68.6142C51.8738 69.392 52.663 69.9843 53.57 70.3175C54.4659 70.7067 55.4589 70.8149 56.4177 70.6279C57.3765 70.4409 58.256 69.9674 58.94 69.27C60.1 68.2125 61.245 67.1375 62.395 66.0675C63.145 65.38 63.87 64.69 64.66 63.9475C64.8072 64.4606 64.9265 64.9814 65.0175 65.5075C65.1324 66.7319 64.9635 67.9664 64.5238 69.1149C64.0842 70.2635 63.3856 71.2952 62.4825 72.13C59.585 75.25 56.6225 78.3024 53.685 81.3799C53.4925 81.5799 53.2275 81.7449 53.1225 81.9824C53.0175 82.2199 52.95 82.6849 53.075 82.7849L53.11 82.8074C53.3721 82.9349 53.6669 82.9794 53.955 82.9349C54.0357 82.9184 54.1077 82.8731 54.1575 82.8074C54.2275 82.7349 54.295 82.6449 54.3625 82.5774C56.7425 80.1174 59.135 77.67 61.4975 75.1925C62.4511 74.2263 63.3476 73.2054 64.1825 72.135C65.2711 70.9298 65.993 69.4388 66.2631 67.8373C66.5333 66.2359 66.3405 64.5906 65.7075 63.095C65.6394 62.7615 65.7059 62.4146 65.8925 62.13C66.055 61.85 66.235 61.5775 66.42 61.3075C67.0119 60.5389 67.5049 59.699 67.8875 58.8075C68.6267 56.6194 69.7613 54.5857 71.235 52.8075C71.9124 51.9485 72.3785 50.9424 72.5957 49.8702C72.8128 48.798 72.7749 47.6898 72.485 46.635C72.3825 46.2339 72.3825 45.8135 72.485 45.4125C73.75 41.495 75.0525 37.59 76.3425 33.6825C76.9208 31.9325 77.4958 30.1875 78.0675 28.4475L78.6 26.83C79.735 26.83 80.805 26.8075 81.87 26.83C82.755 26.855 83.025 26.44 83.015 25.58C82.9625 22.13 82.9825 18.6825 82.9825 15.235ZM38.64 51C38.081 51.5174 37.3726 51.8444 36.6162 51.9343C35.8599 52.0241 35.0946 51.8721 34.43 51.5C33.7685 51.2174 33.2108 50.7369 32.8334 50.1245C32.456 49.5121 32.2776 48.7979 32.3225 48.08C32.4025 47.1982 32.7686 46.3669 33.365 45.7125C37.2408 42.0168 41.4401 38.6759 45.9125 35.73C46.1566 35.5574 46.4343 35.4382 46.7275 35.38C46.9241 35.3437 47.1258 35.3437 47.3225 35.38C47.558 35.4259 47.7828 35.5158 47.985 35.645C48.3938 35.8988 48.7242 36.2609 48.9396 36.6912C49.155 37.1215 49.2468 37.6031 49.205 38.0825C49.1531 39.3306 48.7165 40.5322 47.955 41.5225C45.2324 45.036 42.1059 48.217 38.64 51ZM51.64 55.8225C51.2054 56.2694 50.6344 56.5591 50.0171 56.646C49.3998 56.7329 48.7711 56.6121 48.23 56.3025C47.6604 56.0063 47.1756 55.57 46.8213 55.0347C46.467 54.4993 46.2549 53.8825 46.205 53.2425C46.1469 52.6899 46.2179 52.1313 46.4122 51.6108C46.6066 51.0902 46.919 50.6218 47.325 50.2425C51.1199 46.7422 55.1915 43.5544 59.5 40.71C59.63 40.6275 59.75 40.545 59.8925 40.46C60.2688 40.1883 60.7248 40.0494 61.1887 40.0653C61.6526 40.0811 62.098 40.2508 62.455 40.5475C62.8003 40.84 63.0447 41.234 63.1533 41.6734C63.2619 42.1128 63.2293 42.5752 63.06 42.995C62.5149 44.8105 61.5089 46.4538 60.14 47.765C57.3825 50.52 54.515 53.1725 51.645 55.8125L51.64 55.8225ZM66.4175 58.925C64.8233 61.6036 62.8276 64.0217 60.5 66.095C59.6133 66.95 58.6925 67.7675 57.7375 68.5475C57.2317 68.9672 56.6236 69.245 55.9753 69.3525C55.3269 69.46 54.6616 69.3934 54.0475 69.1594C53.4333 68.9255 52.8924 68.5326 52.4799 68.0209C52.0674 67.5093 51.7983 66.8973 51.7 66.2475C51.6599 65.8862 51.6918 65.5205 51.794 65.1716C51.8961 64.8228 52.0664 64.4976 52.295 64.215C55.697 60.5206 59.5851 57.3054 63.8525 54.6575C63.9044 54.6373 63.9593 54.6264 64.015 54.625L64.265 54.875C63.565 55.625 62.845 56.34 62.1725 57.1075C61.9703 57.4041 61.8025 57.7228 61.6725 58.0575C62.0425 58.1675 62.475 58.4575 62.775 58.355C63.9825 57.95 65.17 57.48 66.4425 56.98L67.47 56.58C67.085 57.43 66.81 58.205 66.4225 58.915L66.4175 58.925ZM69.85 52.5875C68.9174 53.7747 67.7486 54.7553 66.4175 55.4675C66.0058 55.6975 65.5833 55.9125 65.15 56.1125C65.595 54.41 66.04 52.8325 66.4175 51.2375L66.4325 51.1725C66.8028 49.6063 67.5072 48.1386 68.4975 46.87C69.105 46.0725 69.7875 46.39 70.485 46.5625C71.13 46.72 71.2925 47.1925 71.32 47.8125C71.4225 49.5255 70.9022 51.2179 69.855 52.5775L69.85 52.5875ZM75.7 31.3375C74.255 35.7125 72.7925 40.0875 71.3825 44.4675C71.1175 45.29 70.7575 45.44 69.98 44.945L73.6875 28.4625L74.2575 25.9325L77.2575 26.635C77.0525 27.2525 76.855 27.86 76.655 28.4625L75.7 31.3375Z" fill="black"/>
<defs>
<filter id="filter0_i_586_970" x="-4" y="-4" width="100" height="100" filterUnits="userSpaceOnUse" color-interpolation-filters="sRGB">
<feFlood flood-opacity="0" result="BackgroundImageFix"/>
<feBlend mode="normal" in="SourceGraphic" in2="BackgroundImageFix" result="shape"/>
<feColorMatrix in="SourceAlpha" type="matrix" values="0 0 0 0 0 0 0 0 0 0 0 0 0 0 0 0 0 0 127 0" result="hardAlpha"/>
<feOffset dx="-4" dy="-4"/>
<feGaussianBlur stdDeviation="2"/>
<feComposite in2="hardAlpha" operator="arithmetic" k2="-1" k3="1"/>
<feColorMatrix type="matrix" values="0 0 0 0 0 0 0 0 0 0 0 0 0 0 0 0 0 0 0.25 0"/>
<feBlend mode="normal" in2="shape" result="effect1_innerShadow_586_970"/>
</filter>
<linearGradient id="paint0_linear_586_970" x1="4.5" y1="2.28407e-06" x2="96" y2="96" gradientUnits="userSpaceOnUse">
<stop offset="0.204511" stop-color="#3D3D3E"/>
<stop offset="1" stop-color="#6A6A71"/>
</linearGradient>
</defs>
</svg>
