<svg width="96" height="96" viewBox="0 0 96 96" fill="none" xmlns="http://www.w3.org/2000/svg">
<g filter="url(#filter0_i_586_965)">
<rect width="96" height="96" rx="8" fill="url(#paint0_linear_586_965)"/>
</g>
<path d="M48 24C37.3331 24 30.6688 29.3313 28 39.9981C31.9988 34.6663 36.6669 32.6669 41.9988 34C45.0431 34.7588 47.2188 36.9663 49.6281 39.4125C53.5494 43.3919 58.0881 47.9988 68 47.9988C78.6663 47.9988 85.3313 42.6669 88 31.9975C84.0006 37.3325 79.3331 39.3319 74.0006 37.9988C70.9569 37.2394 68.7838 35.0325 66.3713 32.5863C62.4525 28.6069 57.915 24 48 24ZM28 47.9988C17.3337 47.9988 10.6688 53.3306 8 64C11.9987 58.665 16.6663 56.6656 21.9988 57.9988C25.0431 58.7581 27.2188 60.965 29.6281 63.4113C33.5494 67.3906 38.0881 71.9975 48 71.9975C58.6662 71.9975 65.3313 66.6663 68 55.9994C64.0006 61.3313 59.3331 63.3306 54.0006 61.9975C50.9569 61.2388 48.7837 59.0313 46.3713 56.585C42.4525 52.6056 37.915 47.9988 28 47.9988Z" fill="#38BDF8"/>
<defs>
<filter id="filter0_i_586_965" x="-4" y="-4" width="100" height="100" filterUnits="userSpaceOnUse" color-interpolation-filters="sRGB">
<feFlood flood-opacity="0" result="BackgroundImageFix"/>
<feBlend mode="normal" in="SourceGraphic" in2="BackgroundImageFix" result="shape"/>
<feColorMatrix in="SourceAlpha" type="matrix" values="0 0 0 0 0 0 0 0 0 0 0 0 0 0 0 0 0 0 127 0" result="hardAlpha"/>
<feOffset dx="-4" dy="-4"/>
<feGaussianBlur stdDeviation="2"/>
<feComposite in2="hardAlpha" operator="arithmetic" k2="-1" k3="1"/>
<feColorMatrix type="matrix" values="0 0 0 0 0 0 0 0 0 0 0 0 0 0 0 0 0 0 0.25 0"/>
<feBlend mode="normal" in2="shape" result="effect1_innerShadow_586_965"/>
</filter>
<linearGradient id="paint0_linear_586_965" x1="4.5" y1="2.28407e-06" x2="96" y2="96" gradientUnits="userSpaceOnUse">
<stop offset="0.204511" stop-color="#3D3D3E"/>
<stop offset="1" stop-color="#6A6A71"/>
</linearGradient>
</defs>
</svg>
