<svg width="120" height="30" viewBox="0 0 120 30" fill="none" xmlns="http://www.w3.org/2000/svg">
<rect width="120" height="30" fill="#38BDF8"/>
<path d="M30.5025 7C26.953 7 24.7406 8.78884 23.8602 12.3333C25.1923 10.5495 26.7528 9.89253 28.5134 10.3443C29.5195 10.5958 30.251 11.3272 31.0518 12.1563C32.3608 13.4883 33.8699 15.0257 37.1679 15.0257C40.7124 15.0257 42.9248 13.2368 43.8052 9.69232C42.4731 11.4761 40.9126 12.1331 39.1519 11.6814C38.1458 11.4299 37.4194 10.6984 36.6136 9.86939C35.3046 8.53732 33.7955 7 30.5025 7ZM23.8371 14.9743C20.2876 14.9743 18.0752 16.7582 17.1948 20.3067C18.5269 18.5188 20.0874 17.8669 21.848 18.3186C22.8541 18.5701 23.5856 19.3016 24.3864 20.1306C25.6954 21.4627 27.2045 23 30.5025 23C34.047 23 36.2594 21.2112 37.1397 17.6667C35.8077 19.4505 34.2472 20.1075 32.4865 19.6507C31.4804 19.3992 30.754 18.6728 29.9481 17.8437C28.6623 16.5066 27.1532 14.9743 23.8371 14.9743Z" fill="white"/>
<path d="M53.5864 10.4688V19H51.5298V10.4688H53.5864ZM56.1528 10.4688V12.0566H49.022V10.4688H56.1528ZM60.429 17.4062V14.793C60.429 14.6133 60.4036 14.459 60.3528 14.3301C60.3021 14.2012 60.222 14.1016 60.1126 14.0312C60.0032 13.957 59.8567 13.9199 59.6731 13.9199C59.5247 13.9199 59.3978 13.9453 59.2923 13.9961C59.1868 14.0469 59.1067 14.123 59.0521 14.2246C58.9974 14.3262 58.97 14.4551 58.97 14.6113H56.9954C56.9954 14.3184 57.0599 14.0469 57.1888 13.7969C57.3216 13.543 57.5091 13.3223 57.7513 13.1348C57.9974 12.9473 58.2903 12.8027 58.6302 12.7012C58.9739 12.5957 59.3567 12.543 59.7786 12.543C60.2825 12.543 60.7317 12.627 61.1263 12.7949C61.5247 12.9629 61.8392 13.2148 62.0696 13.5508C62.3001 13.8828 62.4153 14.3008 62.4153 14.8047V17.4004C62.4153 17.8145 62.4388 18.1289 62.4856 18.3438C62.5325 18.5547 62.5989 18.7402 62.6849 18.9004V19H60.7044C60.6106 18.8047 60.5403 18.5664 60.4935 18.2852C60.4505 18 60.429 17.707 60.429 17.4062ZM60.6692 15.127L60.681 16.1816H59.8079C59.6243 16.1816 59.4681 16.207 59.3392 16.2578C59.2142 16.3086 59.1126 16.3789 59.0345 16.4688C58.9603 16.5547 58.9056 16.6523 58.8704 16.7617C58.8392 16.8711 58.8235 16.9863 58.8235 17.1074C58.8235 17.2246 58.8509 17.3301 58.9056 17.4238C58.9642 17.5137 59.0423 17.584 59.1399 17.6348C59.2376 17.6855 59.347 17.7109 59.4681 17.7109C59.6868 17.7109 59.8724 17.6699 60.0247 17.5879C60.181 17.502 60.3001 17.3984 60.3821 17.2773C60.4642 17.1562 60.5052 17.043 60.5052 16.9375L60.9388 17.7461C60.8606 17.9023 60.7708 18.0605 60.6692 18.2207C60.5716 18.3809 60.4485 18.5293 60.3001 18.666C60.1556 18.7988 59.9778 18.9082 59.7669 18.9941C59.556 19.0762 59.3001 19.1172 58.9993 19.1172C58.6087 19.1172 58.2493 19.0371 57.9212 18.877C57.597 18.7168 57.3372 18.4941 57.1419 18.209C56.9466 17.9199 56.8489 17.5879 56.8489 17.2129C56.8489 16.8848 56.9075 16.5918 57.0247 16.334C57.1458 16.0762 57.3274 15.8574 57.5696 15.6777C57.8118 15.498 58.1204 15.3613 58.4954 15.2676C58.8704 15.1738 59.3118 15.127 59.8196 15.127H60.6692ZM66.797 12.6602V19H64.8165V12.6602H66.797ZM64.6993 11.0254C64.6993 10.7441 64.8009 10.5137 65.004 10.334C65.2071 10.1543 65.4708 10.0645 65.795 10.0645C66.1192 10.0645 66.3829 10.1543 66.586 10.334C66.7892 10.5137 66.8907 10.7441 66.8907 11.0254C66.8907 11.3066 66.7892 11.5371 66.586 11.7168C66.3829 11.8965 66.1192 11.9863 65.795 11.9863C65.4708 11.9863 65.2071 11.8965 65.004 11.7168C64.8009 11.5371 64.6993 11.3066 64.6993 11.0254ZM71.3017 10V19H69.3212V10H71.3017ZM75.6481 17.1133L76.82 12.6602H78.0563L77.6169 14.8926L76.4567 19H75.4665L75.6481 17.1133ZM75.1853 12.6602L75.9118 17.0781L75.9938 19H74.7927L73.2927 12.6602H75.1853ZM79.0993 16.9844L79.8317 12.6602H81.7243L80.236 19H79.0349L79.0993 16.9844ZM78.197 12.6602L79.3806 17.1016L79.5622 19H78.5603L77.4235 14.9043L77.0017 12.6602H78.197ZM85.7251 12.6602V19H83.7446V12.6602H85.7251ZM83.6274 11.0254C83.6274 10.7441 83.729 10.5137 83.9321 10.334C84.1353 10.1543 84.3989 10.0645 84.7231 10.0645C85.0474 10.0645 85.311 10.1543 85.5142 10.334C85.7173 10.5137 85.8188 10.7441 85.8188 11.0254C85.8188 11.3066 85.7173 11.5371 85.5142 11.7168C85.311 11.8965 85.0474 11.9863 84.7231 11.9863C84.3989 11.9863 84.1353 11.8965 83.9321 11.7168C83.729 11.5371 83.6274 11.3066 83.6274 11.0254ZM90.0833 14.0137V19H88.1087V12.6602H89.9603L90.0833 14.0137ZM89.8489 15.6133L89.386 15.625C89.386 15.1406 89.4446 14.709 89.5618 14.3301C89.679 13.9473 89.845 13.623 90.0599 13.3574C90.2747 13.0918 90.5306 12.8906 90.8274 12.7539C91.1282 12.6133 91.4622 12.543 91.8294 12.543C92.1224 12.543 92.3899 12.5859 92.6321 12.6719C92.8782 12.7578 93.0892 12.8965 93.2649 13.0879C93.4446 13.2793 93.5813 13.5332 93.6751 13.8496C93.7728 14.1621 93.8216 14.5488 93.8216 15.0098V19H91.8353V15.0039C91.8353 14.75 91.8001 14.5566 91.7298 14.4238C91.6595 14.2871 91.5579 14.1934 91.4251 14.1426C91.2923 14.0918 91.1302 14.0664 90.9388 14.0664C90.7356 14.0664 90.5638 14.1055 90.4231 14.1836C90.2825 14.2617 90.1692 14.3711 90.0833 14.5117C90.0013 14.6484 89.9407 14.8105 89.9017 14.998C89.8665 15.1855 89.8489 15.3906 89.8489 15.6133ZM99.7618 17.5469V10H101.748V19H99.9669L99.7618 17.5469ZM95.8712 15.9062V15.7832C95.8712 15.3027 95.9239 14.8652 96.0294 14.4707C96.1349 14.0723 96.2911 13.7305 96.4981 13.4453C96.7052 13.1562 96.963 12.9336 97.2716 12.7773C97.5802 12.6211 97.9356 12.543 98.338 12.543C98.6974 12.543 99.0118 12.627 99.2813 12.7949C99.5509 12.959 99.7813 13.1895 99.9728 13.4863C100.164 13.7832 100.32 14.1309 100.442 14.5293C100.563 14.9238 100.654 15.3496 100.717 15.8066V15.9531C100.654 16.3828 100.563 16.7891 100.442 17.1719C100.32 17.5508 100.164 17.8867 99.9728 18.1797C99.7813 18.4727 99.5489 18.7031 99.2755 18.8711C99.006 19.0352 98.6896 19.1172 98.3263 19.1172C97.9239 19.1172 97.5685 19.0371 97.2599 18.877C96.9552 18.7168 96.6993 18.4922 96.4923 18.2031C96.2892 17.9141 96.1349 17.5742 96.0294 17.1836C95.9239 16.793 95.8712 16.3672 95.8712 15.9062ZM97.8458 15.7832V15.9062C97.8458 16.1445 97.8614 16.3652 97.8927 16.5684C97.9239 16.7715 97.9767 16.9512 98.0509 17.1074C98.129 17.2598 98.2306 17.3789 98.3556 17.4648C98.4845 17.5508 98.6427 17.5938 98.8302 17.5938C99.0841 17.5938 99.2931 17.5332 99.4571 17.4121C99.6251 17.291 99.7481 17.1191 99.8263 16.8965C99.9083 16.6738 99.9435 16.4121 99.9317 16.1113V15.6484C99.9396 15.3906 99.922 15.1641 99.879 14.9688C99.836 14.7695 99.7677 14.6035 99.6739 14.4707C99.5841 14.3379 99.4688 14.2383 99.3282 14.1719C99.1915 14.1016 99.0294 14.0664 98.8419 14.0664C98.6583 14.0664 98.5021 14.1094 98.3731 14.1953C98.2481 14.2812 98.1466 14.4023 98.0685 14.5586C97.9903 14.7109 97.9337 14.8926 97.8985 15.1035C97.8634 15.3105 97.8458 15.5371 97.8458 15.7832Z" fill="white"/>
</svg>
