<svg width="96" height="96" viewBox="0 0 96 96" fill="none" xmlns="http://www.w3.org/2000/svg">
<g filter="url(#filter0_i_590_944)">
<rect width="96" height="96" rx="8" fill="url(#paint0_linear_590_944)"/>
</g>
<path d="M73.4951 23.4492C76.0861 24.0519 78.4405 25.4086 80.2612 27.3481C81.2641 28.3977 82.135 29.566 82.8544 30.827C82.8879 30.964 78.1854 34.1233 75.3335 35.8856C75.23 35.9556 74.8191 35.5082 74.3534 34.8203C73.8324 33.9248 73.093 33.1759 72.2041 32.6436C71.3152 32.1114 70.3059 31.8131 69.2705 31.7766C65.9925 31.5514 63.8802 33.268 63.8954 36.1382C63.8671 36.8433 64.0279 37.5432 64.3611 38.1653C65.0824 39.6567 66.4217 40.5515 70.628 42.3747C78.3711 45.7075 81.6947 47.905 83.7462 51.0278C84.9057 53.0009 85.6199 55.2036 85.8386 57.4818C86.0573 59.7599 85.7753 62.0583 85.0123 64.216C83.9637 66.5822 82.3009 68.6247 80.1964 70.1313C78.092 71.6379 75.6226 72.5538 73.0447 72.7839C70.3044 73.0982 67.5356 73.0696 64.8024 72.6986C60.6159 72.0107 56.7592 70.0014 53.7965 66.9644C52.6771 65.7039 51.7294 64.3007 50.9781 62.7915C51.294 62.5565 51.6267 62.3449 51.9734 62.1584C52.4543 61.8845 54.2744 60.8375 55.991 59.8422L59.1077 58.016L59.7591 58.9657C60.8561 60.5345 62.2526 61.8709 63.868 62.8981C65.4995 63.7929 67.3476 64.217 69.206 64.123C71.0644 64.0289 72.8602 63.4204 74.393 62.3654C75.1837 61.5948 75.678 60.5704 75.7893 59.4719C75.9006 58.3735 75.6218 57.2708 75.0017 56.3572C74.1617 55.155 72.4451 54.1445 67.5661 52.0291C63.7403 50.7391 60.2558 48.6009 57.3729 45.7744C55.9999 44.2099 54.986 42.3638 54.4022 40.3658C53.9706 38.0897 53.9068 35.7591 54.2135 33.4628C54.7863 30.8204 56.1575 28.418 58.1414 26.5811C60.1254 24.7442 62.6261 23.5615 65.3046 23.1935C68.0322 22.8676 70.7932 22.9538 73.4951 23.4492ZM48.1019 27.9629L48.1353 32.3884H34.0432V72.4065H24.1056V32.3975H10.0135V28.0512C9.97601 26.5627 10.0166 25.0734 10.1352 23.5892C10.187 23.5192 18.7549 23.4857 29.1429 23.504L48.0471 23.5557L48.1019 27.9629Z" fill="#007ACC"/>
<defs>
<filter id="filter0_i_590_944" x="-4" y="-4" width="100" height="100" filterUnits="userSpaceOnUse" color-interpolation-filters="sRGB">
<feFlood flood-opacity="0" result="BackgroundImageFix"/>
<feBlend mode="normal" in="SourceGraphic" in2="BackgroundImageFix" result="shape"/>
<feColorMatrix in="SourceAlpha" type="matrix" values="0 0 0 0 0 0 0 0 0 0 0 0 0 0 0 0 0 0 127 0" result="hardAlpha"/>
<feOffset dx="-4" dy="-4"/>
<feGaussianBlur stdDeviation="2"/>
<feComposite in2="hardAlpha" operator="arithmetic" k2="-1" k3="1"/>
<feColorMatrix type="matrix" values="0 0 0 0 0 0 0 0 0 0 0 0 0 0 0 0 0 0 0.25 0"/>
<feBlend mode="normal" in2="shape" result="effect1_innerShadow_590_944"/>
</filter>
<linearGradient id="paint0_linear_590_944" x1="4.5" y1="2.28407e-06" x2="96" y2="96" gradientUnits="userSpaceOnUse">
<stop offset="0.204511" stop-color="#3D3D3E"/>
<stop offset="1" stop-color="#6A6A71"/>
</linearGradient>
</defs>
</svg>
