<svg width="64" height="42" viewBox="0 0 64 42" fill="none" xmlns="http://www.w3.org/2000/svg">
<g clip-path="url(#clip0_656_1154)">
<path d="M64 9.60001H0V12.8H64V9.60001Z" fill="white"/>
<path d="M0 36.3C0 37 0.1 37.8 0.4 38.4H63.6C63.9 37.7 64 37 64 36.3V35.2H0V36.3Z" fill="white"/>
<path d="M64 22.4H0V25.6H64V22.4Z" fill="white"/>
<path d="M64 28.8H0V32H64V28.8Z" fill="white"/>
<path d="M64 16H0V19.2H64V16Z" fill="white"/>
<path d="M0 5.70001V6.40001H64V5.70001C64 4.80001 63.8 4.00001 63.4 3.20001H0.6C0.2 4.00001 0 4.80001 0 5.70001Z" fill="white"/>
<path d="M58.2 0H5.80001C3.50001 0 1.50001 1.3 0.600006 3.2H63.4C62.5 1.3 60.5 0 58.2 0Z" fill="#BD0A30"/>
<path d="M64 6.39999H0V9.59999H64V6.39999Z" fill="#BD0A30"/>
<path d="M64 12.8H0V16H64V12.8Z" fill="#BD0A30"/>
<path d="M64 19.2H0V22.4H64V19.2Z" fill="#BD0A30"/>
<path d="M64 25.6H0V28.8H64V25.6Z" fill="#BD0A30"/>
<path d="M64 32H0V35.2H64V32Z" fill="#BD0A30"/>
<path d="M5.79999 42H58.2C60.6 42 62.7 40.5 63.6 38.4H0.399994C1.29999 40.5 3.29999 42 5.79999 42Z" fill="#BD0A30"/>
<path d="M31.5 0H5.8C4.1 0 2.6 0.7 1.6 1.8H2.3L2.6 1L2.9 1.8H3.8L3.1 2.4L3.4 3.3L2.6 2.7L1.9 3.3L2.2 2.4L1.5 1.9C0.6 2.9 0 4.2 0 5.7V22.4H31.5V0Z" fill="#3C3B6E"/>
<path d="M2.2 2.4L1.9 3.3L2.6 2.7L3.4 3.3L3.1 2.4L3.8 1.8H2.9L2.6 1L2.3 1.8H1.6C1.6 1.8 1.6 1.8 1.5 1.9L2.2 2.4Z" fill="white"/>
<path d="M3.09999 6.89999L3.79999 6.29999H2.89999L2.59999 5.39999L2.29999 6.29999H1.39999L2.19999 6.89999L1.89999 7.79999L2.59999 7.19999L3.39999 7.79999L3.09999 6.89999Z" fill="white"/>
<path d="M3.09999 11.4L3.79999 10.8H2.89999L2.59999 9.89999L2.29999 10.8H1.39999L2.19999 11.4L1.89999 12.2L2.59999 11.7L3.39999 12.2L3.09999 11.4Z" fill="white"/>
<path d="M3.09999 15.8L3.79999 15.3H2.89999L2.59999 14.4L2.29999 15.3H1.39999L2.19999 15.8L1.89999 16.7L2.59999 16.2L3.39999 16.7L3.09999 15.8Z" fill="white"/>
<path d="M3.09999 20.3L3.79999 19.8H2.89999L2.59999 18.9L2.29999 19.8H1.39999L2.19999 20.3L1.89999 21.2L2.59999 20.7L3.39999 21.2L3.09999 20.3Z" fill="white"/>
<path d="M5.7 4.60001L6.5 4.10001H5.5L5.2 3.20001L5 4.10001H4L4.8 4.60001L4.5 5.50001L5.2 5.00001L6 5.50001L5.7 4.60001Z" fill="white"/>
<path d="M5.7 9.10001L6.5 8.60001H5.5L5.2 7.70001L5 8.60001H4L4.8 9.10001L4.5 10L5.2 9.40001L6 10L5.7 9.10001Z" fill="white"/>
<path d="M5.7 13.6L6.5 13H5.5L5.2 12.2L5 13H4L4.8 13.6L4.5 14.5L5.2 13.9L6 14.5L5.7 13.6Z" fill="white"/>
<path d="M5.7 18.1L6.5 17.5H5.5L5.2 16.6L5 17.5H4L4.8 18.1L4.5 19L5.2 18.4L6 19L5.7 18.1Z" fill="white"/>
<path d="M7.1 3.3L7.9 2.7L8.6 3.3L8.3 2.4L9.1 1.8H8.1L7.9 1L7.6 1.8H6.7L7.4 2.4L7.1 3.3Z" fill="white"/>
<path d="M7.9 5.39999L7.6 6.29999H6.7L7.4 6.89999L7.1 7.79999L7.9 7.19999L8.6 7.79999L8.3 6.89999L9.1 6.29999H8.1L7.9 5.39999Z" fill="white"/>
<path d="M7.9 9.89999L7.6 10.8H6.7L7.4 11.4L7.1 12.2L7.9 11.7L8.6 12.2L8.3 11.4L9.1 10.8H8.1L7.9 9.89999Z" fill="white"/>
<path d="M8.1 15.3L7.9 14.4L7.6 15.3H6.7L7.4 15.8L7.1 16.7L7.9 16.2L8.6 16.7L8.3 15.8L9.1 15.3H8.1Z" fill="white"/>
<path d="M8.3 20.3L9.1 19.8H8.1L7.9 18.9L7.6 19.8H6.7L7.4 20.3L7.1 21.2L7.9 20.7L8.6 21.2L8.3 20.3Z" fill="white"/>
<path d="M10 4.60001L9.7 5.50001L10.5 5.00001L11.2 5.50001L10.9 4.60001L11.7 4.10001H10.8L10.5 3.20001L10.2 4.10001H9.3L10 4.60001Z" fill="white"/>
<path d="M10.5 7.70001L10.2 8.60001H9.3L10 9.10001L9.7 10L10.5 9.40001L11.2 10L10.9 9.10001L11.7 8.60001H10.8L10.5 7.70001Z" fill="white"/>
<path d="M10.5 12.2L10.2 13H9.3L10 13.6L9.7 14.5L10.5 13.9L11.2 14.5L10.9 13.6L11.7 13H10.8L10.5 12.2Z" fill="white"/>
<path d="M10.8 17.5L10.5 16.6L10.2 17.5H9.3L10 18.1L9.7 19L10.5 18.4L11.2 19L10.9 18.1L11.7 17.5H10.8Z" fill="white"/>
<path d="M13.1 1L12.8 1.8H11.9L12.6 2.4L12.4 3.3L13.1 2.7L13.9 3.3L13.6 2.4L14.3 1.8H13.4L13.1 1Z" fill="white"/>
<path d="M13.1 5.39999L12.8 6.29999H11.9L12.6 6.89999L12.4 7.79999L13.1 7.19999L13.9 7.79999L13.6 6.89999L14.3 6.29999H13.4L13.1 5.39999Z" fill="white"/>
<path d="M13.1 9.89999L12.8 10.8H11.9L12.6 11.4L12.4 12.2L13.1 11.7L13.9 12.2L13.6 11.4L14.3 10.8H13.4L13.1 9.89999Z" fill="white"/>
<path d="M13.1 14.4L12.8 15.3H11.9L12.6 15.8L12.4 16.7L13.1 16.2L13.9 16.7L13.6 15.8L14.3 15.3H13.4L13.1 14.4Z" fill="white"/>
<path d="M13.4 19.8L13.1 18.9L12.8 19.8H11.9L12.6 20.3L12.4 21.2L13.1 20.7L13.9 21.2L13.6 20.3L14.3 19.8H13.4Z" fill="white"/>
<path d="M15.7 3.20001L15.4 4.10001H14.5L15.3 4.60001L15 5.50001L15.7 5.00001L16.5 5.50001L16.2 4.60001L16.9 4.10001H16L15.7 3.20001Z" fill="white"/>
<path d="M15.7 7.70001L15.4 8.60001H14.5L15.3 9.10001L15 10L15.7 9.40001L16.5 10L16.2 9.10001L16.9 8.60001H16L15.7 7.70001Z" fill="white"/>
<path d="M15.7 12.2L15.4 13H14.5L15.3 13.6L15 14.5L15.7 13.9L16.5 14.5L16.2 13.6L16.9 13H16L15.7 12.2Z" fill="white"/>
<path d="M16 17.5L15.7 16.6L15.4 17.5H14.5L15.3 18.1L15 19L15.7 18.4L16.5 19L16.2 18.1L16.9 17.5H16Z" fill="white"/>
<path d="M18.3 1L18.1 1.8H17.1L17.9 2.4L17.6 3.3L18.3 2.7L19.1 3.3L18.8 2.4L19.6 1.8H18.6L18.3 1Z" fill="white"/>
<path d="M18.3 5.39999L18.1 6.29999H17.1L17.9 6.89999L17.6 7.79999L18.3 7.19999L19.1 7.79999L18.8 6.89999L19.6 6.29999H18.6L18.3 5.39999Z" fill="white"/>
<path d="M18.3 9.89999L18.1 10.8H17.1L17.9 11.4L17.6 12.2L18.3 11.7L19.1 12.2L18.8 11.4L19.6 10.8H18.6L18.3 9.89999Z" fill="white"/>
<path d="M18.3 14.4L18.1 15.3H17.1L17.9 15.8L17.6 16.7L18.3 16.2L19.1 16.7L18.8 15.8L19.6 15.3H18.6L18.3 14.4Z" fill="white"/>
<path d="M18.6 19.8L18.3 18.9L18.1 19.8H17.1L17.9 20.3L17.6 21.2L18.3 20.7L19.1 21.2L18.8 20.3L19.6 19.8H18.6Z" fill="white"/>
<path d="M21 3.20001L20.7 4.10001H19.8L20.5 4.60001L20.2 5.50001L21 5.00001L21.7 5.50001L21.4 4.60001L22.2 4.10001H21.3L21 3.20001Z" fill="white"/>
<path d="M23.6 5.39999L23.3 6.29999H22.4L23.1 6.89999L22.8 7.79999L23.6 7.19999L24.3 7.79999L24.1 6.89999L24.8 6.29999H23.9L23.6 5.39999Z" fill="white"/>
<path d="M21 7.70001L20.7 8.60001H19.8L20.5 9.10001L20.2 10L21 9.40001L21.7 10L21.4 9.10001L22.2 8.60001H21.3L21 7.70001Z" fill="white"/>
<path d="M21 12.2L20.7 13H19.8L20.5 13.6L20.2 14.5L21 13.9L21.7 14.5L21.4 13.6L22.2 13H21.3L21 12.2Z" fill="white"/>
<path d="M21.3 17.5L21 16.6L20.7 17.5H19.8L20.5 18.1L20.2 19L21 18.4L21.7 19L21.4 18.1L22.2 17.5H21.3Z" fill="white"/>
<path d="M23.6 1L23.3 1.8H22.4L23.1 2.4L22.8 3.3L23.6 2.7L24.3 3.3L24.1 2.4L24.8 1.8H23.9L23.6 1Z" fill="white"/>
<path d="M23.6 9.89999L23.3 10.8H22.4L23.1 11.4L22.8 12.2L23.6 11.7L24.3 12.2L24.1 11.4L24.8 10.8H23.9L23.6 9.89999Z" fill="white"/>
<path d="M23.6 14.4L23.3 15.3H22.4L23.1 15.8L22.8 16.7L23.6 16.2L24.3 16.7L24.1 15.8L24.8 15.3H23.9L23.6 14.4Z" fill="white"/>
<path d="M23.9 19.8L23.6 18.9L23.3 19.8H22.4L23.1 20.3L22.8 21.2L23.6 20.7L24.3 21.2L24.1 20.3L24.8 19.8H23.9Z" fill="white"/>
<path d="M26.2 3.20001L25.9 4.10001H25L25.7 4.60001L25.5 5.50001L26.2 5.00001L27 5.50001L26.7 4.60001L27.4 4.10001H26.5L26.2 3.20001Z" fill="white"/>
<path d="M26.2 7.70001L25.9 8.60001H25L25.7 9.10001L25.5 10L26.2 9.40001L27 10L26.7 9.10001L27.4 8.60001H26.5L26.2 7.70001Z" fill="white"/>
<path d="M26.2 12.2L25.9 13H25L25.7 13.6L25.5 14.5L26.2 13.9L27 14.5L26.7 13.6L27.4 13H26.5L26.2 12.2Z" fill="white"/>
<path d="M26.5 17.5L26.2 16.6L25.9 17.5H25L25.7 18.1L25.5 19L26.2 18.4L27 19L26.7 18.1L27.4 17.5H26.5Z" fill="white"/>
<path d="M28.4 2.4L28.1 3.3L28.8 2.7L29.6 3.3L29.3 2.4L30 1.8H29.1L28.8 1L28.5 1.8H27.6L28.4 2.4Z" fill="white"/>
<path d="M28.8 5.39999L28.5 6.29999H27.6L28.4 6.89999L28.1 7.79999L28.8 7.19999L29.6 7.79999L29.3 6.89999L30 6.29999H29.1L28.8 5.39999Z" fill="white"/>
<path d="M28.8 9.89999L28.5 10.8H27.6L28.4 11.4L28.1 12.2L28.8 11.7L29.6 12.2L29.3 11.4L30 10.8H29.1L28.8 9.89999Z" fill="white"/>
<path d="M28.8 14.4L28.5 15.3H27.6L28.4 15.8L28.1 16.7L28.8 16.2L29.6 16.7L29.3 15.8L30 15.3H29.1L28.8 14.4Z" fill="white"/>
<path d="M29.1 19.8L28.8 18.9L28.5 19.8H27.6L28.4 20.3L28.1 21.2L28.8 20.7L29.6 21.2L29.3 20.3L30 19.8H29.1Z" fill="white"/>
</g>
<defs>
<clipPath id="clip0_656_1154">
<rect width="64" height="42" fill="white"/>
</clipPath>
</defs>
</svg>
