<svg width="96" height="96" viewBox="0 0 96 96" fill="none" xmlns="http://www.w3.org/2000/svg">
<rect width="96" height="96" rx="20" fill="#3D3D3E"/>
<mask id="mask0_354_167" style="mask-type:alpha" maskUnits="userSpaceOnUse" x="13" y="13" width="70" height="70">
<path fill-rule="evenodd" clip-rule="evenodd" d="M62.6384 82.3417C63.7403 82.7708 64.9977 82.7436 66.1106 82.2082L80.5228 75.273C81.265 74.9157 81.8912 74.3561 82.3295 73.6586C82.7677 72.9611 83.0001 72.1541 83 71.3303V24.3085C83.0001 23.4848 82.7676 22.6778 82.3294 21.9803C81.8911 21.2828 81.2649 20.7232 80.5228 20.3658L66.1106 13.4307C65.2963 13.039 64.3804 12.9101 63.4896 13.0619C62.5988 13.2137 61.7773 13.6386 61.1386 14.2778L33.5483 39.4486L21.5316 30.3259C20.9894 29.9143 20.3202 29.7055 19.6401 29.7358C18.96 29.7661 18.3121 30.0336 17.8086 30.4918L13.9541 33.9983C13.6539 34.2715 13.4141 34.6044 13.2499 34.9756C13.0856 35.3467 13.0007 35.7481 13.0004 36.154C13.0001 36.5599 13.0844 36.9614 13.2481 37.3328C13.4118 37.7042 13.6511 38.0374 13.9509 38.3111L24.3731 47.8194L13.9509 57.3278C13.651 57.6014 13.4116 57.9347 13.2478 58.3062C13.0841 58.6777 12.9997 59.0792 13 59.4852C13.0003 59.8912 13.0853 60.2926 13.2496 60.6638C13.4139 61.0351 13.6538 61.368 13.9541 61.6412L17.8086 65.1477C18.3121 65.6057 18.96 65.8729 19.6399 65.9031C20.3199 65.9333 20.9889 65.7245 21.531 65.3129L33.5483 56.1903L61.138 81.3611C61.5648 81.7884 62.0757 82.1223 62.6384 82.3417ZM65.5104 31.9288L44.5765 47.8194L65.5104 63.7101V31.9288Z" fill="white"/>
</mask>
<g mask="url(#mask0_354_167)">
<path d="M83.5742 20.6812L68.2028 13.2797C67.3347 12.8618 66.3582 12.7241 65.4083 12.8856C64.4585 13.0471 63.5824 13.4998 62.9012 14.1812L12.5809 60.0613C12.2612 60.3528 12.0058 60.7079 11.8312 61.1038C11.6566 61.4998 11.5666 61.9278 11.5669 62.3605C11.5672 62.7932 11.6579 63.2211 11.8331 63.6168C12.0083 64.0124 12.2642 64.3672 12.5844 64.6582L16.6944 68.3952C17.2315 68.8836 17.9226 69.1686 18.6478 69.2008C19.373 69.2329 20.0866 69.0103 20.6649 68.5714L81.2615 22.6015C83.2944 21.059 86.2143 22.5089 86.2143 25.0606V24.8824C86.2143 24.0046 85.9665 23.1447 85.4995 22.4014C85.0324 21.6582 84.3651 21.062 83.5742 20.6812Z" fill="#0065A9"/>
<g filter="url(#filter0_d_354_167)">
<path d="M83.5742 79.1745L68.2028 86.5753C67.3347 86.9932 66.3583 87.1311 65.4085 86.9697C64.4587 86.8083 63.5825 86.3557 62.9012 85.6745L12.5809 39.7944C12.2612 39.5029 12.0058 39.1478 11.8312 38.7518C11.6566 38.3559 11.5666 37.9279 11.5669 37.4952C11.5672 37.0624 11.6579 36.6346 11.8331 36.2389C12.0083 35.8432 12.2642 35.4885 12.5844 35.1974L16.6944 31.4604C17.2315 30.9721 17.9226 30.6871 18.6478 30.6549C19.373 30.6227 20.0866 30.8454 20.6649 31.2843L81.2615 77.2542C83.2944 78.7966 86.2143 77.3467 86.2143 74.7951V74.9733C86.2143 75.8511 85.9665 76.711 85.4995 77.4542C85.0324 78.1974 84.3651 78.7937 83.5742 79.1745Z" fill="#007ACC"/>
</g>
<g filter="url(#filter1_d_354_167)">
<path d="M68.2036 86.5766C67.3353 86.9944 66.3587 87.132 65.4088 86.9704C64.4588 86.8088 63.5826 86.3559 62.9014 85.6745C64.6214 87.3952 67.564 86.1767 67.564 83.7432V16.1125C67.564 13.679 64.6214 12.4605 62.9014 14.1812C63.5826 13.4997 64.4588 13.0468 65.4087 12.8851C66.3586 12.7233 67.3352 12.8608 68.2036 13.2783L83.5723 20.6694C84.3637 21.05 85.0315 21.6462 85.4989 22.3896C85.9664 23.133 86.2144 23.9932 86.2144 24.8713V74.9844C86.2144 75.8625 85.9664 76.7227 85.4989 77.4661C85.0315 78.2095 84.3637 78.8057 83.5723 79.1862L68.2036 86.5766Z" fill="#1F9CF0"/>
</g>
<path style="mix-blend-mode:overlay" opacity="0.25" fill-rule="evenodd" clip-rule="evenodd" d="M64.4692 86.719C65.0627 86.9506 65.6976 87.0575 66.3342 87.0332C66.9708 87.0088 67.5956 86.8536 68.1696 86.5774L83.5286 79.1863C84.3196 78.8054 84.9869 78.209 85.454 77.4657C85.921 76.7223 86.1688 75.8623 86.1687 74.9844V24.8713C86.1689 23.9934 85.9213 23.1333 85.4542 22.3899C84.9871 21.6466 84.3197 21.0502 83.5286 20.6695L68.1696 13.2784C67.3017 12.8608 66.3255 12.7234 65.376 12.8852C64.4265 13.0469 63.5509 13.4998 62.8701 14.1812L33.4667 41.0067L20.6594 31.2843C20.0815 30.8456 19.3683 30.6231 18.6435 30.6554C17.9188 30.6877 17.2282 30.9728 16.6917 31.4612L12.5837 35.1982C12.2638 35.4893 12.0082 35.8441 11.8332 36.2396C11.6582 36.6352 11.5676 37.063 11.5673 37.4956C11.5669 37.9281 11.6569 38.356 11.8313 38.7519C12.0057 39.1477 12.2608 39.5028 12.5803 39.7945L23.6876 49.9279L12.5803 60.0613C12.2607 60.3529 12.0055 60.7081 11.831 61.104C11.6565 61.4999 11.5666 61.9279 11.5669 62.3605C11.5672 62.7932 11.6578 63.221 11.8329 63.6167C12.008 64.0123 12.2637 64.3671 12.5837 64.6583L16.6917 68.3953C17.2282 68.8834 17.9187 69.1682 18.6433 69.2004C19.368 69.2326 20.081 69.01 20.6587 68.5714L33.4667 58.849L62.8701 85.6746C63.3247 86.1299 63.8697 86.4856 64.4692 86.719ZM67.5293 32.9919L45.2199 49.9279L67.5307 66.8632V32.9926L67.5293 32.9919Z" fill="url(#paint0_linear_354_167)"/>
</g>
<defs>
<filter id="filter0_d_354_167" x="2.68502" y="21.77" width="92.4112" height="74.1473" filterUnits="userSpaceOnUse" color-interpolation-filters="sRGB">
<feFlood flood-opacity="0" result="BackgroundImageFix"/>
<feColorMatrix in="SourceAlpha" type="matrix" values="0 0 0 0 0 0 0 0 0 0 0 0 0 0 0 0 0 0 127 0" result="hardAlpha"/>
<feOffset/>
<feGaussianBlur stdDeviation="4.44094"/>
<feColorMatrix type="matrix" values="0 0 0 0 0 0 0 0 0 0 0 0 0 0 0 0 0 0 0.25 0"/>
<feBlend mode="overlay" in2="BackgroundImageFix" result="effect1_dropShadow_354_167"/>
<feBlend mode="normal" in="SourceGraphic" in2="effect1_dropShadow_354_167" result="shape"/>
</filter>
<filter id="filter1_d_354_167" x="54.0195" y="3.93725" width="41.0767" height="91.9809" filterUnits="userSpaceOnUse" color-interpolation-filters="sRGB">
<feFlood flood-opacity="0" result="BackgroundImageFix"/>
<feColorMatrix in="SourceAlpha" type="matrix" values="0 0 0 0 0 0 0 0 0 0 0 0 0 0 0 0 0 0 127 0" result="hardAlpha"/>
<feOffset/>
<feGaussianBlur stdDeviation="4.44094"/>
<feColorMatrix type="matrix" values="0 0 0 0 0 0 0 0 0 0 0 0 0 0 0 0 0 0 0.25 0"/>
<feBlend mode="overlay" in2="BackgroundImageFix" result="effect1_dropShadow_354_167"/>
<feBlend mode="normal" in="SourceGraphic" in2="effect1_dropShadow_354_167" result="shape"/>
</filter>
<linearGradient id="paint0_linear_354_167" x1="48.8678" y1="12.819" x2="48.8678" y2="87.0367" gradientUnits="userSpaceOnUse">
<stop stop-color="white"/>
<stop offset="1" stop-color="white" stop-opacity="0"/>
</linearGradient>
</defs>
</svg>
