<svg width="96" height="96" viewBox="0 0 96 96" fill="none" xmlns="http://www.w3.org/2000/svg">
<g filter="url(#filter0_i_586_973)">
<rect width="96" height="96" rx="8" fill="url(#paint0_linear_586_973)"/>
</g>
<path d="M83.0074 18.8621L67.6359 11.4606C66.7678 11.0427 65.7913 10.905 64.8415 11.0665C63.8917 11.228 63.0156 11.6807 62.3344 12.362L12.0141 58.2421C11.6944 58.5337 11.439 58.8888 11.2644 59.2847C11.0898 59.6806 10.9997 60.1087 11.0001 60.5414C11.0004 60.9741 11.0911 61.402 11.2663 61.7977C11.4415 62.1933 11.6974 62.548 12.0176 62.8391L16.1276 66.5761C16.6647 67.0645 17.3558 67.3495 18.081 67.3816C18.8062 67.4138 19.5198 67.1911 20.098 66.7522L80.6947 20.7824C82.7276 19.2399 85.6474 20.6898 85.6474 23.2415V23.0632C85.6474 22.1855 85.3997 21.3255 84.9326 20.5823C84.4656 19.8391 83.7982 19.2428 83.0074 18.8621Z" fill="#0065A9"/>
<g filter="url(#filter1_d_586_973)">
<path d="M83.0074 77.3554L67.6359 84.7561C66.7679 85.1741 65.7914 85.312 64.8416 85.1506C63.8918 84.9892 63.0156 84.5366 62.3344 83.8554L12.0141 37.9753C11.6944 37.6838 11.439 37.3286 11.2644 36.9327C11.0898 36.5368 10.9997 36.1088 11.0001 35.6761C11.0004 35.2433 11.0911 34.8154 11.2663 34.4198C11.4415 34.0241 11.6974 33.6694 12.0176 33.3783L16.1276 29.6413C16.6647 29.153 17.3558 28.868 18.081 28.8358C18.8062 28.8036 19.5198 29.0263 20.098 29.4652L80.6947 75.4351C82.7276 76.9775 85.6474 75.5276 85.6474 72.976V73.1542C85.6474 74.032 85.3997 74.8919 84.9326 75.6351C84.4656 76.3783 83.7982 76.9746 83.0074 77.3554Z" fill="#007ACC"/>
</g>
<g filter="url(#filter2_d_586_973)">
<path d="M67.6367 84.7575C66.7684 85.1753 65.7918 85.3129 64.8419 85.1512C63.892 84.9896 63.0157 84.5368 62.3345 83.8554C64.0545 85.5761 66.9971 84.3576 66.9971 81.924V14.2934C66.9971 11.8598 64.0545 10.6414 62.3345 12.362C63.0157 11.6806 63.8919 11.2277 64.8418 11.066C65.7917 10.9042 66.7683 11.0416 67.6367 11.4592L83.0054 18.8503C83.7968 19.2308 84.4646 19.8271 84.932 20.5705C85.3995 21.3138 85.6475 22.1741 85.6475 23.0522V73.1652C85.6475 74.0433 85.3995 74.9036 84.932 75.647C84.4646 76.3903 83.7968 76.9866 83.0054 77.3671L67.6367 84.7575Z" fill="#1F9CF0"/>
</g>
<path style="mix-blend-mode:overlay" opacity="0.25" fill-rule="evenodd" clip-rule="evenodd" d="M63.9024 84.8998C64.4958 85.1314 65.1307 85.2384 65.7673 85.214C66.4039 85.1897 67.0287 85.0345 67.6027 84.7582L82.9617 77.3671C83.7527 76.9863 84.42 76.3899 84.8871 75.6465C85.3541 74.9032 85.6019 74.0431 85.6018 73.1653V23.0522C85.602 22.1743 85.3544 21.3142 84.8873 20.5708C84.4202 19.8275 83.7528 19.2311 82.9617 18.8503L67.6027 11.4592C66.7348 11.0417 65.7586 10.9043 64.8091 11.066C63.8597 11.2278 62.984 11.6807 62.3033 12.3621L32.8998 39.1876L20.0925 29.4652C19.5146 29.0265 18.8014 28.804 18.0766 28.8363C17.3519 28.8686 16.6613 29.1537 16.1248 29.642L12.0168 33.379C11.6969 33.6702 11.4413 34.0249 11.2663 34.4205C11.0913 34.8161 11.0007 35.2438 11.0004 35.6764C11.0001 36.109 11.09 36.5369 11.2644 36.9327C11.4388 37.3286 11.6939 37.6837 12.0134 37.9753L23.1208 48.1087L12.0134 58.2421C11.6938 58.5338 11.4386 58.889 11.2641 59.2849C11.0896 59.6808 10.9997 60.1087 11 60.5414C11.0003 60.9741 11.0909 61.4019 11.266 61.7975C11.4411 62.1932 11.6968 62.5479 12.0168 62.8391L16.1248 66.5761C16.6613 67.0642 17.3518 67.3491 18.0764 67.3813C18.8011 67.4134 19.5141 67.1909 20.0918 66.7523L32.8998 57.0299L62.3033 83.8554C62.7578 84.3108 63.3028 84.6665 63.9024 84.8998ZM66.9624 31.1728L44.653 48.1087L66.9638 65.044V31.1734L66.9624 31.1728Z" fill="url(#paint1_linear_586_973)"/>
<defs>
<filter id="filter0_i_586_973" x="-4" y="-4" width="100" height="100" filterUnits="userSpaceOnUse" color-interpolation-filters="sRGB">
<feFlood flood-opacity="0" result="BackgroundImageFix"/>
<feBlend mode="normal" in="SourceGraphic" in2="BackgroundImageFix" result="shape"/>
<feColorMatrix in="SourceAlpha" type="matrix" values="0 0 0 0 0 0 0 0 0 0 0 0 0 0 0 0 0 0 127 0" result="hardAlpha"/>
<feOffset dx="-4" dy="-4"/>
<feGaussianBlur stdDeviation="2"/>
<feComposite in2="hardAlpha" operator="arithmetic" k2="-1" k3="1"/>
<feColorMatrix type="matrix" values="0 0 0 0 0 0 0 0 0 0 0 0 0 0 0 0 0 0 0.25 0"/>
<feBlend mode="normal" in2="shape" result="effect1_innerShadow_586_973"/>
</filter>
<filter id="filter1_d_586_973" x="2.11818" y="19.9509" width="92.4112" height="74.1473" filterUnits="userSpaceOnUse" color-interpolation-filters="sRGB">
<feFlood flood-opacity="0" result="BackgroundImageFix"/>
<feColorMatrix in="SourceAlpha" type="matrix" values="0 0 0 0 0 0 0 0 0 0 0 0 0 0 0 0 0 0 127 0" result="hardAlpha"/>
<feOffset/>
<feGaussianBlur stdDeviation="4.44094"/>
<feColorMatrix type="matrix" values="0 0 0 0 0 0 0 0 0 0 0 0 0 0 0 0 0 0 0.25 0"/>
<feBlend mode="overlay" in2="BackgroundImageFix" result="effect1_dropShadow_586_973"/>
<feBlend mode="normal" in="SourceGraphic" in2="effect1_dropShadow_586_973" result="shape"/>
</filter>
<filter id="filter2_d_586_973" x="53.4526" y="2.11811" width="41.0768" height="91.9809" filterUnits="userSpaceOnUse" color-interpolation-filters="sRGB">
<feFlood flood-opacity="0" result="BackgroundImageFix"/>
<feColorMatrix in="SourceAlpha" type="matrix" values="0 0 0 0 0 0 0 0 0 0 0 0 0 0 0 0 0 0 127 0" result="hardAlpha"/>
<feOffset/>
<feGaussianBlur stdDeviation="4.44094"/>
<feColorMatrix type="matrix" values="0 0 0 0 0 0 0 0 0 0 0 0 0 0 0 0 0 0 0.25 0"/>
<feBlend mode="overlay" in2="BackgroundImageFix" result="effect1_dropShadow_586_973"/>
<feBlend mode="normal" in="SourceGraphic" in2="effect1_dropShadow_586_973" result="shape"/>
</filter>
<linearGradient id="paint0_linear_586_973" x1="4.5" y1="2.28407e-06" x2="96" y2="96" gradientUnits="userSpaceOnUse">
<stop offset="0.204511" stop-color="#3D3D3E"/>
<stop offset="1" stop-color="#6A6A71"/>
</linearGradient>
<linearGradient id="paint1_linear_586_973" x1="48.3009" y1="10.9999" x2="48.3009" y2="85.2176" gradientUnits="userSpaceOnUse">
<stop stop-color="white"/>
<stop offset="1" stop-color="white" stop-opacity="0"/>
</linearGradient>
</defs>
</svg>
