<svg width="96" height="96" viewBox="0 0 96 96" fill="none" xmlns="http://www.w3.org/2000/svg">
<g filter="url(#filter0_i_590_943)">
<rect width="96" height="96" rx="8" fill="url(#paint0_linear_590_943)"/>
</g>
<path d="M80.8435 68.9038L49.3891 86.713V72.8348L68.9728 62.0391L80.8435 68.9038ZM83 66.9771V29.6749L71.5114 36.3809V60.2809L83 66.9124V66.9771ZM15.1565 68.9038L46.6109 86.713V72.8348L27.0272 62.0391L15.1565 68.9038ZM13 66.9771V29.6749L24.4886 36.3809V60.2809L13 66.9771ZM14.3114 27.2723L46.6141 9V22.4152L25.7967 33.9038L14.3114 27.2723ZM81.6918 27.2723L49.3891 9V22.4152L70.2033 33.9038L81.6918 27.2723ZM46.6141 69.6744L27.2765 59.031V37.906L46.6271 49.0837L46.6141 69.6744ZM49.3891 69.6744L68.7397 59.0342V37.9092L49.3891 49.087V69.6744ZM28.5717 35.5196L48 24.8016L67.4283 35.5196L48 46.7005L28.5717 35.5196Z" fill="#8D8D8D"/>
<defs>
<filter id="filter0_i_590_943" x="-4" y="-4" width="100" height="100" filterUnits="userSpaceOnUse" color-interpolation-filters="sRGB">
<feFlood flood-opacity="0" result="BackgroundImageFix"/>
<feBlend mode="normal" in="SourceGraphic" in2="BackgroundImageFix" result="shape"/>
<feColorMatrix in="SourceAlpha" type="matrix" values="0 0 0 0 0 0 0 0 0 0 0 0 0 0 0 0 0 0 127 0" result="hardAlpha"/>
<feOffset dx="-4" dy="-4"/>
<feGaussianBlur stdDeviation="2"/>
<feComposite in2="hardAlpha" operator="arithmetic" k2="-1" k3="1"/>
<feColorMatrix type="matrix" values="0 0 0 0 0 0 0 0 0 0 0 0 0 0 0 0 0 0 0.25 0"/>
<feBlend mode="normal" in2="shape" result="effect1_innerShadow_590_943"/>
</filter>
<linearGradient id="paint0_linear_590_943" x1="4.5" y1="2.28407e-06" x2="96" y2="96" gradientUnits="userSpaceOnUse">
<stop offset="0.204511" stop-color="#3D3D3E"/>
<stop offset="1" stop-color="#6A6A71"/>
</linearGradient>
</defs>
</svg>
